<svg id="Layer_1" data-name="Layer 1" xmlns="http://www.w3.org/2000/svg" xmlns:xlink="http://www.w3.org/1999/xlink" viewBox="0 0 308.81 72"><defs><style>.cls-1{clip-path:url(#clip-path);}.cls-2{fill:#0059a4;}.cls-3{fill:#1c7dbf;}.cls-4{fill:#8ac640;}</style><clipPath id="clip-path" transform="translate(-3743.23 -574.68)"/></defs><title>cbtn</title><g class="cls-1"><path class="cls-2" d="M4019.32,646.68H3776A32.73,32.73,0,0,1,3743.23,614h0A32.73,32.73,0,0,1,3776,581.23h243.36A32.73,32.73,0,0,1,4052.05,614h0A32.72,32.72,0,0,1,4019.32,646.68Z" transform="translate(-3743.23 -574.68)"/><rect class="cls-3" width="308.81" height="65.45" rx="32.73"/><rect class="cls-4" y="2.68" width="308.81" height="65.45" rx="32.73"/><path class="cls-2" d="M3799.75,618.51l-3.38-4.81c-.31,0-.65,0-1,0h-3.87v4.77h-2.23V602.86h6.1c4.07,0,6.53,2,6.53,5.45a4.94,4.94,0,0,1-3.45,4.94l3.71,5.26Zm-.07-10.2c0-2.23-1.5-3.51-4.36-3.51h-3.8v7h3.8C3798.18,611.84,3799.68,610.55,3799.68,608.31Z" transform="translate(-3743.23 -574.68)"/><path class="cls-2" d="M3816.89,616.56v2h-11.35V602.86h11v1.94h-8.81v4.81h7.85v1.9h-7.85v5Z" transform="translate(-3743.23 -574.68)"/><path class="cls-2" d="M3831.29,610.59h2.14v6.11a9.27,9.27,0,0,1-5.92,2c-4.81,0-8.34-3.37-8.34-8s3.53-8,8.38-8a7.87,7.87,0,0,1,6,2.41l-1.39,1.39a6.2,6.2,0,0,0-4.54-1.81,6,6,0,1,0,0,12,6.69,6.69,0,0,0,3.67-1Z" transform="translate(-3743.23 -574.68)"/><path class="cls-2" d="M3837.7,602.86h2.24v15.65h-2.24Z" transform="translate(-3743.23 -574.68)"/><path class="cls-2" d="M3843.2,616.72,3844,615a8,8,0,0,0,5.16,1.81c2.71,0,3.87-1,3.87-2.41,0-3.82-9.48-1.41-9.48-7.22,0-2.41,1.88-4.47,6-4.47a9.18,9.18,0,0,1,5,1.39l-.74,1.78a8.07,8.07,0,0,0-4.29-1.27c-2.66,0-3.8,1.12-3.8,2.48,0,3.82,9.48,1.43,9.48,7.18,0,2.39-1.92,4.44-6.06,4.44A9.3,9.3,0,0,1,3843.2,616.72Z" transform="translate(-3743.23 -574.68)"/><path class="cls-2" d="M3861.4,604.8H3856v-1.94H3869v1.94h-5.36v13.71h-2.21Z" transform="translate(-3743.23 -574.68)"/><path class="cls-2" d="M3882.77,616.56v2h-11.36V602.86h11v1.94h-8.81v4.81h7.85v1.9h-7.85v5Z" transform="translate(-3743.23 -574.68)"/><path class="cls-2" d="M3896.85,618.51l-3.38-4.81c-.31,0-.65,0-1,0h-3.87v4.77h-2.23V602.86h6.1c4.07,0,6.53,2,6.53,5.45a4.94,4.94,0,0,1-3.45,4.94l3.71,5.26Zm-.07-10.2c0-2.23-1.5-3.51-4.36-3.51h-3.8v7h3.8C3895.28,611.84,3896.78,610.55,3896.78,608.31Z" transform="translate(-3743.23 -574.68)"/><path class="cls-2" d="M3930.76,602.86l-5.23,15.65h-2.35l-4.27-12.5-4.27,12.5h-2.39L3907,602.86h2.3l4.22,12.72,4.41-12.72H3920l4.32,12.78,4.31-12.78Z" transform="translate(-3743.23 -574.68)"/><path class="cls-2" d="M3933.48,602.86h2.24v15.65h-2.24Z" transform="translate(-3743.23 -574.68)"/><path class="cls-2" d="M3943.52,604.8h-5.37v-1.94h12.95v1.94h-5.37v13.71h-2.21Z" transform="translate(-3743.23 -574.68)"/><path class="cls-2" d="M3967,602.86v15.65h-2.24v-7h-9v7h-2.24V602.86h2.24v6.73h9v-6.73Z" transform="translate(-3743.23 -574.68)"/><path class="cls-2" d="M3977.56,611.75v-8.89h2.24v8.81c0,3.46,1.58,5,4.4,5s4.43-1.57,4.43-5v-8.81h2.17v8.89c0,4.54-2.49,6.93-6.62,6.93S3977.56,616.29,3977.56,611.75Z" transform="translate(-3743.23 -574.68)"/><path class="cls-2" d="M3994,616.72l.82-1.75a8.09,8.09,0,0,0,5.17,1.81c2.7,0,3.86-1,3.86-2.41,0-3.82-9.47-1.41-9.47-7.22,0-2.41,1.87-4.47,6-4.47a9.18,9.18,0,0,1,5,1.39l-.74,1.78a8.09,8.09,0,0,0-4.29-1.27c-2.66,0-3.8,1.12-3.8,2.48,0,3.82,9.47,1.43,9.47,7.18,0,2.39-1.92,4.44-6,4.44A9.3,9.3,0,0,1,3994,616.72Z" transform="translate(-3743.23 -574.68)"/><path class="cls-2" d="M3771.8,620a2.58,2.58,0,0,1-1.82-4.4l4.91-4.91-4.91-4.9a2.58,2.58,0,0,1,3.64-3.65l6.73,6.73a2.56,2.56,0,0,1,0,3.64l-6.73,6.73A2.58,2.58,0,0,1,3771.8,620Z" transform="translate(-3743.23 -574.68)"/><path class="cls-2" d="M3757.2,620a2.61,2.61,0,0,1-1.82-.76,2.58,2.58,0,0,1,0-3.64l4.91-4.91-4.91-4.9a2.58,2.58,0,1,1,3.65-3.65l6.72,6.73a2.56,2.56,0,0,1,0,3.64l-6.72,6.73A2.62,2.62,0,0,1,3757.2,620Z" transform="translate(-3743.23 -574.68)"/><path class="cls-2" d="M4023.48,601.38a2.58,2.58,0,0,1,1.82,4.4l-4.91,4.9,4.91,4.91a2.57,2.57,0,1,1-3.64,3.64l-6.73-6.73a2.56,2.56,0,0,1,0-3.64l6.73-6.73A2.57,2.57,0,0,1,4023.48,601.38Z" transform="translate(-3743.23 -574.68)"/><path class="cls-2" d="M4038.08,601.38a2.57,2.57,0,0,1,1.82.75,2.6,2.6,0,0,1,0,3.65l-4.91,4.9,4.91,4.91a2.57,2.57,0,0,1-3.64,3.64l-6.73-6.73a2.56,2.56,0,0,1,0-3.64l6.73-6.73A2.57,2.57,0,0,1,4038.08,601.38Z" transform="translate(-3743.23 -574.68)"/></g></svg>