<svg id="Layer_1" data-name="Layer 1" xmlns="http://www.w3.org/2000/svg" xmlns:xlink="http://www.w3.org/1999/xlink" viewBox="0 0 57.66 57.6"><defs><style>.cls-1{fill:none;}.cls-2{clip-path:url(#clip-path);}.cls-3{fill:#5a5a5a;}.cls-4{fill:#ffd86e;}.cls-5{fill:#fdb515;}.cls-6{fill:#838383;}.cls-7{fill:#acacac;}.cls-8{fill:#9c9c9c;}.cls-9{fill:#74d0f0;}.cls-10{fill:#40c6ef;}.cls-11{fill:#478dcb;}.cls-12{fill:#3e73b9;}.cls-13{fill:#e7e7e7;}.cls-14{fill:#f05972;}.cls-15{fill:#8cd3d4;}.cls-16{fill:#ef4861;}.cls-17{fill:#05a8b0;}</style><clipPath id="clip-path" transform="translate(-52.81 -633.83)"><rect class="cls-1" x="-0.08" width="595.44" height="841.68"/></clipPath></defs><title>ci1</title><g class="cls-2"><rect class="cls-3" x="20.74" y="47.04" width="16.11" height="6.67"/><path class="cls-4" d="M107.45,681.81H55.77a3,3,0,0,1-3-3V636.79a3,3,0,0,1,3-3h51.68a3,3,0,0,1,3,3v42.06a3,3,0,0,1-3,3Zm0,0" transform="translate(-52.81 -633.83)"/><path class="cls-5" d="M110.41,636.79v42.06a3,3,0,0,1-3,3h-3.61a3,3,0,0,0,3-3V636.79a3,3,0,0,0-3-3h3.61a3,3,0,0,1,3,3Zm0,0" transform="translate(-52.81 -633.83)"/><path class="cls-6" d="M110.41,674.69H52.81v4.16a3,3,0,0,0,3,3h51.68a3,3,0,0,0,3-3Zm0,0" transform="translate(-52.81 -633.83)"/><path class="cls-3" d="M110.41,674.69v4.16a3,3,0,0,1-3,3h-3.61a3,3,0,0,0,3-3v-4.16Zm0,0" transform="translate(-52.81 -633.83)"/><path class="cls-7" d="M110.47,643.92H52.87v-7.13a3,3,0,0,1,3-3h51.69a3,3,0,0,1,3,3Zm0,0" transform="translate(-52.81 -633.83)"/><path class="cls-8" d="M110.47,636.79v7.13h-3.68v-7.13a3,3,0,0,0-3-3h3.68a3,3,0,0,1,3,3Zm0,0" transform="translate(-52.81 -633.83)"/><path class="cls-6" d="M94.88,691.43H68.33a.58.58,0,0,1-.58-.58V689a2.3,2.3,0,0,1,2.31-2.3h23.1a2.3,2.3,0,0,1,2.3,2.3v1.88a.58.58,0,0,1-.58.58Zm0,0" transform="translate(-52.81 -633.83)"/><path class="cls-3" d="M95.46,689v1.88a.58.58,0,0,1-.58.58h-2V689a2.3,2.3,0,0,0-2.31-2.3h2.63a2.3,2.3,0,0,1,2.3,2.3Zm0,0" transform="translate(-52.81 -633.83)"/><path class="cls-6" d="M59.39,654.84a.85.85,0,0,1-.59-.25l-2.73-2.73a.84.84,0,0,1,0-1.19l2.73-2.73a.84.84,0,0,1,1.19,0,.85.85,0,0,1,0,1.2l-2.13,2.13L60,653.39a.85.85,0,0,1-.6,1.45Zm0,0" transform="translate(-52.81 -633.83)"/><path class="cls-6" d="M65.91,654.84a.87.87,0,0,1-.6-.25.85.85,0,0,1,0-1.2l2.13-2.12-2.13-2.13a.85.85,0,1,1,1.2-1.2l2.72,2.73a.84.84,0,0,1,0,1.19l-2.72,2.73a.87.87,0,0,1-.6.25Zm0,0" transform="translate(-52.81 -633.83)"/><path class="cls-6" d="M61.67,654.84a.8.8,0,0,1-.3-.06.84.84,0,0,1-.48-1.1L63,648.23a.84.84,0,1,1,1.57.62l-2.14,5.45a.85.85,0,0,1-.79.54Zm0,0" transform="translate(-52.81 -633.83)"/><path class="cls-6" d="M63,659.94H57.16a.85.85,0,0,1,0-1.69H63a.85.85,0,0,1,0,1.69Zm0,0" transform="translate(-52.81 -633.83)"/><path class="cls-6" d="M76.51,659.94H66.21a.85.85,0,0,1,0-1.69h10.3a.85.85,0,0,1,0,1.69Zm0,0" transform="translate(-52.81 -633.83)"/><path class="cls-6" d="M59.66,663.6h-2.5a.83.83,0,0,1-.84-.84.84.84,0,0,1,.84-.85h2.5a.85.85,0,0,1,.84.85.84.84,0,0,1-.84.84Zm0,0" transform="translate(-52.81 -633.83)"/><path class="cls-6" d="M74.85,663.6H73.33a.84.84,0,0,1-.85-.84.85.85,0,0,1,.85-.85h1.52a.85.85,0,0,1,.84.85.84.84,0,0,1-.84.84Zm0,0" transform="translate(-52.81 -633.83)"/><path class="cls-6" d="M70.17,663.6H62.71a.84.84,0,0,1-.85-.84.85.85,0,0,1,.85-.85h7.46a.85.85,0,0,1,0,1.69Zm0,0" transform="translate(-52.81 -633.83)"/><path class="cls-6" d="M80.45,663.6H77.6a.84.84,0,0,1-.84-.84.85.85,0,0,1,.84-.85h2.85a.85.85,0,0,1,.84.85.84.84,0,0,1-.84.84Zm0,0" transform="translate(-52.81 -633.83)"/><path class="cls-6" d="M75,651.94H72a.85.85,0,1,1,0-1.69h3a.85.85,0,0,1,0,1.69Zm0,0" transform="translate(-52.81 -633.83)"/><path class="cls-6" d="M96.68,651.94H78.36a.85.85,0,0,1,0-1.69H96.68a.85.85,0,0,1,0,1.69Zm0,0" transform="translate(-52.81 -633.83)"/><path class="cls-6" d="M93.89,655.76H86.48a.84.84,0,0,1-.85-.84.85.85,0,0,1,.85-.85h7.41a.85.85,0,0,1,.85.85.84.84,0,0,1-.85.84Zm0,0" transform="translate(-52.81 -633.83)"/><path class="cls-6" d="M83.69,655.76H81.14a.84.84,0,0,1-.84-.84.85.85,0,0,1,.84-.85h2.55a.85.85,0,0,1,.85.85.84.84,0,0,1-.85.84Zm0,0" transform="translate(-52.81 -633.83)"/><path class="cls-6" d="M78.25,655.76H72a.84.84,0,0,1-.85-.84.85.85,0,0,1,.85-.85h6.25a.85.85,0,0,1,.84.85.84.84,0,0,1-.84.84Zm0,0" transform="translate(-52.81 -633.83)"/><path class="cls-6" d="M70.18,667.24H64.32a.85.85,0,0,1,0-1.69h5.86a.85.85,0,0,1,0,1.69Zm0,0" transform="translate(-52.81 -633.83)"/><path class="cls-6" d="M61.66,667.24h-4.5a.85.85,0,0,1,0-1.69h4.5a.85.85,0,1,1,0,1.69Zm0,0" transform="translate(-52.81 -633.83)"/><path class="cls-6" d="M80.8,667.24H73.15a.85.85,0,1,1,0-1.69H80.8a.85.85,0,0,1,0,1.69Zm0,0" transform="translate(-52.81 -633.83)"/><rect class="cls-9" x="33.41" y="29.66" width="18.83" height="6.38"/><rect class="cls-9" x="33.41" y="39.52" width="18.83" height="5.91"/><rect class="cls-10" x="50.01" y="29.66" width="2.23" height="6.38"/><rect class="cls-10" x="50.01" y="39.52" width="2.23" height="5.91"/><path class="cls-11" d="M106.6,664.88H84.66a.84.84,0,0,1-.84-.84v-4.22a.84.84,0,0,1,.84-.84H106.6a.83.83,0,0,1,.84.84V664a.83.83,0,0,1-.84.84Zm0,0" transform="translate(-52.81 -633.83)"/><path class="cls-11" d="M106.6,674.36H84.66a.85.85,0,0,1-.84-.84v-4.23a.85.85,0,0,1,.84-.84H106.6a.84.84,0,0,1,.84.84v4.23a.84.84,0,0,1-.84.84Zm0,0" transform="translate(-52.81 -633.83)"/><path class="cls-11" d="M106.6,683.83H84.66a.85.85,0,0,1-.84-.84v-4.23a.85.85,0,0,1,.84-.84H106.6a.84.84,0,0,1,.84.84V683a.84.84,0,0,1-.84.84Zm0,0" transform="translate(-52.81 -633.83)"/><path class="cls-12" d="M107.44,659.82V664a.84.84,0,0,1-.84.84h-1.95a.84.84,0,0,0,.84-.84v-4.22a.83.83,0,0,0-.84-.84h1.95a.83.83,0,0,1,.84.84Zm0,0" transform="translate(-52.81 -633.83)"/><path class="cls-12" d="M107.44,669.29v4.22a.84.84,0,0,1-.84.85h-1.95a.84.84,0,0,0,.84-.85v-4.22a.84.84,0,0,0-.84-.84h1.95a.84.84,0,0,1,.84.84Zm0,0" transform="translate(-52.81 -633.83)"/><path class="cls-12" d="M107.44,678.76V683a.84.84,0,0,1-.84.84h-1.95a.84.84,0,0,0,.84-.84v-4.23a.84.84,0,0,0-.84-.84h1.95a.84.84,0,0,1,.84.84Zm0,0" transform="translate(-52.81 -633.83)"/><path class="cls-13" d="M91.14,662.77H87a.84.84,0,0,1-.85-.84.85.85,0,0,1,.85-.85h4.18a.85.85,0,0,1,.85.85.84.84,0,0,1-.85.84Zm0,0" transform="translate(-52.81 -633.83)"/><path class="cls-13" d="M104.31,662.77H98.4a.84.84,0,0,1-.84-.84.85.85,0,0,1,.84-.85h5.91a.85.85,0,0,1,.84.85.84.84,0,0,1-.84.84Zm0,0" transform="translate(-52.81 -633.83)"/><path class="cls-13" d="M95.45,662.77H94.09a.84.84,0,0,1-.84-.84.85.85,0,0,1,.84-.85h1.36a.85.85,0,0,1,0,1.69Zm0,0" transform="translate(-52.81 -633.83)"/><path class="cls-13" d="M91.14,672.25H87a.85.85,0,1,1,0-1.69h4.18a.85.85,0,1,1,0,1.69Zm0,0" transform="translate(-52.81 -633.83)"/><path class="cls-13" d="M104.31,672.25H98.4a.85.85,0,0,1,0-1.69h5.91a.85.85,0,0,1,0,1.69Zm0,0" transform="translate(-52.81 -633.83)"/><path class="cls-13" d="M95.45,672.25H94.09a.85.85,0,0,1,0-1.69h1.36a.84.84,0,0,1,.84.84.85.85,0,0,1-.84.85Zm0,0" transform="translate(-52.81 -633.83)"/><path class="cls-13" d="M91.14,681.72H87A.85.85,0,1,1,87,680h4.18a.85.85,0,1,1,0,1.69Zm0,0" transform="translate(-52.81 -633.83)"/><path class="cls-13" d="M104.31,681.72H98.4a.85.85,0,0,1,0-1.69h5.91a.85.85,0,0,1,0,1.69Zm0,0" transform="translate(-52.81 -633.83)"/><path class="cls-13" d="M95.45,681.72H94.09a.85.85,0,0,1,0-1.69h1.36a.85.85,0,0,1,0,1.69Zm0,0" transform="translate(-52.81 -633.83)"/><path class="cls-14" d="M60,638.85a1.68,1.68,0,1,1-1.68-1.68A1.68,1.68,0,0,1,60,638.85Zm0,0" transform="translate(-52.81 -633.83)"/><path class="cls-4" d="M66.53,638.85a1.69,1.69,0,1,1-1.68-1.68,1.68,1.68,0,0,1,1.68,1.68Zm0,0" transform="translate(-52.81 -633.83)"/><path class="cls-15" d="M73,638.85a1.68,1.68,0,1,1-1.68-1.68A1.68,1.68,0,0,1,73,638.85Zm0,0" transform="translate(-52.81 -633.83)"/><path class="cls-16" d="M60,638.85a1.68,1.68,0,0,1-1.68,1.68,1.66,1.66,0,0,1-1.16-.46,1.68,1.68,0,0,0,1.12-2.9h0A1.68,1.68,0,0,1,60,638.85Zm0,0" transform="translate(-52.81 -633.83)"/><path class="cls-5" d="M66.53,638.85a1.68,1.68,0,0,1-1.68,1.68,1.66,1.66,0,0,1-1.16-.46,1.68,1.68,0,0,0,1.12-2.9h0a1.68,1.68,0,0,1,1.68,1.68Zm0,0" transform="translate(-52.81 -633.83)"/><path class="cls-17" d="M73,638.85a1.68,1.68,0,0,1-1.68,1.68,1.66,1.66,0,0,1-1.16-.46,1.68,1.68,0,0,0,1.12-2.9h0A1.68,1.68,0,0,1,73,638.85Zm0,0" transform="translate(-52.81 -633.83)"/></g></svg>