<svg id="Layer_1" data-name="Layer 1" xmlns="http://www.w3.org/2000/svg" xmlns:xlink="http://www.w3.org/1999/xlink" viewBox="0 0 57.49 57.6"><defs><style>.cls-1{fill:none;}.cls-2{clip-path:url(#clip-path);}.cls-3{fill:#fff;}</style><clipPath id="clip-path" transform="translate(-1215.08 -140.05)"><rect class="cls-1" x="719.92" width="595.44" height="841.68"/></clipPath></defs><title>ci10</title><g class="cls-2"><path class="cls-3" d="M1221.57,158.71a2.78,2.78,0,1,0,2.78,2.78,2.78,2.78,0,0,0-2.78-2.78Zm0,3.7a.93.93,0,1,1,.93-.92.93.93,0,0,1-.93.92Zm0,0" transform="translate(-1215.08 -140.05)"/><path class="cls-3" d="M1228.06,158.71a2.78,2.78,0,1,0,2.78,2.78,2.78,2.78,0,0,0-2.78-2.78Zm0,3.7a.93.93,0,1,1,.93-.92.93.93,0,0,1-.93.92Zm0,0" transform="translate(-1215.08 -140.05)"/><path class="cls-3" d="M1250.31,159.63a.92.92,0,0,0-.92-.92h-11.13a.93.93,0,1,0,0,1.85h11.13a.93.93,0,0,0,.92-.93Zm0,0" transform="translate(-1215.08 -140.05)"/><path class="cls-3" d="M1249.39,162.41h-4.64a.93.93,0,0,0,0,1.86h4.64a.93.93,0,0,0,0-1.86Zm0,0" transform="translate(-1215.08 -140.05)"/><path class="cls-3" d="M1235.48,158.71h-.93a.93.93,0,1,0,0,1.85h.93a.93.93,0,1,0,0-1.85Zm0,0" transform="translate(-1215.08 -140.05)"/><path class="cls-3" d="M1221.57,147.58a2.78,2.78,0,1,0,2.78,2.78,2.79,2.79,0,0,0-2.78-2.78Zm0,3.71a1,1,0,0,1-.86-.57.94.94,0,0,1,1.22-1.22,1,1,0,0,1,.57.86.93.93,0,0,1-.93.93Zm0,0" transform="translate(-1215.08 -140.05)"/><path class="cls-3" d="M1228.06,147.58a2.78,2.78,0,1,0,2.78,2.78,2.79,2.79,0,0,0-2.78-2.78Zm0,3.71a1,1,0,0,1-.86-.57.94.94,0,0,1,1.22-1.22,1,1,0,0,1,.57.86.93.93,0,0,1-.93.93Zm0,0" transform="translate(-1215.08 -140.05)"/><path class="cls-3" d="M1235.48,148.51h-.93a.93.93,0,1,0,0,1.85h.93a.93.93,0,1,0,0-1.85Zm0,0" transform="translate(-1215.08 -140.05)"/><path class="cls-3" d="M1221.57,169.83a2.78,2.78,0,1,0,2.78,2.78,2.79,2.79,0,0,0-2.78-2.78Zm0,3.71a1,1,0,0,1-.86-.57.92.92,0,0,1,.21-1,.9.9,0,0,1,1-.2.93.93,0,0,1-.36,1.78Zm0,0" transform="translate(-1215.08 -140.05)"/><path class="cls-3" d="M1228.06,169.83a2.78,2.78,0,1,0,2.78,2.78,2.79,2.79,0,0,0-2.78-2.78Zm0,3.71a1,1,0,0,1-.86-.57.92.92,0,0,1,.21-1,.9.9,0,0,1,1-.2.93.93,0,0,1-.36,1.78Zm0,0" transform="translate(-1215.08 -140.05)"/><path class="cls-3" d="M1238.26,171.69h11.13a.93.93,0,0,0,0-1.86h-11.13a.93.93,0,0,0,0,1.86Zm0,0" transform="translate(-1215.08 -140.05)"/><path class="cls-3" d="M1249.39,173.54h-4.64a.93.93,0,1,0,0,1.85h4.64a.93.93,0,0,0,0-1.85Zm0,0" transform="translate(-1215.08 -140.05)"/><path class="cls-3" d="M1235.48,171.69a.93.93,0,1,0,0-1.86h-.93a.93.93,0,0,0,0,1.86Zm0,0" transform="translate(-1215.08 -140.05)"/><path class="cls-3" d="M1271.64,173.54a.93.93,0,1,0,0-1.85h-12.05a.92.92,0,0,0-.93.92v15.77h-.93a.93.93,0,0,0-.93.92v2.78h-4.63a.93.93,0,0,0-.93.93v.93h-8.34V193a.93.93,0,0,0-.93-.93h-4.64V189.3a.92.92,0,0,0-.92-.92h-.93V179.1h14.83a3.71,3.71,0,0,0,3.71-3.71v-5.56a3.7,3.7,0,0,0-1.26-2.78,3.7,3.7,0,0,0,1.26-2.78v-2a12.06,12.06,0,1,0-2.49-18.17,3.6,3.6,0,0,0-1.22-.21h-13v-2.78a.93.93,0,0,0-.92-.93h-3.71a.93.93,0,0,0-.93.93v2.78h-13a3.71,3.71,0,0,0-3.71,3.71v5.56a3.69,3.69,0,0,0,1.26,2.78,3.73,3.73,0,0,0-1.26,2.79v5.56a3.7,3.7,0,0,0,1.26,2.78,3.7,3.7,0,0,0-1.26,2.78v5.56a3.71,3.71,0,0,0,3.71,3.71h14.83v9.28h-.92a.93.93,0,0,0-.93.92v2.78h-4.64a.93.93,0,0,0-.92.93v.93H1216a.93.93,0,1,0,0,1.85h10.2v.93a.93.93,0,0,0,.92.93H1242a.93.93,0,0,0,.93-.93v-.93h8.34v.93a.93.93,0,0,0,.93.93H1267a.93.93,0,0,0,.93-.93v-.93h3.71a.93.93,0,1,0,0-1.85h-3.71V193a.93.93,0,0,0-.93-.93h-4.63V189.3a.93.93,0,0,0-.93-.92h-.93V173.54Zm-11.13-31.64a10.2,10.2,0,1,1-10.2,10.2,10.19,10.19,0,0,1,10.2-10.2Zm-26.89.12h1.86v1.85h-1.86Zm-16.68,5.56a1.85,1.85,0,0,1,1.85-1.85h31.5a11.31,11.31,0,0,0-1.28,2.78h-10.75a.93.93,0,1,0,0,1.85h10.33c0,.31-.08.62-.1.93h-3.74a.93.93,0,1,0,0,1.85h3.75a12.89,12.89,0,0,0,.31,1.86h-30a1.85,1.85,0,0,1-1.85-1.86Zm0,11.13a1.85,1.85,0,0,1,1.85-1.86h30.65a12.07,12.07,0,0,0,2.73,3.94v3.48a1.85,1.85,0,0,1-1.86,1.85h-31.52a1.85,1.85,0,0,1-1.85-1.85Zm1.85,18.54a1.85,1.85,0,0,1-1.85-1.86v-5.56a1.85,1.85,0,0,1,1.85-1.85h31.52a1.85,1.85,0,0,1,1.86,1.85v5.56a1.86,1.86,0,0,1-1.86,1.86Zm14.83,13h1.86v1.85h-1.86Zm7.42,5.56h-13v-1.85h13Zm17.62-5.56h1.85v1.85h-1.85Zm7.42,3.71v1.85h-13v-1.85Zm0,0" transform="translate(-1215.08 -140.05)"/><path class="cls-3" d="M1268.75,153.63a.94.94,0,0,0-.82-.49H1267V147.7a.92.92,0,0,0-.92-.93h-3.71a.92.92,0,0,0-.93.93v5.44h-.93a.92.92,0,0,0-.81.49.9.9,0,0,0,0,1l3.71,5.57a.93.93,0,0,0,1.54,0l3.71-5.57a.93.93,0,0,0,0-1Zm-4.53,4.33-2-3h.13a.93.93,0,0,0,.92-.93v-5.45h1.86v5.45a.93.93,0,0,0,.93.93h.12Zm0,0" transform="translate(-1215.08 -140.05)"/><path class="cls-3" d="M1260.36,150.66l-3.71-5.56a.92.92,0,0,0-.77-.42,1,1,0,0,0-.78.42l-3.7,5.56a.92.92,0,0,0,.77,1.44h.92v4.75a.93.93,0,0,0,.93.93h3.71a.93.93,0,0,0,.93-.93V152.1h.93a.93.93,0,0,0,.77-1.44Zm-2.63-.41a.93.93,0,0,0-.93.92v4.75H1255v-4.75a.93.93,0,0,0-.93-.92h-.12l2-3,2,3Zm0,0" transform="translate(-1215.08 -140.05)"/></g></svg>