<svg id="Layer_1" data-name="Layer 1" xmlns="http://www.w3.org/2000/svg" xmlns:xlink="http://www.w3.org/1999/xlink" viewBox="0 0 46.08 57.6"><defs><style>.cls-1{fill:none;}.cls-2{clip-path:url(#clip-path);}.cls-3{fill:#fff;}</style><clipPath id="clip-path" transform="translate(-858.85 -140.05)"><rect class="cls-1" x="719.92" width="595.44" height="841.68"/></clipPath></defs><title>ci11</title><g class="cls-2"><path class="cls-3" d="M893.13,140.33a1,1,0,0,0-.68-.28H865.57a6.72,6.72,0,0,0-6.72,6.72v44.16a6.73,6.73,0,0,0,6.72,6.72h32.64a6.73,6.73,0,0,0,6.72-6.72v-38.4a1,1,0,0,0-.28-.68Zm.28,3,8.24,8.25h-3.44a4.81,4.81,0,0,1-4.8-4.8ZM865.57,142h25.92v4.8a6.73,6.73,0,0,0,6.72,6.72H903v26.88H860.77v-33.6a4.8,4.8,0,0,1,4.8-4.8Zm32.64,53.76H865.57a4.81,4.81,0,0,1-4.8-4.8v-8.64H903v8.64a4.81,4.81,0,0,1-4.8,4.8Zm0,0" transform="translate(-858.85 -140.05)"/><path class="cls-3" d="M880,184.21a1,1,0,0,0-1,1v5.76a1,1,0,0,1-1.92,0,1,1,0,0,0-1.92,0,2.88,2.88,0,0,0,5.76,0v-5.76a1,1,0,0,0-1-1Zm0,0" transform="translate(-858.85 -140.05)"/><path class="cls-3" d="M885.73,186.13h1.92a1,1,0,1,0,0-1.92h-1.92a2.88,2.88,0,0,0,0,5.76,1,1,0,0,1,0,1.92h-1.92a1,1,0,1,0,0,1.92h1.92a2.88,2.88,0,0,0,0-5.76,1,1,0,0,1,0-1.92Zm0,0" transform="translate(-858.85 -140.05)"/><path class="cls-3" d="M886.69,164.05a1,1,0,1,1-1-1,1,1,0,0,1,1,1Zm0,0" transform="translate(-858.85 -140.05)"/><path class="cls-3" d="M879,164.05a1,1,0,1,1-1-1,1,1,0,0,1,1,1Zm0,0" transform="translate(-858.85 -140.05)"/><path class="cls-3" d="M882.85,164.05a1,1,0,1,1-1-1,1,1,0,0,1,1,1Zm0,0" transform="translate(-858.85 -140.05)"/><path class="cls-3" d="M869.41,165a1,1,0,0,1,1,1v3.84a2.89,2.89,0,0,0,2.88,2.88,1,1,0,1,0,0-1.92,1,1,0,0,1-1-1V166a2.83,2.83,0,0,0-.74-1.92,2.85,2.85,0,0,0,.74-1.92v-3.84a1,1,0,0,1,1-1,1,1,0,1,0,0-1.92,2.88,2.88,0,0,0-2.88,2.88v3.84a1,1,0,0,1-1,1,1,1,0,1,0,0,1.92Zm0,0" transform="translate(-858.85 -140.05)"/><path class="cls-3" d="M891.49,169.81a1,1,0,0,1-1,1,1,1,0,1,0,0,1.92,2.89,2.89,0,0,0,2.88-2.88V166a1,1,0,0,1,1-1,1,1,0,0,0,0-1.92,1,1,0,0,1-1-1v-3.84a2.88,2.88,0,0,0-2.88-2.88,1,1,0,1,0,0,1.92,1,1,0,0,1,1,1v3.84a2.89,2.89,0,0,0,.73,1.92,2.87,2.87,0,0,0-.73,1.92Zm0,0" transform="translate(-858.85 -140.05)"/></g></svg>