<svg id="Layer_1" data-name="Layer 1" xmlns="http://www.w3.org/2000/svg" xmlns:xlink="http://www.w3.org/1999/xlink" viewBox="0 0 65.1 57.53"><defs><style>.cls-1{fill:none;}.cls-2{clip-path:url(#clip-path);}.cls-3{clip-path:url(#clip-path-2);}.cls-4{fill:#f58f8e;}</style><clipPath id="clip-path" transform="translate(-769.09 -425.08)"><rect class="cls-1" x="719.92" width="595.44" height="841.68"/></clipPath><clipPath id="clip-path-2" transform="translate(-769.09 -425.08)"><rect class="cls-1" x="769.09" y="425.08" width="65.1" height="57.6"/></clipPath></defs><title>ci12</title><g class="cls-2"><g class="cls-3"><path class="cls-4" d="M829,447.38l.61-.82a4.38,4.38,0,0,0-2-5c.19-3-4.16-4.2-4.16-4.2,0-8.11-9.36-7.19-9.36-7.19-1.31-3.7-6.67-2.45-6.67-2.45a20.58,20.58,0,0,0-3.91-1.08,42.7,42.7,0,0,0-5.05-.25,40.5,40.5,0,0,0-5,.46,9.78,9.78,0,0,0-4,1.61c-6.8-.13-7.43,3.85-7.43,3.85-5.95-1.18-6.36,4.12-6.36,4.12-6.89,2.36-4.32,9.4-4.32,9.4-2.45,3.36.4,4.86.4,4.86-.9,7.34,9.79,7.65,9.79,7.65l1.09-.27c-.47,3.48,1.69,7.32,7.83,8.23a28.42,28.42,0,0,0,6.19-.25c5.54,4.82,5.87,12.22,7.05,15.1l5.78-1a15.54,15.54,0,0,1-.5-5.67,15,15,0,0,0,2.66,1c5.79,1.45,11.35-.85,12.44-5.15a6,6,0,0,0,.16-1.93c2.36.05,5-1,6.94-4.86,0,0,5.07-11.41-2.17-16.13Zm0,0" transform="translate(-769.09 -425.08)"/><path d="M830.78,447.32a1.14,1.14,0,0,0,.09-.26,5.75,5.75,0,0,0-2-6c-.28-2.27-2.42-3.72-4.17-4.42a7.57,7.57,0,0,0-2.42-5.17C820,429.33,816.64,429,815,429h0c-1.6-2.73-5.25-2.85-7.39-2.46a31.15,31.15,0,0,0-3.75-1,1.28,1.28,0,1,0-.49,2.51,26.28,26.28,0,0,1,3.73,1,1.35,1.35,0,0,0,.72,0s4.26-1,5.18,1.63a1.28,1.28,0,0,0,1.33.84s4.06-.35,6.34,1.73a4.79,4.79,0,0,1,1.51,2.87,6.55,6.55,0,0,0-5.81,3.45,1.29,1.29,0,0,0,1.14,1.86,1.27,1.27,0,0,0,1.14-.7c1.18-2.33,4.1-2.1,4.64-2s3.27,1.16,3.15,2.87a1.3,1.3,0,0,0,.69,1.22,2.74,2.74,0,0,1,.85.79,3.18,3.18,0,0,1,.51,2.56l-.09.12A5.75,5.75,0,0,0,823,451.5a1.29,1.29,0,0,0,1.13,1.41h.14a1.27,1.27,0,0,0,1.27-1.13,3.23,3.23,0,0,1,3.13-2.89c5.59,4.1,1.64,13.67,1.38,14.28-1.38,2.65-3.12,4-5.3,4.13a18.7,18.7,0,0,0-7.65-3.54,1.27,1.27,0,1,0-.59,2.48,16.48,16.48,0,0,1,6.5,2.93,5,5,0,0,1-.14,1c-.91,3.61-5.79,5.5-10.88,4.22a13.23,13.23,0,0,1-2.43-.87,1.29,1.29,0,0,0-1.18,0,1.27,1.27,0,0,0-.64,1,17,17,0,0,0,.21,4.75l-3.35.56c-.15-.51-.29-1.11-.44-1.75-.75-3.1-1.84-7.58-5-11.25a50.41,50.41,0,0,1,7.6-1.27,1.27,1.27,0,1,0-.21-2.54A53.53,53.53,0,0,0,796.4,465a29,29,0,0,1-5.77.24c-5.54-.84-7.08-4.18-6.72-6.79a1.29,1.29,0,0,0-1.57-1.42l-.92.23c-1.62-.08-5.65-.71-7.47-2.82A4.14,4.14,0,0,1,773,451a1.27,1.27,0,0,0-.67-1.29,1.56,1.56,0,0,1-.68-.9,2.89,2.89,0,0,1,.71-2.08,1.27,1.27,0,0,0,.17-1.19,7.44,7.44,0,0,1,.12-5,5.56,5.56,0,0,1,3.41-2.75,1.26,1.26,0,0,0,.86-1.1,3.91,3.91,0,0,1,1.34-2.51,4.32,4.32,0,0,1,3.5-.46,1.24,1.24,0,0,0,1-.21,1.26,1.26,0,0,0,.54-.84s.57-2.69,5.55-2.78c.76,1,2.43,3.74,1.19,6.17a1.28,1.28,0,0,0,.56,1.72,1.3,1.3,0,0,0,.57.14,1.27,1.27,0,0,0,1.14-.7,6.56,6.56,0,0,0,.72-2.69,4.28,4.28,0,0,1,2.62-.35,2.19,2.19,0,0,1,1.31,1.24,1.27,1.27,0,0,0,1.15.71,1.23,1.23,0,0,0,.55-.13,1.26,1.26,0,0,0,.59-1.7,4.69,4.69,0,0,0-2.88-2.57,6.15,6.15,0,0,0-3.67.2,11.76,11.76,0,0,0-1.32-2.86,16.45,16.45,0,0,1,2.41-.83,1.28,1.28,0,1,0-.65-2.47,17.67,17.67,0,0,0-4,1.56c-5.17,0-7.17,2.26-7.92,3.72a5.83,5.83,0,0,0-6.66,4.6,7.69,7.69,0,0,0-4.17,3.79,9.55,9.55,0,0,0-.41,6.32,4.73,4.73,0,0,0-.78,3.62,4,4,0,0,0,1.25,2.07,6.5,6.5,0,0,0,1.58,4.6c2.75,3.21,8.23,3.65,9.31,3.71.28,3.56,3,7.07,9,8h.05a18.31,18.31,0,0,0,1.84.07,34.06,34.06,0,0,0,4.06-.25c3.52,3.33,4.61,7.85,5.41,11.18a24.28,24.28,0,0,0,.88,3.07,1.28,1.28,0,0,0,1.18.79l.21,0,5.78-1a1.27,1.27,0,0,0,1-1.61,13.9,13.9,0,0,1-.51-3.46q.57.19,1.14.33a14.1,14.1,0,0,0,8.78-.47,8.35,8.35,0,0,0,5.2-5.59,7.72,7.72,0,0,0,.19-1.05c2.17-.3,4.8-1.6,6.81-5.47l0-.07a24.2,24.2,0,0,0,1.74-6.68c.47-4.45-.67-8-3.31-10.24Zm0,0" transform="translate(-769.09 -425.08)"/></g><path d="M798.78,443.57a10.14,10.14,0,0,0,1.57,3.56,8.59,8.59,0,0,0,1.08,1.25c-.23,1.32-2.24,2-2.29,2.05a1.28,1.28,0,0,0,.42,2.49,1.4,1.4,0,0,0,.4-.07,6.45,6.45,0,0,0,3.66-3,8.83,8.83,0,0,0,3.62.73h.28a1.28,1.28,0,0,0,0-2.55h0c-5.13.13-6.12-4.72-6.17-4.94a1.28,1.28,0,0,0-2.51.46Zm0,0" transform="translate(-769.09 -425.08)"/><path d="M814.34,454.78c2.22-3.87,1.35-6.87.22-8.7a9.57,9.57,0,0,0-3-3,1.28,1.28,0,0,0-1.3,2.2,6.73,6.73,0,0,1,2.14,2.2c1.06,1.79,1,3.81-.3,6a1.28,1.28,0,0,0,.47,1.74,1.23,1.23,0,0,0,.64.17,1.26,1.26,0,0,0,1.1-.64Zm0,0" transform="translate(-769.09 -425.08)"/><path d="M827.87,457.76a1.27,1.27,0,1,0-1.48-2.07,4.27,4.27,0,0,1-3.37,1,4.16,4.16,0,0,1-2.35-1.91,1.29,1.29,0,0,0-1.72-.54,1.27,1.27,0,0,0-.54,1.72,6.9,6.9,0,0,0,3.36,3,6,6,0,0,0,1.66,6.25,1.3,1.3,0,0,0,1.8-.16,1.28,1.28,0,0,0-.16-1.8c-1.41-1.18-1-3.11-.73-4a7.72,7.72,0,0,0,3.53-1.5Zm0,0" transform="translate(-769.09 -425.08)"/><path d="M790.29,449.56a1.27,1.27,0,0,0-1.42-1.1,1.28,1.28,0,0,0-1.11,1.43c.22,1.74-1.15,3-2,3.6a7.92,7.92,0,0,0-4.44-.6,1.27,1.27,0,1,0,.44,2.51,4.8,4.8,0,0,1,3.46.77,3.9,3.9,0,0,1,1.06,3.17,1.28,1.28,0,0,0,1.25,1.31h0a1.27,1.27,0,0,0,1.27-1.25,6.84,6.84,0,0,0-1.09-4.21,6.27,6.27,0,0,0,2.51-5.63Zm0,0" transform="translate(-769.09 -425.08)"/><path d="M778.29,442.87a2.85,2.85,0,0,1-.62.9,4.07,4.07,0,0,1-1.59,1,1.28,1.28,0,0,0,.34,2.51,1.26,1.26,0,0,0,.33-.05,6.68,6.68,0,0,0,2.93-1.84,4.87,4.87,0,0,0,3,1,6,6,0,0,0,.93-.08,7.31,7.31,0,0,0,2.65-1,1.28,1.28,0,1,0-1.39-2.14,5.18,5.18,0,0,1-1.66.61,2.43,2.43,0,0,1-2.25-.65,7,7,0,0,0-.11-3.67,1.26,1.26,0,0,0-1.56-.89,1.27,1.27,0,0,0-.9,1.56,4.16,4.16,0,0,1,0,2.74l0,.05Zm0,0" transform="translate(-769.09 -425.08)"/><path d="M808.16,432a6.77,6.77,0,0,0-4.74-.59,1.28,1.28,0,0,0,.68,2.47,4,4,0,0,1,2.76.32,3.47,3.47,0,0,1,1.48,2.32,1.28,1.28,0,0,0,1.24,1,1.54,1.54,0,0,0,.3,0,1.28,1.28,0,0,0,1-1.53,5.93,5.93,0,0,0-2.67-3.94Zm0,0" transform="translate(-769.09 -425.08)"/><path d="M803.54,456.08a4.64,4.64,0,0,1-3.91,2.49,6.54,6.54,0,0,1-2.49-.38,1.28,1.28,0,0,0-1.66.7,1.27,1.27,0,0,0,.69,1.66,8.6,8.6,0,0,0,3.16.58h.32a7.12,7.12,0,0,0,6.1-3.75,1.29,1.29,0,0,0-.47-1.75,1.27,1.27,0,0,0-1.74.46Zm0,0" transform="translate(-769.09 -425.08)"/><g class="cls-3"><path d="M812.78,463.57a1.28,1.28,0,0,0-2.33.58,1.28,1.28,0,1,0,2.33-.58Zm0,0" transform="translate(-769.09 -425.08)"/><path d="M797.34,426.84a1.28,1.28,0,0,0,2.39-.08,1.27,1.27,0,0,0-.4-1.39,1.27,1.27,0,0,0-2,1.47Zm0,0" transform="translate(-769.09 -425.08)"/></g></g></svg>