<svg id="Layer_1" data-name="Layer 1" xmlns="http://www.w3.org/2000/svg" xmlns:xlink="http://www.w3.org/1999/xlink" viewBox="0 0 57.6 57.6"><defs><style>.cls-1{fill:none;}.cls-2{clip-path:url(#clip-path);}.cls-3{fill:#f48270;}.cls-4{fill:#ffc82b;}.cls-5{fill:#fcd770;}.cls-6{fill:#e7e9ed;}</style><clipPath id="clip-path" transform="translate(-880.84 -425.08)"><rect class="cls-1" x="719.92" width="595.44" height="841.68"/></clipPath></defs><title>ci13</title><g class="cls-2"><path class="cls-3" d="M931.94,429.73a3.72,3.72,0,1,1-3.72-3.72,3.72,3.72,0,0,1,3.72,3.72Zm0,0" transform="translate(-880.84 -425.08)"/><path class="cls-3" d="M913.36,446.45a3.72,3.72,0,1,1-3.72-3.72,3.72,3.72,0,0,1,3.72,3.72Zm0,0" transform="translate(-880.84 -425.08)"/><path class="cls-3" d="M894.78,463.17a3.72,3.72,0,1,1-3.72-3.72,3.73,3.73,0,0,1,3.72,3.72Zm0,0" transform="translate(-880.84 -425.08)"/><path class="cls-4" d="M937.51,464.1v5.57l-2.31.6a13.86,13.86,0,0,1-1.28,3.1l1.21,2.05-3.94,3.94-2.06-1.2a13.67,13.67,0,0,1-3.1,1.28l-.6,2.31h-5.57l-.59-2.31a13.94,13.94,0,0,1-3.11-1.28l-2,1.2-4-3.94,1.22-2.05a13,13,0,0,1-1.28-3.1l-2.32-.6V464.1l2.32-.6a14.65,14.65,0,0,1,.8-2.19h4.31a9.3,9.3,0,1,0,7.44-3.71,9.37,9.37,0,0,0-3.72.77V452h6.5l.6,2.32a12.82,12.82,0,0,1,3.1,1.28l2.06-1.22,3.94,4-1.21,2a14.06,14.06,0,0,1,1.28,3.1Zm0,0" transform="translate(-880.84 -425.08)"/><path class="cls-5" d="M922.65,457.6a9.27,9.27,0,1,1-7.44,3.71h1.86a1.86,1.86,0,0,0,1.86-1.86v-1.08a9.37,9.37,0,0,1,3.72-.77Zm3.71,9.29a3.72,3.72,0,1,0-3.71,3.71,3.71,3.71,0,0,0,3.71-3.71Zm0,0" transform="translate(-880.84 -425.08)"/><path class="cls-6" d="M937.51,435.3v7.43a1.86,1.86,0,0,1-1.86,1.86H920.79a1.87,1.87,0,0,1-1.86-1.86V435.3a1.87,1.87,0,0,1,1.86-1.86h14.86a1.86,1.86,0,0,1,1.86,1.86Zm0,0" transform="translate(-880.84 -425.08)"/><path class="cls-6" d="M918.93,452v7.43a1.86,1.86,0,0,1-1.86,1.86H902.21a1.86,1.86,0,0,1-1.86-1.86V452a1.87,1.87,0,0,1,1.86-1.86h14.86a1.86,1.86,0,0,1,1.86,1.86Zm0,0" transform="translate(-880.84 -425.08)"/><path class="cls-6" d="M881.77,476.18v-7.44a1.86,1.86,0,0,1,1.86-1.85h14.86a1.86,1.86,0,0,1,1.86,1.85v7.44a1.86,1.86,0,0,1-1.86,1.85H883.63a1.86,1.86,0,0,1-1.86-1.85Zm0,0" transform="translate(-880.84 -425.08)"/><path d="M920.79,432.51A2.79,2.79,0,0,0,918,435.3v7.43a2.79,2.79,0,0,0,2.79,2.79h14.86a2.79,2.79,0,0,0,2.79-2.79V435.3a2.79,2.79,0,0,0-2.79-2.79h-3.74a4.58,4.58,0,0,0,1-2.78,4.65,4.65,0,0,0-9.2-.93H913.36a4.65,4.65,0,0,0-4.65,4.64v8.46a4.64,4.64,0,0,0-3.62,3.62H894.78a4.65,4.65,0,0,0-4.65,4.64v8.46a4.61,4.61,0,0,0-2.76,7.34h-3.74a2.79,2.79,0,0,0-2.79,2.78v7.44a2.79,2.79,0,0,0,2.79,2.78h14.86a2.79,2.79,0,0,0,2.79-2.78v-7.44a2.79,2.79,0,0,0-2.79-2.78h-3.74a4.61,4.61,0,0,0-2.76-7.34v-8.46a2.79,2.79,0,0,1,2.79-2.78h10.31a4.66,4.66,0,0,0,.86,1.86h-3.74a2.79,2.79,0,0,0-2.79,2.78v7.43a2.79,2.79,0,0,0,2.79,2.79h7.32c-.06.17-.12.33-.17.5l-2.51.64v7l2.51.65a14.56,14.56,0,0,0,.95,2.31L909,475.57l5,5,2.22-1.31a13.83,13.83,0,0,0,2.32,1l.64,2.5h7l.64-2.5a13.72,13.72,0,0,0,2.31-1l2.22,1.31,5-5L935,473.35a13.72,13.72,0,0,0,1-2.31l2.5-.65v-7l-2.5-.64a13.49,13.49,0,0,0-1-2.32l1.32-2.22-5-5-2.22,1.31a14.19,14.19,0,0,0-2.31-.95l-.64-2.51h-6.47a2.78,2.78,0,0,0-2.62-1.85h-3.74a4.61,4.61,0,0,0-2.76-7.34v-8.46a2.79,2.79,0,0,1,2.79-2.79h10.31a4.6,4.6,0,0,0,.86,1.86Zm-21.37,36.23v7.44a.93.93,0,0,1-.93.93H883.63a.93.93,0,0,1-.93-.93v-7.44a.93.93,0,0,1,.93-.92h14.86a.93.93,0,0,1,.93.92Zm-5.57-5.57a2.79,2.79,0,1,1-2.79-2.79,2.79,2.79,0,0,1,2.79,2.79Zm31.41-8.07.53.14a11.91,11.91,0,0,1,2.88,1.19l.47.27,1.9-1.13,2.92,2.92-1.12,1.91.27.47a12.39,12.39,0,0,1,1.19,2.88l.14.52,2.14.55V469l-2.14.55-.14.53a12.5,12.5,0,0,1-1.19,2.87l-.27.47,1.12,1.91L931,478.2l-1.9-1.12-.47.27a12.76,12.76,0,0,1-2.88,1.19l-.53.14-.55,2.14h-4.13l-.55-2.14-.52-.14a12.57,12.57,0,0,1-2.88-1.19l-.47-.27-1.91,1.12-2.92-2.92,1.13-1.91-.27-.47A11.67,11.67,0,0,1,911,470l-.14-.53-2.15-.55v-4.13l2.15-.55.14-.52a12.8,12.8,0,0,1,.52-1.51h2a10.23,10.23,0,1,0,9.11-5.57,10.39,10.39,0,0,0-2.79.39V453h4.85Zm-5.4,4.35V459a8.23,8.23,0,0,1,2.79-.48,8.35,8.35,0,1,1-6.95,3.71h1.37a2.79,2.79,0,0,0,2.79-2.79ZM918,452v7.43a.93.93,0,0,1-.93.93H902.21a.93.93,0,0,1-.93-.93V452a.93.93,0,0,1,.93-.93h14.86a.93.93,0,0,1,.93.93Zm-5.57-5.57a2.79,2.79,0,1,1-2.79-2.79,2.8,2.8,0,0,1,2.79,2.79Zm24.15-11.15v7.43a.93.93,0,0,1-.93.93H920.79a.93.93,0,0,1-.93-.93V435.3a.93.93,0,0,1,.93-.93h14.86a.93.93,0,0,1,.93.93Zm-11.15-5.57a2.79,2.79,0,1,1,2.79,2.78,2.79,2.79,0,0,1-2.79-2.78Zm0,0" transform="translate(-880.84 -425.08)"/><rect x="40.88" y="11.15" width="13.01" height="1.86"/><rect x="40.88" y="14.86" width="13.01" height="1.86"/><rect x="22.3" y="27.87" width="13.01" height="1.86"/><rect x="22.3" y="31.59" width="13.01" height="1.86"/><rect x="3.72" y="44.59" width="13.01" height="1.86"/><rect x="3.72" y="48.31" width="13.01" height="1.86"/><path d="M922.65,471.53a4.65,4.65,0,1,0-4.65-4.64,4.64,4.64,0,0,0,4.65,4.64Zm0-7.43a2.79,2.79,0,1,1-2.79,2.79,2.79,2.79,0,0,1,2.79-2.79Zm0,0" transform="translate(-880.84 -425.08)"/></g></svg>