<svg id="Layer_1" data-name="Layer 1" xmlns="http://www.w3.org/2000/svg" xmlns:xlink="http://www.w3.org/1999/xlink" viewBox="0 0 57.6 57.6"><defs><style>.cls-1{fill:none;}.cls-2{clip-path:url(#clip-path);}.cls-3{fill:#f48270;}.cls-4{fill:#fde9a7;}</style><clipPath id="clip-path" transform="translate(-988.84 -425.08)"><rect class="cls-1" x="719.92" width="595.44" height="841.68"/></clipPath></defs><title>ci14</title><g class="cls-2"><path class="cls-3" d="M997.2,442.73a3.59,3.59,0,0,1-.27,1.39,3.71,3.71,0,1,1,.27-1.39Zm0,0" transform="translate(-988.84 -425.08)"/><path class="cls-3" d="M1036.44,464.81a5.58,5.58,0,0,1-3.93,9.51,5.58,5.58,0,1,1,0-11.15,5.47,5.47,0,0,1,3.93,1.64Zm0,0" transform="translate(-988.84 -425.08)"/><path class="cls-3" d="M1008.35,466.89a5.6,5.6,0,0,1-5.57,5.57,5.58,5.58,0,1,1,0-11.15,5.61,5.61,0,0,1,5.57,5.58Zm0,0" transform="translate(-988.84 -425.08)"/><path class="cls-3" d="M1036.22,438.09A4.62,4.62,0,0,1,1034,442a4.52,4.52,0,0,1-2.44.7,4.65,4.65,0,0,1-4.65-4.64,4.77,4.77,0,0,1,.86-2.71,4.65,4.65,0,0,1,8.43,2.71Zm0,0" transform="translate(-988.84 -425.08)"/><path class="cls-3" d="M1025.07,451.09a8.36,8.36,0,0,1-16.72,0,8.18,8.18,0,0,1,.48-2.77,8.36,8.36,0,0,1,16.24,2.77Zm0,0" transform="translate(-988.84 -425.08)"/><path class="cls-3" d="M1021.36,428.8a2.79,2.79,0,0,1-5.14,1.49,2.74,2.74,0,0,1-.44-1.49,2.79,2.79,0,1,1,5.58,0Zm0,0" transform="translate(-988.84 -425.08)"/><path class="cls-4" d="M1008.72,438.69a2.79,2.79,0,1,1-1.3-5.25,2.78,2.78,0,0,1,1.3,5.25Zm0,0" transform="translate(-988.84 -425.08)"/><path class="cls-4" d="M1042.72,476.18a2.78,2.78,0,1,1-2,.81,2.78,2.78,0,0,1,2-.81Zm0,0" transform="translate(-988.84 -425.08)"/><path class="cls-4" d="M997.94,478.18a1.87,1.87,0,1,1-.74-.15,2,2,0,0,1,.74.15Zm0,0" transform="translate(-988.84 -425.08)"/><path class="cls-4" d="M991.63,455.74a1.86,1.86,0,0,1,1.86,1.86,1.82,1.82,0,0,1-.44,1.19,1.88,1.88,0,0,1-1.42.66,1.86,1.86,0,1,1,0-3.71Zm0,0" transform="translate(-988.84 -425.08)"/><path class="cls-4" d="M1019.17,475.81a2.7,2.7,0,0,1,.33,1.3,2.79,2.79,0,0,1-5.58,0,2.83,2.83,0,0,1,.54-1.65,2.78,2.78,0,0,1,4.71.35Zm0,0" transform="translate(-988.84 -425.08)"/><path class="cls-4" d="M1043.65,455.74a1.86,1.86,0,1,1,0,3.71,1.86,1.86,0,0,1,0-3.71Zm0,0" transform="translate(-988.84 -425.08)"/><path d="M1016.71,447.38v-1.86a5.58,5.58,0,0,0-5.11,3.34l1.7.75a3.72,3.72,0,0,1,3.41-2.23Zm0,0" transform="translate(-988.84 -425.08)"/><path d="M1013.3,452.58a3.78,3.78,0,0,1-.3-1.49h-1.86a5.46,5.46,0,0,0,.46,2.23Zm0,0" transform="translate(-988.84 -425.08)"/><path d="M1043.65,460.38a2.79,2.79,0,1,0,0-5.57,2.87,2.87,0,0,0-.58.07l-7.82-12.62a5.52,5.52,0,0,0,1.9-4.17,5.56,5.56,0,0,0-9.5-3.95l-5.62-4a3.71,3.71,0,1,0-7.18-1.32,3.63,3.63,0,0,0,.19,1.14l-5.32,3.37a3.71,3.71,0,1,0-2.3,6.63,3.59,3.59,0,0,0,.93-.12l2.58,4a9.26,9.26,0,0,0-2.62,3.31l-10.26-3.62a4.07,4.07,0,0,0,.08-.79,4.68,4.68,0,1,0-.76,2.53l10.32,3.64a8.88,8.88,0,0,0-.27,2.19,9.27,9.27,0,0,0,2.48,6.31l-3.57,4.05a6.41,6.41,0,0,0-3.55-1.07,6.48,6.48,0,0,0-4.35,1.68l-4.19-3.49a2.87,2.87,0,0,0,.17-1,2.79,2.79,0,1,0-2.78,2.78A2.75,2.75,0,0,0,993,460l4.21,3.51a6.46,6.46,0,0,0,2.14,8.95l-2,4.68h-.18a2.79,2.79,0,1,0,1.89.74l2-4.69a6.25,6.25,0,0,0,1.68.23,6.48,6.48,0,0,0,4.63-2l5.86,4.31a3.76,3.76,0,0,0-.27,1.37,3.72,3.72,0,0,0,7.43,0,4,4,0,0,0-.1-.86l6.93-3.67a6.49,6.49,0,0,0,5.25,2.67,6.4,6.4,0,0,0,3.88-1.3l3.15,3.14A3.63,3.63,0,0,0,1039,479a3.74,3.74,0,1,0,1.84-3.19l-3.14-3.14a6.47,6.47,0,0,0,0-7.78l4.75-4.75a2.7,2.7,0,0,0,1.19.28Zm-50.16-14.86a2.79,2.79,0,1,1,2.78-2.79,2.79,2.79,0,0,1-2.78,2.79Zm39,16.72a6.54,6.54,0,0,0-3.6,1.09l-5.34-6a9.29,9.29,0,0,0,.71-11.65l3.78-3.31a5.52,5.52,0,0,0,3.52,1.26,5.45,5.45,0,0,0,2.09-.42l7.82,12.63a2.73,2.73,0,0,0-.62,1.73,2.8,2.8,0,0,0,.27,1.19l-4.75,4.75a6.4,6.4,0,0,0-3.88-1.3Zm-6.12,8.7-6.94,3.66a3.71,3.71,0,0,0-5.09-.37l-5.85-4.29a6.45,6.45,0,0,0-.78-7.25l3.57-4.06a9.25,9.25,0,0,0,10.88,0l5.35,6a6.43,6.43,0,0,0-1.14,6.37Zm-13.89-28.1-2.52-3.92a3.65,3.65,0,0,0,.86-4.12l5.19-3.29a3.69,3.69,0,0,0,2.54,1,3.77,3.77,0,0,0,2.39-.87l5.61,4a5.54,5.54,0,0,0-.57,2.44,5.62,5.62,0,0,0,.83,2.91l-3.78,3.31a9.18,9.18,0,0,0-10.55-1.47Zm32.08,14.76a.92.92,0,0,1-1.59.64.91.91,0,0,1-.27-.64.93.93,0,0,1,.44-.79,1,1,0,0,1,.49-.14.92.92,0,0,1,.93.93Zm-13-23.23a3.71,3.71,0,0,1,1.94,6.88,3.62,3.62,0,0,1-1.94.55,3.69,3.69,0,0,1-2.8-1.27,3.71,3.71,0,0,1,2.8-6.16Zm-13-7.43a1.86,1.86,0,0,1,1.86,1.86,1.8,1.8,0,0,1-.35,1.07,1.85,1.85,0,0,1-1.51.78,1.83,1.83,0,0,1-1.57-.87,1.74,1.74,0,0,1-.29-1,1.86,1.86,0,0,1,1.86-1.86Zm-13,9.29a1.86,1.86,0,0,1,1.86-1.86,1.82,1.82,0,0,1,1.45.7,1.85,1.85,0,0,1-.58,2.8,1.93,1.93,0,0,1-.87.22,1.87,1.87,0,0,1-1.86-1.86Zm3.72,14.86a7.13,7.13,0,0,1,.43-2.47,7.39,7.39,0,1,1-.43,2.47Zm-17.65,7.44a.93.93,0,1,1,.93-.93.87.87,0,0,1-.23.6.93.93,0,0,1-.7.33Zm5.57,22.29a.93.93,0,0,1,0-1.86.91.91,0,0,1,.37.08.93.93,0,0,1-.37,1.78Zm5.58-9.29a4.54,4.54,0,0,1-1.83-.37,4.65,4.65,0,0,1,1.83-8.92,4.68,4.68,0,0,1,4.64,4.65,4.53,4.53,0,0,1-.91,2.74,4.62,4.62,0,0,1-3.73,1.9Zm13.93,7.43a1.85,1.85,0,0,1-1.49-3,1.8,1.8,0,0,1,1.49-.75,1.85,1.85,0,0,1,1.64,1,1.79,1.79,0,0,1,.22.87,1.85,1.85,0,0,1-1.86,1.85Zm15.8-5.57a4.65,4.65,0,0,1-4.11-2.47,4.54,4.54,0,0,1-.54-2.18,4.64,4.64,0,0,1,4.65-4.64,4.65,4.65,0,0,1,0,9.29Zm12.07,5.57a1.86,1.86,0,1,1-1.86-1.85,1.86,1.86,0,0,1,1.86,1.85Zm0,0" transform="translate(-988.84 -425.08)"/><rect y="1.86" width="5.57" height="1.86"/><rect x="7.43" y="1.86" width="5.57" height="1.86"/><rect y="5.57" width="13.01" height="1.86"/><rect y="9.29" width="1.86" height="1.86"/><rect x="3.72" y="9.29" width="1.86" height="1.86"/><rect x="7.43" y="9.29" width="1.86" height="1.86"/><rect x="35.3" y="55.74" width="1.86" height="1.86"/><rect x="39.02" y="55.74" width="1.86" height="1.86"/><rect x="35.3" y="52.03" width="5.57" height="1.86"/><rect x="42.74" y="52.03" width="5.57" height="1.86"/><rect x="42.74" y="55.74" width="5.57" height="1.86"/><rect x="50.17" y="1.86" width="7.43" height="1.86"/><rect x="50.17" y="5.57" width="7.43" height="1.86"/><rect x="50.17" y="9.29" width="7.43" height="1.86"/><rect x="50.17" y="13.01" width="7.43" height="1.86"/><rect x="50.17" y="16.72" width="1.86" height="1.86"/><rect x="53.88" y="16.72" width="1.86" height="1.86"/></g></svg>