<svg id="Layer_1" data-name="Layer 1" xmlns="http://www.w3.org/2000/svg" xmlns:xlink="http://www.w3.org/1999/xlink" viewBox="0 0 57.6 57.6"><defs><style>.cls-1{fill:none;}.cls-2{clip-path:url(#clip-path);}.cls-3{fill:#fde9a7;}.cls-4{fill:#6dc6ac;}.cls-5{fill:#fcd770;}</style><clipPath id="clip-path" transform="translate(-1096.84 -425.08)"><rect class="cls-1" x="719.92" width="595.44" height="841.68"/></clipPath></defs><title>ci15</title><g class="cls-2"><path class="cls-3" d="M1114.49,476.18v5.57h-16.72V470.6h16.72Zm0,0" transform="translate(-1096.84 -425.08)"/><rect class="cls-3" x="39.95" y="0.93" width="16.72" height="11.15"/><path class="cls-3" d="M1106.13,426.94l7.43,5.57-7.43,5.58-7.43-5.58Zm0,0" transform="translate(-1096.84 -425.08)"/><rect class="cls-3" x="47.38" y="23.23" width="9.29" height="11.15"/><path class="cls-3" d="M1108.92,453.88a5.58,5.58,0,1,1-5.58-5.57,5.57,5.57,0,0,1,5.58,5.57Zm0,0" transform="translate(-1096.84 -425.08)"/><path class="cls-3" d="M1153.51,476.18a5.58,5.58,0,1,1-5.57-5.58,5.57,5.57,0,0,1,5.57,5.58Zm0,0" transform="translate(-1096.84 -425.08)"/><path class="cls-4" d="M1134.38,457.22a1.77,1.77,0,0,1,.55,1.31,1.85,1.85,0,0,1-1.86,1.85h-14.86a1.86,1.86,0,0,1-1.86-1.85,1.86,1.86,0,0,1,1.86-1.86h14.86a1.79,1.79,0,0,1,1.31.55Zm0,0" transform="translate(-1096.84 -425.08)"/><path class="cls-4" d="M1134.38,447.92a1.81,1.81,0,0,1,.55,1.32,1.85,1.85,0,0,1-1.86,1.85h-14.86a1.86,1.86,0,0,1-1.86-1.85,1.86,1.86,0,0,1,1.86-1.86h14.86a1.82,1.82,0,0,1,1.31.54Zm0,0" transform="translate(-1096.84 -425.08)"/><path class="cls-5" d="M1137.72,462.24v1.86a1.87,1.87,0,0,1-1.86,1.86h-20.44a1.87,1.87,0,0,1-1.86-1.86v-1.86a1.87,1.87,0,0,1,1.86-1.86h20.44a1.87,1.87,0,0,1,1.86,1.86Zm0,0" transform="translate(-1096.84 -425.08)"/><path class="cls-5" d="M1137.72,453.88v.93a1.87,1.87,0,0,1-1.86,1.86h-20.44a1.87,1.87,0,0,1-1.86-1.86V453a1.87,1.87,0,0,1,1.86-1.86h20.44a1.87,1.87,0,0,1,1.86,1.86Zm0,0" transform="translate(-1096.84 -425.08)"/><path class="cls-5" d="M1137.72,443.66v1.86a1.87,1.87,0,0,1-1.86,1.86h-20.44a1.87,1.87,0,0,1-1.86-1.86v-1.86a1.87,1.87,0,0,1,1.86-1.86h20.44a1.87,1.87,0,0,1,1.86,1.86Zm0,0" transform="translate(-1096.84 -425.08)"/><rect x="49.24" y="52.03" width="3.72" height="1.86"/><rect x="49.24" y="48.31" width="3.72" height="1.86"/><rect x="4.65" y="29.73" width="3.72" height="1.86"/><rect x="4.65" y="26.01" width="3.72" height="1.86"/><path d="M1154.44,438.09v-13h-18.58v5.57h-3.72a4.65,4.65,0,0,0-4.64,4.65v5.57h-3.72v-4.64a4.65,4.65,0,0,0-4.64-4.65h-5.27l-7.74-5.8-9,6.73,9,6.74,7.74-5.81h5.27a2.79,2.79,0,0,1,2.78,2.79v4.64h-6.5a2.79,2.79,0,0,0-2.79,2.79v1.86a2.79,2.79,0,0,0,2.79,2.79h.17a2.6,2.6,0,0,0,0,1.85h-.17a2.79,2.79,0,0,0-2.79,2.79h-2.86a6.5,6.5,0,1,0,0,1.86h2.86a2.79,2.79,0,0,0,2.79,2.79h.17a2.6,2.6,0,0,0,0,1.85h-.17a2.79,2.79,0,0,0-2.79,2.79v1.86a2.79,2.79,0,0,0,2.79,2.79h6.5v5.57a2.79,2.79,0,0,1-2.78,2.79h-3.72v-5.58h-18.58v13h18.58v-5.57h3.72a4.65,4.65,0,0,0,4.64-4.65v-5.57h3.72v5.57a4.65,4.65,0,0,0,4.64,4.65h9.37a6.51,6.51,0,1,0,0-1.86h-9.37a2.79,2.79,0,0,1-2.78-2.79v-5.57h6.5a2.79,2.79,0,0,0,2.79-2.79v-1.86a2.79,2.79,0,0,0-2.79-2.79h-.17a2.6,2.6,0,0,0,0-1.85h.17a2.79,2.79,0,0,0,2.79-2.79h4.64v5.57h11.15v-13h-11.15V453h-4.64a2.79,2.79,0,0,0-2.79-2.79h-.17a2.6,2.6,0,0,0,0-1.85h.17a2.79,2.79,0,0,0,2.79-2.79v-1.86a2.79,2.79,0,0,0-2.79-2.79h-6.5V435.3a2.79,2.79,0,0,1,2.78-2.79h3.72v5.58Zm-48.31-1.16-5.88-4.42,5.88-4.41,5.88,4.41Zm-2.79,21.6a4.65,4.65,0,1,1,4.65-4.65,4.65,4.65,0,0,1-4.65,4.65Zm10.22,22.29H1098.7v-9.29h14.86Zm34.38-9.29a4.65,4.65,0,1,1-4.65,4.65,4.65,4.65,0,0,1,4.65-4.65Zm-2.79-22.29h7.43v9.29h-7.43Zm-8.36,13v1.86a.93.93,0,0,1-.93.93h-20.44a.93.93,0,0,1-.93-.93v-1.86a.93.93,0,0,1,.93-.93h20.44a.93.93,0,0,1,.93.93Zm-2.79-3.71a.92.92,0,0,1-.93.92h-14.86a.93.93,0,1,1,0-1.85h14.86a.92.92,0,0,1,.93.93Zm2.79-5.58v1.86a.93.93,0,0,1-.93.93h-20.44a.93.93,0,0,1-.93-.93V453a.93.93,0,0,1,.93-.93h20.44a.93.93,0,0,1,.93.93Zm-2.79-3.71a.92.92,0,0,1-.93.92h-14.86a.93.93,0,1,1,0-1.85h14.86a.92.92,0,0,1,.93.93Zm2.79-5.58v1.86a.93.93,0,0,1-.93.93h-20.44a.93.93,0,0,1-.93-.93v-1.86a.93.93,0,0,1,.93-.93h20.44a.93.93,0,0,1,.93.93Zm.93-16.72h14.86v9.29h-14.86Zm0,0" transform="translate(-1096.84 -425.08)"/><rect x="3.72" y="48.31" width="1.86" height="1.86"/><rect x="7.43" y="48.31" width="1.86" height="1.86"/><rect x="11.15" y="48.31" width="3.72" height="1.86"/><rect x="3.72" y="52.03" width="11.15" height="1.86"/><rect x="42.74" y="3.72" width="11.15" height="1.86"/><rect x="42.74" y="7.43" width="11.15" height="1.86"/><rect x="6.5" y="6.5" width="5.57" height="1.86"/><rect x="50.17" y="26.01" width="3.72" height="1.86"/><rect x="50.17" y="29.73" width="3.72" height="1.86"/></g></svg>