<svg id="Layer_1" data-name="Layer 1" xmlns="http://www.w3.org/2000/svg" xmlns:xlink="http://www.w3.org/1999/xlink" viewBox="0 0 48.01 57.6"><defs><style>.cls-1{fill:none;}.cls-2{clip-path:url(#clip-path);}.cls-3{fill:#fed514;}.cls-4{fill:#e5e5e5;}.cls-5{fill:#221022;}</style><clipPath id="clip-path" transform="translate(-1209.63 -425.08)"><rect class="cls-1" x="719.92" width="595.44" height="841.68"/></clipPath></defs><title>ci16</title><g class="cls-2"><path class="cls-3" d="M1242.83,462.75c-2.68,2.68-2.35,8.09-2.35,8.09h-13.61s.29-5.41-2.34-8.09a13.85,13.85,0,1,1,18.3,0Z" transform="translate(-1209.63 -425.08)"/><path class="cls-4" d="M1240.87,475.11a1.29,1.29,0,0,1-1.3,1.29h-11.83a1.29,1.29,0,0,1-1.3-1.29h0a1.3,1.3,0,0,1,1.3-1.3h11.78a1.34,1.34,0,0,1,1.35,1.3Z" transform="translate(-1209.63 -425.08)"/><path class="cls-4" d="M1239.09,480.48a1.29,1.29,0,0,1-1.29,1.29h-8.29a1.29,1.29,0,0,1-1.29-1.29h0a1.29,1.29,0,0,1,1.29-1.3h8.29a1.29,1.29,0,0,1,1.29,1.3Z" transform="translate(-1209.63 -425.08)"/><path class="cls-5" d="M1243.55,463.22a14.8,14.8,0,1,0-19.7.15c2.35,2.35,2.11,7.33,2.11,7.38a1.16,1.16,0,0,0,.24.67,1,1,0,0,0,.67.29h13.56a1,1,0,0,0,.68-.29.9.9,0,0,0,.24-.67c0-.05-.24-5,2.1-7.38C1243.5,463.32,1243.55,463.27,1243.55,463.22Zm-1.34-1.19a.39.39,0,0,0-.19.24c-2.11,2.25-2.45,5.94-2.5,7.66h-11.74c0-1.77-.43-5.6-2.68-7.86a13,13,0,1,1,17.11,0Z" transform="translate(-1209.63 -425.08)"/><path class="cls-5" d="M1233.63,441.28a.91.91,0,0,0,0,1.82,9.73,9.73,0,0,1,9.73,9.73.91.91,0,1,0,1.82,0A11.55,11.55,0,0,0,1233.63,441.28Z" transform="translate(-1209.63 -425.08)"/><path class="cls-5" d="M1241.78,475.11a2.2,2.2,0,0,0-2.21-2.21h-11.83a2.21,2.21,0,1,0,0,4.41h11.78A2.21,2.21,0,0,0,1241.78,475.11Zm-2.26.38h-11.78a.38.38,0,0,1-.39-.38.38.38,0,0,1,.39-.38h11.78a.38.38,0,0,1,.39.38C1240,475.35,1239.76,475.49,1239.52,475.49Z" transform="translate(-1209.63 -425.08)"/><path class="cls-5" d="M1237.8,478.27h-8.29a2.21,2.21,0,1,0,0,4.41h8.29a2.19,2.19,0,0,0,2.2-2.2A2.23,2.23,0,0,0,1237.8,478.27Zm0,2.59h-8.29a.37.37,0,0,1-.38-.38.38.38,0,0,1,.38-.39h8.29a.38.38,0,0,1,.38.39A.35.35,0,0,1,1237.8,480.86Z" transform="translate(-1209.63 -425.08)"/><path class="cls-5" d="M1234.54,432.12V426a.91.91,0,0,0-1.82,0v6.18a.91.91,0,0,0,.91.91A1,1,0,0,0,1234.54,432.12Z" transform="translate(-1209.63 -425.08)"/><path class="cls-5" d="M1248.73,429.63a.92.92,0,0,0-1.25.24l-3.4,5.13a.91.91,0,0,0,.24,1.25,1,1,0,0,0,.48.14,1,1,0,0,0,.76-.38l3.4-5.13A.92.92,0,0,0,1248.73,429.63Z" transform="translate(-1209.63 -425.08)"/><path class="cls-5" d="M1222.8,436.2a.9.9,0,0,0,.48-.15.92.92,0,0,0,.29-1.24l-3.31-5.18a.94.94,0,0,0-1.25-.29.93.93,0,0,0-.28,1.25l3.3,5.18A1,1,0,0,0,1222.8,436.2Z" transform="translate(-1209.63 -425.08)"/><path class="cls-5" d="M1210.1,440.51l5.42,2.92a.67.67,0,0,0,.43.1,1,1,0,0,0,.81-.48.9.9,0,0,0-.38-1.25l-5.42-2.92a.9.9,0,0,0-1.24.38A1,1,0,0,0,1210.1,440.51Z" transform="translate(-1209.63 -425.08)"/><path class="cls-5" d="M1251.31,443.58a1.28,1.28,0,0,0,.43-.1l5.42-2.92a.93.93,0,0,0,.38-1.25.92.92,0,0,0-1.24-.38l-5.42,2.92a.93.93,0,0,0-.38,1.25A.92.92,0,0,0,1251.31,443.58Z" transform="translate(-1209.63 -425.08)"/></g></svg>