<svg id="Layer_1" data-name="Layer 1" xmlns="http://www.w3.org/2000/svg" xmlns:xlink="http://www.w3.org/1999/xlink" viewBox="0 0 56.43 57.6"><defs><style>.cls-1{fill:none;}.cls-2{clip-path:url(#clip-path);}.cls-3{fill:#69bacc;}.cls-4{fill:#2fa8cc;}.cls-5{clip-path:url(#clip-path-2);}.cls-6{fill:#295781;}.cls-7{fill:#2d3f50;}.cls-8{fill:#405d6c;}.cls-9{fill:#2d3039;}.cls-10{fill:#edf0f1;}.cls-11{fill:#364a5e;}.cls-12{fill:#e54d3c;}.cls-13{fill:#efc41c;}.cls-14{fill:#29b99a;}.cls-15{fill:#557681;}</style><clipPath id="clip-path" transform="translate(-161.42 -633.83)"><rect class="cls-1" x="-0.08" width="595.44" height="841.68"/></clipPath><clipPath id="clip-path-2" transform="translate(-161.42 -633.83)"><rect class="cls-1" x="161.29" y="633.83" width="56.7" height="57.6"/></clipPath></defs><title>ci2</title><g class="cls-2"><path class="cls-3" d="M175.74,633.83h27.8a3,3,0,0,1,3,3v51.64a3,3,0,0,1-3,3h-27.8a3,3,0,0,1-3-3V636.81a3,3,0,0,1,3-3Zm0,0" transform="translate(-161.42 -633.83)"/><path class="cls-4" d="M206.52,640.78v47.67a3,3,0,0,1-3,3h-27.8a3,3,0,0,1-3-3V670.06c4-16.37,12.91-27.29,33.76-29.28Zm0,0" transform="translate(-161.42 -633.83)"/><g class="cls-5"><path class="cls-6" d="M199.57,633.83l-2.84,3a3,3,0,0,1-2.12.94h-9.84a3,3,0,0,1-2.17-1l-2.89-3Zm0,0" transform="translate(-161.42 -633.83)"/><path class="cls-7" d="M163.87,658.66h-.05l-2.33,15.53a5.76,5.76,0,0,0,10.79,3.53l5.83-11.12Zm0,0" transform="translate(-161.42 -633.83)"/><path class="cls-7" d="M215.46,658.66l2.33,15.53A5.76,5.76,0,0,1,207,677.72l-5.83-11.12Zm0,0" transform="translate(-161.42 -633.83)"/></g><rect class="cls-7" x="18.28" y="15.89" width="19.88" height="15.89"/><path class="cls-8" d="M187.65,662.63h-1a1,1,0,1,1,0-2h1a1,1,0,1,1,0,2Zm0,0" transform="translate(-161.42 -633.83)"/><path class="cls-8" d="M192.62,662.63h-1a1,1,0,1,1,0-2h1a1,1,0,0,1,0,2Zm0,0" transform="translate(-161.42 -633.83)"/><path class="cls-9" d="M187.65,653.69a1,1,0,1,1-1-1,1,1,0,0,1,1,1Zm0,0" transform="translate(-161.42 -633.83)"/><path class="cls-9" d="M190.63,653.69a1,1,0,1,1-1-1,1,1,0,0,1,1,1Zm0,0" transform="translate(-161.42 -633.83)"/><path class="cls-9" d="M193.61,653.69a1,1,0,1,1-1-1,1,1,0,0,1,1,1Zm0,0" transform="translate(-161.42 -633.83)"/><path class="cls-10" d="M183.68,671.57h-1a1,1,0,0,1,0-2h1a1,1,0,1,1,0,2Zm0,0" transform="translate(-161.42 -633.83)"/><path class="cls-10" d="M196.59,671.57h-8.94a1,1,0,0,1,0-2h8.94a1,1,0,1,1,0,2Zm0,0" transform="translate(-161.42 -633.83)"/><path class="cls-10" d="M183.68,675.54h-1a1,1,0,0,1,0-2h1a1,1,0,1,1,0,2Zm0,0" transform="translate(-161.42 -633.83)"/><path class="cls-10" d="M196.59,675.54h-8.94a1,1,0,1,1,0-2h8.94a1,1,0,1,1,0,2Zm0,0" transform="translate(-161.42 -633.83)"/><path class="cls-10" d="M183.68,679.51h-1a1,1,0,0,1,0-2h1a1,1,0,1,1,0,2Zm0,0" transform="translate(-161.42 -633.83)"/><path class="cls-10" d="M196.59,679.51h-8.94a1,1,0,1,1,0-2h8.94a1,1,0,1,1,0,2Zm0,0" transform="translate(-161.42 -633.83)"/><path class="cls-6" d="M206.52,683.49v5a3,3,0,0,1-3,3h-27.8a3,3,0,0,1-3-3v-5a3,3,0,0,0,3,3h27.8a3,3,0,0,0,3-3Zm0,0" transform="translate(-161.42 -633.83)"/><path class="cls-11" d="M215.46,657.67a9.93,9.93,0,1,1-9.93-9.93,9.94,9.94,0,0,1,9.93,9.93Zm0,0" transform="translate(-161.42 -633.83)"/><path class="cls-4" d="M202.55,657.67a2,2,0,1,1-2-2,2,2,0,0,1,2,2Zm0,0" transform="translate(-161.42 -633.83)"/><path class="cls-12" d="M212.48,657.67a2,2,0,1,1-2-2,2,2,0,0,1,2,2Zm0,0" transform="translate(-161.42 -633.83)"/><path class="cls-13" d="M207.52,652.7a2,2,0,1,1-2-2,2,2,0,0,1,2,2Zm0,0" transform="translate(-161.42 -633.83)"/><path class="cls-14" d="M207.52,662.63a2,2,0,1,1-2-2,2,2,0,0,1,2,2Zm0,0" transform="translate(-161.42 -633.83)"/><path class="cls-11" d="M183.68,657.67a9.93,9.93,0,1,1-9.93-9.93,9.93,9.93,0,0,1,9.93,9.93Zm0,0" transform="translate(-161.42 -633.83)"/><path class="cls-15" d="M175.74,655.68l-2,2-2-2v-3a1,1,0,0,1,1-1h2a1,1,0,0,1,1,1Zm0,0" transform="translate(-161.42 -633.83)"/><path class="cls-15" d="M175.74,659.65l-2-2-2,2v3a1,1,0,0,0,1,1h2a1,1,0,0,0,1-1Zm0,0" transform="translate(-161.42 -633.83)"/><path class="cls-8" d="M171.76,655.68l2,2-2,2h-3a1,1,0,0,1-1-1v-2a1,1,0,0,1,1-1Zm0,0" transform="translate(-161.42 -633.83)"/><path class="cls-8" d="M175.74,655.68l-2,2,2,2h3a1,1,0,0,0,1-1v-2a1,1,0,0,0-1-1Zm0,0" transform="translate(-161.42 -633.83)"/></g></svg>