<svg id="Layer_1" data-name="Layer 1" xmlns="http://www.w3.org/2000/svg" xmlns:xlink="http://www.w3.org/1999/xlink" viewBox="0 0 57.57 57.6"><defs><style>.cls-1{fill:none;}.cls-2{clip-path:url(#clip-path);}.cls-3{fill:#50a1c8;}.cls-4{fill:#4598b8;}.cls-5{fill:#fed6a6;}.cls-6{fill:#efc79c;}.cls-7{fill:#f89a3a;}.cls-8{fill:#ffe3c2;}.cls-9{fill:#f7d6b5;}.cls-10{fill:#fcbd36;}.cls-11{fill:#3990b2;}.cls-12{fill:#cf8f62;}.cls-13{fill:#c45f59;}.cls-14{fill:#854636;}.cls-15{fill:#f26a5a;}.cls-16{fill:#e35153;}</style><clipPath id="clip-path" transform="translate(-268.85 -633.83)"><rect class="cls-1" x="-0.08" width="595.44" height="841.68"/></clipPath></defs><title>ci3</title><g class="cls-2"><path class="cls-3" d="M305.93,670.61a36.86,36.86,0,0,0-33.36,0,6.8,6.8,0,0,0-3.72,6v14a.76.76,0,0,0,.76.75h40V676.66a6.79,6.79,0,0,0-3.71-6Zm0,0" transform="translate(-268.85 -633.83)"/><path class="cls-4" d="M305.93,670.61a36.83,36.83,0,0,0-18-4v2.26a2,2,0,0,0,1.66,2,36.91,36.91,0,0,1,10.64,3.49,6.81,6.81,0,0,1,3.71,6v11h5.74V676.66a6.79,6.79,0,0,0-3.71-6Zm0,0" transform="translate(-268.85 -633.83)"/><rect class="cls-5" x="16.01" y="25.27" width="8.78" height="11.25"/><path class="cls-6" d="M287.89,668.91a2,2,0,0,0,.61,1.44h5.13V659.1h-5.74Zm0,0" transform="translate(-268.85 -633.83)"/><path class="cls-7" d="M299.38,638H279.12a3,3,0,0,0-3,3v8.27h26.24V641a3,3,0,0,0-3-3Zm0,0" transform="translate(-268.85 -633.83)"/><path class="cls-5" d="M279.63,646.7H278a2.46,2.46,0,0,0-2.45,2.46v1.16a2.45,2.45,0,0,0,2.45,2.45h1.6Zm0,0" transform="translate(-268.85 -633.83)"/><path class="cls-5" d="M298.87,646.7h1.59a2.45,2.45,0,0,1,2.45,2.46v1.16a2.45,2.45,0,0,1-2.45,2.45h-1.59Zm0,0" transform="translate(-268.85 -633.83)"/><path class="cls-8" d="M278.9,642.69l0,11.44c.07,2.91,1.72,4.92,3.47,6.65s3.81,3.46,6.89,3.49,5.27-1.94,6.87-3.54,3.38-3.76,3.43-6.67l0-6.94a4.45,4.45,0,0,0-4.45-4.43Zm0,0" transform="translate(-268.85 -633.83)"/><path class="cls-9" d="M299.58,647.12a4.45,4.45,0,0,0-4.45-4.43h-1.3l0,11.37c0,2.91-1.68,4.94-3.42,6.67a13,13,0,0,1-4,2.94,7.6,7.6,0,0,0,2.89.6c3.08,0,5.27-1.94,6.87-3.54s3.38-3.76,3.43-6.67Zm0,0" transform="translate(-268.85 -633.83)"/><path class="cls-10" d="M283.3,633.83a4.4,4.4,0,0,0-4.39,4.21,3,3,0,0,0-2.78,3v6.59a2.45,2.45,0,0,1,1.9-.91h.88a3.53,3.53,0,0,0,3.33-2.89,1.11,1.11,0,0,1,1.11-1.11h12a6.59,6.59,0,0,0,6.59-6.59v-2a.31.31,0,0,0-.31-.31Zm0,0" transform="translate(-268.85 -633.83)"/><path class="cls-11" d="M294.44,665.83l-5.19,4.52,5.36,3.26a.93.93,0,0,0,1.23-.25l3.75-5.26-3.18-2.35a1.59,1.59,0,0,0-2,.08Zm0,0" transform="translate(-268.85 -633.83)"/><path class="cls-11" d="M284.06,665.83l5.19,4.52-5.36,3.26a.93.93,0,0,1-1.23-.25l-3.76-5.26,3.19-2.35a1.59,1.59,0,0,1,2,.08Zm0,0" transform="translate(-268.85 -633.83)"/><path class="cls-11" d="M275.29,682.79a.87.87,0,0,0-.87.87v7.77h1.74v-7.77a.87.87,0,0,0-.87-.87Zm0,0" transform="translate(-268.85 -633.83)"/><path class="cls-12" d="M290.16,655h-.75a1.24,1.24,0,0,1-1.24-1.23v-2.31a.87.87,0,1,1,1.74,0v1.8h.25a.87.87,0,1,1,0,1.74Zm0,0" transform="translate(-268.85 -633.83)"/><path class="cls-13" d="M289.25,660a4.9,4.9,0,0,1-4.18-2.08.87.87,0,0,1,.27-1.2.88.88,0,0,1,1.2.27,3.53,3.53,0,0,0,5.42,0,.87.87,0,1,1,1.47.93,4.9,4.9,0,0,1-4.18,2.08Zm0,0" transform="translate(-268.85 -633.83)"/><path class="cls-14" d="M294.52,651.21a.87.87,0,0,1-.87-.87v-1.05a.87.87,0,0,1,1.74,0v1.05a.87.87,0,0,1-.87.87Zm0,0" transform="translate(-268.85 -633.83)"/><path class="cls-14" d="M284,651.21a.87.87,0,0,1-.87-.87v-1.05a.87.87,0,0,1,1.74,0v1.05a.87.87,0,0,1-.87.87Zm0,0" transform="translate(-268.85 -633.83)"/><path class="cls-5" d="M323.62,677.9a27.55,27.55,0,0,0-7.33-2.51,2.43,2.43,0,0,1-2-2.39v-3.8h-6.63V673a2.43,2.43,0,0,1-2,2.39,27.73,27.73,0,0,0-7.34,2.51,4.11,4.11,0,0,0-2.8,3.9v9.63h30.08a.76.76,0,0,0,.76-.75V681.8a4.11,4.11,0,0,0-2.81-3.9Zm0,0" transform="translate(-268.85 -633.83)"/><path class="cls-6" d="M323.62,677.9a27.55,27.55,0,0,0-7.33-2.51,2.43,2.43,0,0,1-2-2.39v-3.8h-5.78v6.72a2.43,2.43,0,0,0,2,2.39,27.93,27.93,0,0,1,7.33,2.52,4.1,4.1,0,0,1,2.81,3.89v6.71h5a.76.76,0,0,0,.76-.75V681.8a4.11,4.11,0,0,0-2.81-3.9Zm0,0" transform="translate(-268.85 -633.83)"/><path class="cls-15" d="M323.62,677.9a28,28,0,0,0-6.76-2.4v0c0,1.71-2.62,3.09-5.85,3.09s-5.86-1.38-5.86-3.09v0a28,28,0,0,0-6.76,2.4,4.11,4.11,0,0,0-2.8,3.9v9.63h30.08a.76.76,0,0,0,.76-.75V681.8a4.11,4.11,0,0,0-2.81-3.9Zm0,0" transform="translate(-268.85 -633.83)"/><path class="cls-16" d="M325.67,691.43a.76.76,0,0,0,.76-.75V681.8a4.11,4.11,0,0,0-2.81-3.9,28,28,0,0,0-6.76-2.4v0c0,1.57-2.21,2.86-5.07,3.06a28,28,0,0,1,6,2.24,4.1,4.1,0,0,1,2.81,3.89v6.71Zm0,0" transform="translate(-268.85 -633.83)"/><path class="cls-10" d="M312.88,651.51h-3.75a7.38,7.38,0,0,0-7.37,7.38v4.54h18.5v-4.54a7.39,7.39,0,0,0-7.38-7.38Zm0,0" transform="translate(-268.85 -633.83)"/><path class="cls-7" d="M312.88,651.51h-2a3.63,3.63,0,0,1,3.63,3.63v8.29h5.74v-4.54a7.39,7.39,0,0,0-7.38-7.38Zm0,0" transform="translate(-268.85 -633.83)"/><path class="cls-5" d="M304,660.83h-1.2a1.85,1.85,0,0,0-1.85,1.86v.87a1.85,1.85,0,0,0,1.85,1.86H304Zm0,0" transform="translate(-268.85 -633.83)"/><path class="cls-5" d="M318,660.83h1.21a1.85,1.85,0,0,1,1.85,1.86v.87a1.85,1.85,0,0,1-1.85,1.86H318Zm0,0" transform="translate(-268.85 -633.83)"/><path class="cls-8" d="M304.24,659.82a.9.9,0,0,0-1.05.89l0,4.73c0,5.81,5.51,7.65,7.84,7.67s7.78-1.56,7.78-7.73l0-4.68a.76.76,0,0,0-.8-.76c-1.71.06-3.22-1.83-3.83-2.72a.39.39,0,0,0-.62,0c-2.37,2.73-7.19,3-9.32,2.62Zm0,0" transform="translate(-268.85 -633.83)"/><path class="cls-9" d="M318.81,660.7a.76.76,0,0,0-.8-.76c-1.71.06-3.22-1.83-3.83-2.72a.39.39,0,0,0-.62,0c-.15.17-.32.34-.49.5l0,7.68a7.16,7.16,0,0,1-4.85,7.12,8.4,8.4,0,0,0,2.81.61c2.33,0,7.78-1.56,7.78-7.73Zm0,0" transform="translate(-268.85 -633.83)"/><path class="cls-16" d="M300.45,684.27a.86.86,0,0,0-.86.87v6.29h1.73v-6.29a.87.87,0,0,0-.87-.87Zm0,0" transform="translate(-268.85 -633.83)"/><path class="cls-12" d="M311.7,666.28h-.57a1.15,1.15,0,0,1-1.15-1.14V663.4a.87.87,0,0,1,1.74,0v1.15a.87.87,0,0,1,0,1.73Zm0,0" transform="translate(-268.85 -633.83)"/><path class="cls-13" d="M311,670.07a3.92,3.92,0,0,1-3.34-1.67.87.87,0,0,1,1.47-.93,2.46,2.46,0,0,0,3.74,0,.86.86,0,0,1,1.2-.27.88.88,0,0,1,.27,1.2,3.92,3.92,0,0,1-3.34,1.67Zm0,0" transform="translate(-268.85 -633.83)"/><path class="cls-14" d="M315,663.73a.87.87,0,0,1-.87-.87v-.51a.87.87,0,1,1,1.73,0v.51a.86.86,0,0,1-.86.87Zm0,0" transform="translate(-268.85 -633.83)"/><path class="cls-14" d="M307,663.73a.87.87,0,0,1-.87-.87v-.51a.87.87,0,1,1,1.74,0v.51a.87.87,0,0,1-.87.87Zm0,0" transform="translate(-268.85 -633.83)"/><path class="cls-7" d="M318.52,687.1l-2.25,1.11a.37.37,0,0,1-.29,0l-2.24-1.11a.33.33,0,0,1-.19-.3v-3.23a.33.33,0,0,1,.33-.33h4.49a.33.33,0,0,1,.33.33v3.23a.34.34,0,0,1-.18.3Zm0,0" transform="translate(-268.85 -633.83)"/></g></svg>