<svg id="Layer_1" data-name="Layer 1" xmlns="http://www.w3.org/2000/svg" xmlns:xlink="http://www.w3.org/1999/xlink" viewBox="0 0 58.49 57.6"><defs><style>.cls-1{fill:none;}.cls-2{clip-path:url(#clip-path);}.cls-3{fill:#dce5f5;}.cls-4{fill:#fdd700;}.cls-5{fill:#0b9ec2;}.cls-6{fill:#4f82c3;}.cls-7{fill:#416bb3;}.cls-8{fill:#ef3c40;}.cls-9{fill:#4ac7e8;}</style><clipPath id="clip-path" transform="translate(-376.39 -633.83)"><rect class="cls-1" x="-0.08" width="595.44" height="841.68"/></clipPath></defs><title>ci4</title><g class="cls-2"><path class="cls-3" d="M425.3,653.33c0,4.94-2,11.69-5.26,17.47-2,3.48-6.25,9.83-6.25,13.82h-8.63V634.79c11.12,0,20.14,8,20.14,18.54Z" transform="translate(-376.39 -633.83)"/><path class="cls-4" d="M385,653.36c0,4.94,2,11.7,5.26,17.47,2,3.48,6.25,9.83,6.25,13.82h8.63V634.82c-11.12,0-20.14,8-20.14,18.54Z" transform="translate(-376.39 -633.83)"/><path class="cls-5" d="M415.3,680.28l-1.79-.71a16.07,16.07,0,0,1,.9-1.87l1.68.92a13.25,13.25,0,0,0-.79,1.66Z" transform="translate(-376.39 -633.83)"/><path class="cls-5" d="M417.06,677l-1.61-1c.36-.56.74-1.11,1.12-1.65l1.57,1.1q-.56.78-1.08,1.59Z" transform="translate(-376.39 -633.83)"/><path class="cls-5" d="M419.26,673.81l-1.58-1.09c.38-.55.74-1.08,1.07-1.59l1.62,1C420,672.69,419.66,673.24,419.26,673.81Z" transform="translate(-376.39 -633.83)"/><path class="cls-5" d="M421.38,670.4l-1.7-.91c.3-.56.59-1.13.87-1.7l1.73.82C422,669.21,421.69,669.81,421.38,670.4Z" transform="translate(-376.39 -633.83)"/><path class="cls-5" d="M423.1,666.79l-1.77-.75c.25-.59.49-1.18.71-1.77l1.8.67C423.61,665.56,423.36,666.18,423.1,666.79Z" transform="translate(-376.39 -633.83)"/><path class="cls-5" d="M426.18,655.21l-1.92-.16c.05-.58.08-1.15.08-1.69v-.17l1.92,0v.19C426.26,654,426.23,654.57,426.18,655.21Z" transform="translate(-376.39 -633.83)"/><path class="cls-5" d="M424.22,651.34a16,16,0,0,0-.32-1.81l1.87-.44a20,20,0,0,1,.35,2Z" transform="translate(-376.39 -633.83)"/><path class="cls-5" d="M423.38,647.76a18.21,18.21,0,0,0-.72-1.71l1.73-.83a18.45,18.45,0,0,1,.8,1.89Z" transform="translate(-376.39 -633.83)"/><path class="cls-5" d="M421.77,644.44a17.82,17.82,0,0,0-1.08-1.5l1.51-1.2c.42.54.82,1.1,1.19,1.68Z" transform="translate(-376.39 -633.83)"/><path class="cls-5" d="M419.47,641.55c-.44-.44-.89-.86-1.37-1.26l1.22-1.47a19.76,19.76,0,0,1,1.51,1.38Z" transform="translate(-376.39 -633.83)"/><path class="cls-5" d="M416.61,639.18c-.51-.34-1.05-.67-1.59-1l.91-1.69c.6.33,1.19.68,1.75,1.06Z" transform="translate(-376.39 -633.83)"/><path class="cls-5" d="M413.34,637.41c-.57-.24-1.15-.45-1.75-.64l.58-1.83c.65.21,1.3.45,1.92.71Z" transform="translate(-376.39 -633.83)"/><path class="cls-5" d="M409.79,636.28c-.61-.13-1.23-.24-1.84-.32l.24-1.9c.68.09,1.35.21,2,.35Z" transform="translate(-376.39 -633.83)"/><path class="cls-6" d="M413.07,687.53H397.26a1.92,1.92,0,0,1-1.92-1.92v-.07a1.81,1.81,0,0,1,1.83-1.78h15.9a1.81,1.81,0,0,1,1.91,1.69v.16A1.91,1.91,0,0,1,413.07,687.53Z" transform="translate(-376.39 -633.83)"/><rect class="cls-7" x="18.7" y="53.7" width="20.14" height="3.9" rx="1.92"/><path class="cls-8" d="M405.16,649.17v-5.75a12.63,12.63,0,0,0-1.63.11l-.43,2a12.52,12.52,0,0,0-1.82.49l-1.37-1.53a12.86,12.86,0,0,0-2.82,1.65l.64,1.93a11.31,11.31,0,0,0-1.34,1.34l-1.94-.64a13.48,13.48,0,0,0-1.64,2.82l1.53,1.37a11.77,11.77,0,0,0-.49,1.83l-2,.42v3.27l2,.42a11.77,11.77,0,0,0,.49,1.83l-1.53,1.37a13.48,13.48,0,0,0,1.64,2.82l1.94-.64a11.31,11.31,0,0,0,1.34,1.34l-.64,1.93a12.86,12.86,0,0,0,2.82,1.65l1.37-1.53a11.37,11.37,0,0,0,1.82.49l.43,2a12.63,12.63,0,0,0,1.63.11v-5.75a7.68,7.68,0,0,1,0-15.35Z" transform="translate(-376.39 -633.83)"/><path class="cls-9" d="M421.46,656.85a2.88,2.88,0,0,0-2.7,1.91h-5v-3.83h4.8a1,1,0,0,0,1-1h0v-4a2.88,2.88,0,1,0-1.91,0v3h-3.84v-1.92h-1.92v-5.93a2.88,2.88,0,1,0-1.91,0v5.93h-4.8V662.6H408v3.83a1,1,0,0,0,1,1h2.87v1.14a2.88,2.88,0,1,0,1.92,0v-2.1a1,1,0,0,0-1-.95H410V662.6h3.83v-1.92h5a2.87,2.87,0,1,0,2.7-3.83Z" transform="translate(-376.39 -633.83)"/><path class="cls-4" d="M378.31,685.61h1.92v1.92h-1.92Z" transform="translate(-376.39 -633.83)"/><path class="cls-4" d="M378.31,689.45h1.92v1.91h-1.92Z" transform="translate(-376.39 -633.83)"/><path class="cls-4" d="M380.23,687.53h1.92v1.92h-1.92Z" transform="translate(-376.39 -633.83)"/><path class="cls-4" d="M376.39,687.53h1.92v1.92h-1.92Z" transform="translate(-376.39 -633.83)"/><path class="cls-4" d="M431.05,633.83H433v1.92h-1.92Z" transform="translate(-376.39 -633.83)"/><path class="cls-4" d="M431.05,637.67H433v1.92h-1.92Z" transform="translate(-376.39 -633.83)"/><path class="cls-4" d="M433,635.75h1.92v1.92H433Z" transform="translate(-376.39 -633.83)"/><path class="cls-4" d="M429.13,635.75h1.92v1.92h-1.92Z" transform="translate(-376.39 -633.83)"/></g></svg>