<svg id="Layer_1" data-name="Layer 1" xmlns="http://www.w3.org/2000/svg" xmlns:xlink="http://www.w3.org/1999/xlink" viewBox="0 0 51.41 57.6"><defs><style>.cls-1{fill:none;}.cls-2{clip-path:url(#clip-path);}.cls-3{fill:#815434;}.cls-4{fill:#a5a5a4;}.cls-5{clip-path:url(#clip-path-2);}.cls-6{fill:#557681;}.cls-7{fill:#295781;}.cls-8{fill:#4482c4;}.cls-9{fill:#f9c895;}.cls-10{fill:#fdd7ae;}.cls-11{fill:#7f8284;}</style><clipPath id="clip-path" transform="translate(-487.94 -633.83)"><rect class="cls-1" x="-0.08" width="595.44" height="841.68"/></clipPath><clipPath id="clip-path-2" transform="translate(-487.94 -633.83)"><rect class="cls-1" x="487.84" y="633.83" width="51.6" height="57.6"/></clipPath></defs><title>ci5</title><g class="cls-2"><path class="cls-3" d="M499.24,652.35v-3.1s2.06-11.31,14.4-11.31S528,649.25,528,649.25v3.1Zm0,0" transform="translate(-487.94 -633.83)"/><path class="cls-4" d="M528,658.52a1,1,0,0,1-2.06,0c0-15.64-.06-16.13.16-16.46s.5,2.06.87,2.06a1,1,0,0,1,.76.34c.36,1.81.27,1.73.27,14.06Zm0,0" transform="translate(-487.94 -633.83)"/><path class="cls-4" d="M501.3,658.52a1,1,0,1,1-2.06,0c0-12-.09-12.27.27-14.06a1,1,0,0,1,.76-.34c.37,0,.7-2.36.87-2.06s.16.83.16,16.46Zm0,0" transform="translate(-487.94 -633.83)"/><g class="cls-5"><path class="cls-6" d="M499.24,652.35H528a2.05,2.05,0,0,1,2.06,2v6.17a2.06,2.06,0,0,1-2.06,2.06h-28.8a2.06,2.06,0,0,1-2.06-2.06V654.4a2.05,2.05,0,0,1,2.06-2Zm0,0" transform="translate(-487.94 -633.83)"/><path class="cls-7" d="M539.34,690.39a1,1,0,0,1-.28.74,1.06,1.06,0,0,1-.73.3H489a1,1,0,0,1-.72-.3,1,1,0,0,1-.29-.74v-4.1c.3-6.28,3.52-7.2,3.52-7.2l14-4.12h16.46l14,4.12s3.22.92,3.52,7.2Zm0,0" transform="translate(-487.94 -633.83)"/></g><path class="cls-8" d="M537.29,690.33a1.07,1.07,0,0,1-.24.75,1.05,1.05,0,0,1-.7.35H490.93a1.05,1.05,0,0,1-.7-.35,1.07,1.07,0,0,1-.24-.75V686c.19-4.53,1.63-6.44,2.52-7.19l12.9-3.81h16.46l12.9,3.81c.89.75,2.33,2.66,2.52,7.19Zm0,0" transform="translate(-487.94 -633.83)"/><path class="cls-9" d="M521.87,668v7s-1,4.12-8.23,4.12-8.23-4.12-8.23-4.12v-7Zm0,0" transform="translate(-487.94 -633.83)"/><path class="cls-10" d="M524.2,660.5c0,2.62.53,4.94-2.45,7.61-3.24,2.93-3.24,5.84-6.49,5.84H512c-3.25,0-3.25-2.91-6.49-5.84s-2.44-5.22-2.44-8.32c0-2.8-1.35-5.2-.44-8.35a12.77,12.77,0,0,1,2.79-5.31,3,3,0,0,1,1.94-.81c2.89-.18,11.18-.55,14.58,1.07,0,0,1.88,1.15,2.82,5.34.69,3-.65,5.14-.58,8.77Zm0,0" transform="translate(-487.94 -633.83)"/><path class="cls-4" d="M512.61,668.8H502.33a4.11,4.11,0,0,1-4.12-4.11v-2.06a1,1,0,0,1,2.06,0v2.06a2.06,2.06,0,0,0,2.06,2.06h10.28a1,1,0,1,1,0,2Zm0,0" transform="translate(-487.94 -633.83)"/><path class="cls-6" d="M511.58,664.69h4.12a1,1,0,0,1,1,1v2a1,1,0,0,1-1,1h-4.12a1,1,0,0,1-1-1v-2a1,1,0,0,1,1-1Zm0,0" transform="translate(-487.94 -633.83)"/><path class="cls-11" d="M528,647.2v2.06a15.1,15.1,0,0,0-1.9-4.65c-1.91-3.13-5.6-6.66-12.5-6.66s-10.59,3.53-12.5,6.66a15.1,15.1,0,0,0-1.9,4.65V647.2c0-8,6.45-13.37,14.4-13.37S528,639.24,528,647.2Zm0,0" transform="translate(-487.94 -633.83)"/></g></svg>