<svg id="Layer_1" data-name="Layer 1" xmlns="http://www.w3.org/2000/svg" xmlns:xlink="http://www.w3.org/1999/xlink" viewBox="0 0 51.96 57.6"><defs><style>.cls-1{fill:none;}.cls-2{clip-path:url(#clip-path);}.cls-3{fill:#fff;}</style><clipPath id="clip-path" transform="translate(-1128.18 -140.04)"><rect class="cls-1" x="719.92" width="595.44" height="841.68"/></clipPath></defs><title>ci6</title><g class="cls-2"><g id="g6338"><path id="path908" class="cls-3" d="M1134.24,140a6.08,6.08,0,0,0-6.06,6.06v39.84a6.08,6.08,0,0,0,6.06,6.06h.79a9,9,0,0,0,8.35,5.64h0a9,9,0,0,0,8.34-5.64h22.6a5.84,5.84,0,0,0,5.82-5.82V145.85h0a5.82,5.82,0,0,0-5.82-5.77h-17.39l-22.68,0Zm22.69,2.87h15.78a4.38,4.38,0,0,1,4.39,4.36v37.29a4.39,4.39,0,0,1-4.39,4.38h-15.78V172.28l-6.33,3.58a1.36,1.36,0,0,1-2-1.19V159.22a1.36,1.36,0,0,1,2-1.19l6.33,3.57V142.91Z" transform="translate(-1128.18 -140.04)"/></g></g></svg>