<svg id="Layer_1" data-name="Layer 1" xmlns="http://www.w3.org/2000/svg" xmlns:xlink="http://www.w3.org/1999/xlink" viewBox="0 0 57.6 57.6"><defs><style>.cls-1{fill:none;}.cls-2{clip-path:url(#clip-path);}.cls-3{fill:#fff;}</style><clipPath id="clip-path" transform="translate(-763.09 -140.05)"><rect class="cls-1" x="719.92" width="595.44" height="841.68"/></clipPath></defs><title>ci7</title><g class="cls-2"><path class="cls-3" d="M792.12,146.35H805.5a1.13,1.13,0,1,0,0-2.25H792.12a1.13,1.13,0,0,0,0,2.25Z" transform="translate(-763.09 -140.05)"/><path class="cls-3" d="M782.21,146.35a1.13,1.13,0,1,0-.8-1.92,1.15,1.15,0,0,0,0,1.59A1.14,1.14,0,0,0,782.21,146.35Z" transform="translate(-763.09 -140.05)"/><path class="cls-3" d="M777.93,146.35a1.13,1.13,0,1,0-.79-.33A1.14,1.14,0,0,0,777.93,146.35Z" transform="translate(-763.09 -140.05)"/><path class="cls-3" d="M786.49,146.35a1.13,1.13,0,1,0-.8-.33A1.13,1.13,0,0,0,786.49,146.35Z" transform="translate(-763.09 -140.05)"/><path class="cls-3" d="M796.5,155.13a1.13,1.13,0,0,0-1.12-1.13h-4.62a1.13,1.13,0,0,0,0,2.25h4.62A1.12,1.12,0,0,0,796.5,155.13Z" transform="translate(-763.09 -140.05)"/><path class="cls-3" d="M800,156.25h4.6a1.13,1.13,0,1,0,0-2.25H800a1.13,1.13,0,0,0,0,2.25Z" transform="translate(-763.09 -140.05)"/><path class="cls-3" d="M804.57,164.8h-1.19a1.13,1.13,0,1,0,0,2.25h1.19a1.13,1.13,0,1,0,0-2.25Z" transform="translate(-763.09 -140.05)"/><path class="cls-3" d="M799.31,164.8H795a1.13,1.13,0,0,0,0,2.25h4.34a1.13,1.13,0,1,0,0-2.25Z" transform="translate(-763.09 -140.05)"/><path class="cls-3" d="M800.55,159.4h-3.76a1.13,1.13,0,0,0,0,2.25h3.76a1.13,1.13,0,1,0,0-2.25Z" transform="translate(-763.09 -140.05)"/><path class="cls-3" d="M804.57,159.4a1.13,1.13,0,1,0,.8.33A1.13,1.13,0,0,0,804.57,159.4Z" transform="translate(-763.09 -140.05)"/><path class="cls-3" d="M805.16,195.4a1.13,1.13,0,1,0,.8.33A1.13,1.13,0,0,0,805.16,195.4Z" transform="translate(-763.09 -140.05)"/><path class="cls-3" d="M814.47,172.28h-3V144.77a4.73,4.73,0,0,0-4.72-4.72H777a4.73,4.73,0,0,0-4.73,4.72v13.74a14.1,14.1,0,1,0,17.33,19.86v13.06a6.22,6.22,0,0,0,6.21,6.22h5.26a1.13,1.13,0,1,0,0-2.25h-5.26a4,4,0,0,1-4-4V178.49a4,4,0,0,1,4-4h1.89a1.13,1.13,0,0,0,1.12-1.13v-1.26l2.68,2.14a1.09,1.09,0,0,0,.7.25h12.23a4,4,0,0,1,4,4v12.94a4,4,0,0,1-4,4h-4.58a1.13,1.13,0,0,0,0,2.25h4.58a6.23,6.23,0,0,0,6.22-6.22V178.49A6.22,6.22,0,0,0,814.47,172.28ZM777,142.3h29.7a2.48,2.48,0,0,1,2.47,2.47v3.38H774.56v-3.38A2.48,2.48,0,0,1,777,142.3Zm.15,41.29a11.86,11.86,0,1,1,7.54-21,1.12,1.12,0,0,0,.72.26h4.26l-1.9,1.9a1.12,1.12,0,0,0-.2,1.33,11.85,11.85,0,0,1-10.42,17.51Zm21.25-14.67a1.13,1.13,0,0,0-1.83.88v2.48h-.76a6.21,6.21,0,0,0-4.85,2.33,13.57,13.57,0,0,0,.3-2.87,14.15,14.15,0,0,0-1.33-6l3.25-3.24a1.13,1.13,0,0,0-.8-1.92h-6.58a14.09,14.09,0,0,0-8.65-3,14.3,14.3,0,0,0-2.63.25V150.4h34.65v21.88h-6.58Z" transform="translate(-763.09 -140.05)"/><path class="cls-3" d="M798,188.56a1.12,1.12,0,0,0,1.12-1.12v-4.95a1.13,1.13,0,1,0-2.25,0v1.35H795.5v-1.35a1.13,1.13,0,1,0-2.25,0v4.95a1.13,1.13,0,0,0,2.25,0v-1.35h1.34v1.35A1.12,1.12,0,0,0,798,188.56Z" transform="translate(-763.09 -140.05)"/><path class="cls-3" d="M814.33,181.36a1.13,1.13,0,0,0-1.12,1.13v4.95a1.12,1.12,0,0,0,1.12,1.12h2.13a1.13,1.13,0,0,0,0-2.25h-1v-3.82A1.14,1.14,0,0,0,814.33,181.36Z" transform="translate(-763.09 -140.05)"/><path class="cls-3" d="M804.05,183.61a1.13,1.13,0,0,0,0-2.25h-2.94a1.13,1.13,0,0,0,0,2.25h.34v3.83a1.13,1.13,0,0,0,2.25,0v-3.83Z" transform="translate(-763.09 -140.05)"/><path class="cls-3" d="M809.75,185.2v2.24a1.13,1.13,0,0,0,2.25,0v-4.95a1.13,1.13,0,0,0-1.92-.8l-1.09,1.1-1.1-1.1a1.13,1.13,0,0,0-1.92.8v4.95a1.13,1.13,0,0,0,2.25,0V185.2a1.1,1.1,0,0,0,.77.3A1.07,1.07,0,0,0,809.75,185.2Z" transform="translate(-763.09 -140.05)"/><path class="cls-3" d="M771.36,169.88a1.85,1.85,0,0,1,1.31.54,1.12,1.12,0,0,0,1.59-1.59,4.11,4.11,0,1,0-5.81,5.82,4.12,4.12,0,0,0,5.81,0,1.12,1.12,0,0,0-1.59-1.59,1.86,1.86,0,1,1-2.63-2.64A1.85,1.85,0,0,1,771.36,169.88Z" transform="translate(-763.09 -140.05)"/><path class="cls-3" d="M777.83,169.88h1.49a1.13,1.13,0,1,0,0-2.25h-1.49a2.62,2.62,0,1,0,0,5.23.38.38,0,0,1,.37.37.37.37,0,0,1-.37.37h-1.5a1.13,1.13,0,0,0,0,2.25h1.5a2.62,2.62,0,1,0,0-5.24.37.37,0,1,1,0-.73Z" transform="translate(-763.09 -140.05)"/><path class="cls-3" d="M783.86,169.88h1.5a1.13,1.13,0,0,0,0-2.25h-1.5a2.62,2.62,0,1,0,0,5.23.37.37,0,0,1,.37.37.36.36,0,0,1-.37.37h-1.49a1.13,1.13,0,1,0,0,2.25h1.49a2.62,2.62,0,1,0,0-5.24.37.37,0,1,1,0-.73Z" transform="translate(-763.09 -140.05)"/></g></svg>