<svg id="Layer_1" data-name="Layer 1" xmlns="http://www.w3.org/2000/svg" xmlns:xlink="http://www.w3.org/1999/xlink" viewBox="0 0 57.6 57.6"><defs><style>.cls-1{fill:none;}.cls-2{clip-path:url(#clip-path);}.cls-3{fill:#fff;}</style><clipPath id="clip-path" transform="translate(-943.77 -140.05)"><rect class="cls-1" x="719.92" width="595.44" height="841.68"/></clipPath></defs><title>ci8</title><g class="cls-2"><path class="cls-3" d="M948.62,158.65a2.32,2.32,0,0,0,.68-.16,5.91,5.91,0,0,1,6.92,1.71c.11.13.18.41.46.18a7.61,7.61,0,0,1,4.61-1.43A17.51,17.51,0,0,1,965,159a.51.51,0,0,0,.43-.09,7.24,7.24,0,0,1,4.21-1.52,9.42,9.42,0,0,1,3.22-.1,5.82,5.82,0,0,1,2.42,1.11,1.06,1.06,0,0,0,.74.25c2.28-.09,4.56-.08,6.83-.24a5.42,5.42,0,0,1,3.58,1.05.55.55,0,0,0,.75,0,5.55,5.55,0,0,1,3.21-.93,3.52,3.52,0,0,0,2-.42,4.22,4.22,0,0,1,2.09-.53,26.73,26.73,0,0,1,4.1,0,5.15,5.15,0,0,1,.59.11,28.81,28.81,0,0,0-53.92,2.13A7,7,0,0,1,948.62,158.65Z" transform="translate(-943.77 -140.05)"/><path class="cls-3" d="M1000.69,175.09q-.15.69-.33,1.35Q1000.54,175.78,1000.69,175.09Z" transform="translate(-943.77 -140.05)"/><path class="cls-3" d="M1000.36,176.44q-.18.66-.39,1.32Q1000.18,177.1,1000.36,176.44Z" transform="translate(-943.77 -140.05)"/><path class="cls-3" d="M1000,177.76c-.15.44-.3.87-.46,1.29C999.67,178.63,999.82,178.2,1000,177.76Z" transform="translate(-943.77 -140.05)"/><path class="cls-3" d="M1001.3,170.92c0,.71-.13,1.42-.23,2.11C1001.17,172.34,1001.25,171.63,1001.3,170.92Z" transform="translate(-943.77 -140.05)"/><path class="cls-3" d="M1001.07,173c-.1.7-.23,1.39-.38,2.06C1000.84,174.42,1001,173.73,1001.07,173Z" transform="translate(-943.77 -140.05)"/><path class="cls-3" d="M943.82,167.11c0-.55.08-1.1.15-1.64C943.9,166,943.86,166.56,943.82,167.11Z" transform="translate(-943.77 -140.05)"/><path class="cls-3" d="M1001.28,166.52c0-.46-.09-.92-.15-1.37C1001.19,165.6,1001.24,166.06,1001.28,166.52Z" transform="translate(-943.77 -140.05)"/><path class="cls-3" d="M1001.29,166.62c.05.71.08,1.42.08,2.15s0,1.44-.07,2.15c.05-.71.07-1.43.07-2.15S1001.34,167.33,1001.29,166.62Z" transform="translate(-943.77 -140.05)"/><path class="cls-3" d="M944.06,164.74l.15-1Z" transform="translate(-943.77 -140.05)"/><path class="cls-3" d="M998.42,179.83a13.89,13.89,0,0,0-2.39.41,5.39,5.39,0,0,1-4.52-.69,2.75,2.75,0,0,0-2.22-.3,10.22,10.22,0,0,1-6.07-.33,1.08,1.08,0,0,0-.59,0,25.83,25.83,0,0,1-6,.13,4.86,4.86,0,0,1-2.71-1.28c-.35-.31-.77-.19-1.13-.32s-.7.14-1,.4a6.9,6.9,0,0,1-7.49,1.33A2.36,2.36,0,0,0,963,179a17.37,17.37,0,0,0-3.22.78,8.59,8.59,0,0,1-7.26-.38,2.05,2.05,0,0,0-2.09.07,6,6,0,0,1-4.34.69,28.58,28.58,0,0,1-2.31-11.23c0-.59,0-1.17.05-1.75,0,.58-.05,1.16-.05,1.75a28.8,28.8,0,0,0,55.49,10.76c.09-.21.17-.42.25-.64-.08.22-.16.43-.25.64A5.89,5.89,0,0,1,998.42,179.83Z" transform="translate(-943.77 -140.05)"/><path class="cls-3" d="M965.25,165.62a4.73,4.73,0,0,0-1.43-.29c-1.31-.11-1.31-.11-1.31,1.18v.05h0c0,.33,0,.67,0,1s.11.33.34.27c.5-.15,1-.32,1.5-.44a1.79,1.79,0,0,0,1.16-1.05A.47.47,0,0,0,965.25,165.62Z" transform="translate(-943.77 -140.05)"/><path class="cls-3" d="M971.92,165.41h-.1l-.57,2.87c0,.13-.18.37.16.32s1-.16,1.44-.25c.16,0,.25-.07.17-.26C972.65,167.21,972.29,166.31,971.92,165.41Z" transform="translate(-943.77 -140.05)"/><path class="cls-3" d="M999.31,171.79a.65.65,0,0,1-.31-.62c0-1.66,0-3.32,0-5a.6.6,0,0,1,.28-.58,2.59,2.59,0,0,0,1-3,2.66,2.66,0,0,0-2.56-1.81c-1,0-2,0-2.94.07a1.75,1.75,0,0,0-1.28.38,2.52,2.52,0,0,1-2.14.57h-1a2.57,2.57,0,0,0-2.07,1c-.1.12-.17.26-.33.29a3,3,0,0,0-1.29.68.79.79,0,0,1-1.18-.36,2.55,2.55,0,0,0-2.53-1.74c-2.36.16-4.73.16-7.09.23a2.39,2.39,0,0,0-1.27.3c-.33.23-.42.09-.57-.2a2.6,2.6,0,0,0-2.81-1.54c-.75.09-1.51.21-2.26.31a2.63,2.63,0,0,0-2,1.29c-.13.22-.18.6-.34.65s-.5-.15-.75-.22a14.6,14.6,0,0,0-5.74-.14,2.62,2.62,0,0,0-2,1.29.61.61,0,0,1-.28.27,4.84,4.84,0,0,1-2.71.81c-.3-.05-.67.29-.86.12s0-.61,0-.93a2.58,2.58,0,0,0-1.39-2.32,2.46,2.46,0,0,0-2.68.14,1,1,0,0,1-.66.16,3.59,3.59,0,0,0-3.79,2.44,7.48,7.48,0,0,0-.4,3.69,1.52,1.52,0,0,1-.22,1.27,1.82,1.82,0,0,0-.29,1.06c0,.66,0,1.32,0,2h-.08c0,.62,0,1.25,0,1.87a2.54,2.54,0,0,0,1.61,2.47,2.49,2.49,0,0,0,2.89-.6.58.58,0,0,1,.48-.2,4.58,4.58,0,0,0,2.54-.55.37.37,0,0,1,.55.1c1.5,1.84,4.81,1.86,6.3.94a3.31,3.31,0,0,1,1.75-.54,23,23,0,0,0,3.3-.48.55.55,0,0,1,.5.1,3.74,3.74,0,0,0,5.84-1.46,1.33,1.33,0,0,1,1.6-.43,2.56,2.56,0,0,0,2.73.26c.25-.11.34-.14.46.16a2.59,2.59,0,0,0,2.64,1.75c1.06,0,2.13-.06,3.19-.07a2.61,2.61,0,0,0,1.74-.59.3.3,0,0,1,.46,0,5.56,5.56,0,0,0,5.61.63c.13,0,.24-.15.38-.09a8,8,0,0,0,2.67.2.83.83,0,0,1,.68.31,2.22,2.22,0,0,0,2.4.84,20.46,20.46,0,0,1,3.08-.53,2.59,2.59,0,0,0,1.16-4.71Zm-46.5,0a2.88,2.88,0,0,1-3,2.16,3.49,3.49,0,0,1-1.45-.43c-.39-.23-.45-.08-.42.29a3,3,0,0,1,0,.6.51.51,0,0,1-.55.54.53.53,0,0,1-.58-.52c-.07-1.3,0-2.6.05-3.9a.52.52,0,0,1,.57-.52.55.55,0,0,1,.57.64,2,2,0,0,0,1.1,1.91,1.85,1.85,0,0,0,2.33-.45,1.13,1.13,0,0,0-.34-1.77,4.88,4.88,0,0,0-1.64-.5,2.21,2.21,0,0,1-2.15-2.54,6.88,6.88,0,0,1,.24-1.86,1.75,1.75,0,0,1,2.85-1c.2.14.39.3.67.52,0-.33,0-.57,0-.82s.16-.67.6-.66.58.3.56.69c0,1.13-.09,2.26-.13,3.39,0,.35-.17.6-.54.62s-.59-.21-.61-.59a2.88,2.88,0,0,0-1-2.07c-.62-.51-1.13-.37-1.28.4a5.89,5.89,0,0,0-.14,1.87.92.92,0,0,0,.86.9A8.9,8.9,0,0,1,951,169,2.36,2.36,0,0,1,952.81,171.76Zm5.25,2.93c-1.87.78-4.45.22-4.47-2.62a19.09,19.09,0,0,1,.08-2.93c.32-2.22,1.82-3,3.79-1.9l.45.25c0-.39,0-.69,0-1a.57.57,0,0,1,1.13,0c0,.83,0,1.66,0,2.48a.57.57,0,0,1-1.07.3,3.1,3.1,0,0,0-1.61-1.24c-.83-.25-1.21-.08-1.43.77a11.15,11.15,0,0,0-.12,3.82,1.27,1.27,0,0,0,1.18,1.15,3.51,3.51,0,0,0,1.21,0,1.42,1.42,0,0,0,1.12-1.23,6.4,6.4,0,0,0,.06-1.16.53.53,0,0,1,.5-.54.55.55,0,0,1,.62.42A3.07,3.07,0,0,1,958.06,174.69Zm10.62-1.54a1.71,1.71,0,0,1-1.8,1.18,1.73,1.73,0,0,1-1.55-1.5c-.2-.91-.12-1.86-.3-2.77a4,4,0,0,0-.19-.68.72.72,0,0,0-1-.49c-1.36.31-1.36.31-1.34,1.71,0,.49,0,1,0,1.47s.13.4.42.34a2.34,2.34,0,0,1,.45-.07.55.55,0,0,1,.58.46.51.51,0,0,1-.4.66c-1,.17-1.93.32-2.9.44a.51.51,0,0,1-.57-.52.56.56,0,0,1,.47-.62c.78-.23.78-.23.78-1s0-1.38,0-2.08c0-.22,0-.33-.3-.35a.53.53,0,0,1-.55-.59.54.54,0,0,1,.55-.55c.28,0,.29-.14.29-.35,0-.66,0-1.31,0-2,0-.27-.08-.38-.35-.32l-.4.07c-.39.05-.72,0-.79-.49s.25-.63.64-.67l2.08-.2a10.94,10.94,0,0,1,2.36.18c.75.17,1.52.41,1.79,1.23a2.09,2.09,0,0,1-.7,2.16.69.69,0,0,0-.13,1,5.31,5.31,0,0,1,.46,2.37,9.64,9.64,0,0,0,.15,1.41c.06.29.2.54.55.57s.48-.21.59-.47l0,0c.27-.62.52-.8.89-.62S968.93,172.55,968.68,173.15Zm7.88-2.5c-.4.18-.81.33-1.21.51a3.78,3.78,0,0,0-1.23.78.53.53,0,0,1-.81,0,.56.56,0,0,1,0-.86c.08-.08.18-.15.26-.24s.54-.17.47-.44a6.06,6.06,0,0,0-.5-1.21c-.06-.12-.22,0-.33,0-.65.11-1.29.23-1.94.32-.23,0-.41.08-.39.35s-.27.51.18.65a.48.48,0,0,1,.28.63.51.51,0,0,1-.54.44h-1.42v-.05l-1.41-.08c-.39,0-.62-.23-.6-.61a.55.55,0,0,1,.62-.53l1.26,0c.26,0,.39,0,.44-.33q.56-2.93,1.16-5.85c.07-.33-.05-.39-.34-.34s-.76.12-1.15.17-.65-.08-.71-.47.17-.63.56-.69l2-.29c.65-.09.81,0,1.08.64.87,2.08,1.74,4.16,2.59,6.26.16.41.32.59.74.3a1.73,1.73,0,0,1,.46-.2.57.57,0,0,1,.42,1.07Zm6.45-3.51c-.4,0-.57-.25-.58-.62s0-.81,0-1.21-.08-.35-.34-.33c-.56.05-1.11.07-1.67.08-.28,0-.38.1-.38.39,0,2.26,0,4.52.05,6.78,0,.28.1.35.35.33a5.47,5.47,0,0,1,.81,0,.52.52,0,0,1,.53.56.5.5,0,0,1-.52.56c-1.17,0-2.33.07-3.5.08a.54.54,0,0,1-.58-.57c0-.37.22-.54.56-.59H978c1,0,1,0,1-1,0-2,0-3.95,0-5.93,0-.43-.13-.55-.54-.51s-1,0-1.52,0c-.27,0-.36.07-.31.35.1.56.16,1.13.26,1.7.07.39,0,.69-.45.76s-.62-.19-.68-.58c-.14-.84-.28-1.69-.41-2.54-.08-.58.12-.83.72-.84,1.16,0,2.33,0,3.49,0v0l3.34-.18c.61,0,.85.19.83.79s-.06,1.28-.07,1.92C983.56,166.87,983.39,167.13,983,167.14Zm3.8,7c-1.74-.05-2.83-.65-3-2.11a10.45,10.45,0,0,1,.17-4.52,2,2,0,0,1,2.71-1.47,4.47,4.47,0,0,1,1.32.62c0-.37,0-.65,0-.93a.56.56,0,0,1,.58-.62c.39,0,.57.26.58.63,0,.78,0,1.55,0,2.33a.6.6,0,0,1-.41.63.56.56,0,0,1-.69-.27,3,3,0,0,0-1.66-1.26c-.75-.21-1.15,0-1.35.72a10.35,10.35,0,0,0-.13,3.92,1.28,1.28,0,0,0,1.2,1.13,4.22,4.22,0,0,0,.71,0,1.49,1.49,0,0,0,1.64-1.53c0-.24,0-.47,0-.71a.55.55,0,0,1,.54-.61.52.52,0,0,1,.59.5C989.84,172.66,988.68,174.24,986.81,174.18Zm11,.33-1.86.22a4.4,4.4,0,0,0-1.08.28.48.48,0,0,1-.69-.22.57.57,0,0,1,.2-.76,2.25,2.25,0,0,1,1.09-.37c.33,0,.4-.18.4-.49,0-1.17,0-2.33,0-3.5,0-.34-.09-.45-.44-.38-.82.15-1.66.3-2.49.42-.31,0-.46.16-.45.52a20.42,20.42,0,0,1,0,2.07c0,.35.13.45.45.42a3.14,3.14,0,0,1,.61,0,.51.51,0,0,1,.49.54c0,.33-.17.58-.51.58-1.07,0-2.13,0-3.2,0a.52.52,0,0,1-.51-.58.55.55,0,0,1,.53-.57h.1c.89-.07.89-.07.89-.94s0-1.9,0-2.84h0c0-1.1,0-2.2,0-3.29,0-.44-.13-.58-.54-.52a1.75,1.75,0,0,1-.51,0,.54.54,0,0,1-.47-.57.52.52,0,0,1,.5-.55c1.05,0,2.09,0,3.14,0a.5.5,0,0,1,.5.54.54.54,0,0,1-.5.59h0c-.29.05-.7-.14-.85.12a2.06,2.06,0,0,0-.06.94c0,.69,0,1.38,0,2.07,0,.32.08.42.41.36.84-.16,1.69-.3,2.54-.43.31,0,.42-.16.41-.49,0-1,0-2.09,0-3.14,0-.35-.12-.44-.44-.4a2.62,2.62,0,0,1-.56,0,.53.53,0,0,1-.52-.57.49.49,0,0,1,.48-.55c1,0,2.06-.07,3.09-.08a.53.53,0,0,1,.54.56c0,.34-.2.51-.52.59s-.71-.15-.87.17a2.49,2.49,0,0,0,0,.95c0,2.55.05,5.1.05,7.65,0,.43,0,.68.57.54a.63.63,0,0,1,.76.26C998.56,174,998.31,174.44,997.79,174.51Z" transform="translate(-943.77 -140.05)"/></g></svg>