<svg id="Layer_1" data-name="Layer 1" xmlns="http://www.w3.org/2000/svg" xmlns:xlink="http://www.w3.org/1999/xlink" viewBox="0 0 57.6 57.6"><defs><style>.cls-1{fill:none;}.cls-2{clip-path:url(#clip-path);}.cls-3{fill:#fff;}</style><clipPath id="clip-path" transform="translate(-1033.51 -140.05)"><rect class="cls-1" x="719.92" width="595.44" height="841.68"/></clipPath></defs><title>ci9</title><g class="cls-2"><path class="cls-3" d="M1082.67,156.47h-8v-8a8.44,8.44,0,0,0-8.43-8.43h-7.88a8.45,8.45,0,0,0-8.44,8.43v8h-8a8.45,8.45,0,0,0-8.44,8.44v7.87a8.44,8.44,0,0,0,8.44,8.44h8v8a8.45,8.45,0,0,0,8.44,8.44h7.88a8.45,8.45,0,0,0,8.43-8.44v-8h8a8.45,8.45,0,0,0,8.44-8.44v-7.87a8.45,8.45,0,0,0-8.44-8.44ZM1042,177.85a5.08,5.08,0,0,1-5.07-5.07v-7.87a5.07,5.07,0,0,1,5.07-5.06h20.36a1.69,1.69,0,1,0,0-3.38h-9v-8a5.07,5.07,0,0,1,5.06-5.06h7.88a5.07,5.07,0,0,1,5.06,5.06v18.68h-19.69a1.69,1.69,0,0,0-1.69,1.69v9Zm45.78-5.07a5.07,5.07,0,0,1-5.06,5.07h-20.36a1.69,1.69,0,1,0,0,3.37h9v8a5.07,5.07,0,0,1-5.06,5.06h-7.88a5.07,5.07,0,0,1-5.06-5.06V170.53H1073a1.68,1.68,0,0,0,1.68-1.68v-9h8a5.07,5.07,0,0,1,5.06,5.06Zm0,0" transform="translate(-1033.51 -140.05)"/><path class="cls-3" d="M1060.06,150.17a1.69,1.69,0,1,1-1.69-1.69,1.69,1.69,0,0,1,1.69,1.69Zm0,0" transform="translate(-1033.51 -140.05)"/><path class="cls-3" d="M1067.93,187.52a1.69,1.69,0,1,1-1.68-1.69,1.69,1.69,0,0,1,1.68,1.69Zm0,0" transform="translate(-1033.51 -140.05)"/></g></svg>