<svg id="Layer_1" data-name="Layer 1" xmlns="http://www.w3.org/2000/svg" xmlns:xlink="http://www.w3.org/1999/xlink" viewBox="0 0 216 73.27"><defs><style>.cls-1{fill:none;}.cls-2{clip-path:url(#clip-path);}.cls-3{fill:#fff;}.cls-4,.cls-5{fill:#8ac640;}.cls-5{fill-rule:evenodd;}.cls-6{fill:#0059a4;}</style><clipPath id="clip-path" transform="translate(-349.28 -72.64)"><rect class="cls-1" x="-0.08" width="595.44" height="841.68"/></clipPath></defs><title>fulllogo</title><g class="cls-2"><path class="cls-3" d="M562.6,87.57h-1.31a2.88,2.88,0,0,0-.78.11,3,3,0,0,0-.79-.11h-1.31l-.27,0a2.4,2.4,0,0,0-.28,0h-3.45a2.68,2.68,0,0,0-2.68,2.67V91A2.68,2.68,0,0,0,553,93.27v.09a13.9,13.9,0,0,0-3.21-.33H541a14.07,14.07,0,0,0-3.4.36,6.38,6.38,0,0,0-3,1.63,2.66,2.66,0,0,0-2.58-2h-12.4a12.25,12.25,0,0,0-3.71.5,7.11,7.11,0,0,0-2.83,1.63,2.68,2.68,0,0,0-2.62-2.1H494.14a2.67,2.67,0,0,0-2.68,2.67v1.72a7.08,7.08,0,0,0-.69-1.08,6.83,6.83,0,0,0-3.15-2.18,12.07,12.07,0,0,0-4.07-.59H482a8.66,8.66,0,0,0-4.8,1.23l-.35.24q-.36-.24-.69-.42a11.26,11.26,0,0,0-5.28-1.05h-1.4a8.87,8.87,0,0,0-2.93.46A2.69,2.69,0,0,0,465,93.6h-4.17a2.67,2.67,0,0,0-2.61,2.09c-1.61-1.4-3.9-2.09-7-2.09h-6c-3.15,0-5.46.71-7.08,2.18a7,7,0,0,0-1.65,2.32,12.77,12.77,0,0,0-.79-2,6.24,6.24,0,0,0,5.32-3.39c.06-.12,1.58-3,2.19-4.33l.59-1.27a2.68,2.68,0,0,0-1-3.39A8.93,8.93,0,0,0,438,82.35a10.32,10.32,0,0,0-5.34,1.53,10.2,10.2,0,0,0-2.36-10.44A2.68,2.68,0,0,0,425.82,76a2,2,0,0,1-.21,1.08c-.14.24-.3.48-.46.73A11.1,11.1,0,0,0,423,85.11v.09a8,8,0,0,0-4,.25,11.23,11.23,0,0,0-5.3,3.67A2.67,2.67,0,0,0,414.2,93a19.94,19.94,0,0,1,2.44,2,9.33,9.33,0,0,0,3.6,2.27,15.63,15.63,0,0,0-4.46,2.29,8.1,8.1,0,0,0-1.18,1l.63-3.83a2.67,2.67,0,0,0-2.64-3.11H400.3a19.35,19.35,0,0,0-3.23.24,8.06,8.06,0,0,0-2.91,1l-.08.05a1.8,1.8,0,0,0,0-.22V89.93a2.68,2.68,0,0,0-2.68-2.68h-4.5a2.68,2.68,0,0,0-2.68,2.68v3.71c-.12,0-.25,0-.38,0H379a2.67,2.67,0,0,0-2.57,1.92l-1.56,5.33-1.62-5.35a2.67,2.67,0,0,0-2.56-1.9H366.1a2.67,2.67,0,0,0-2.56,1.91L362,100.8l-1.53-5.27a2.69,2.69,0,0,0-2.57-1.93h-5a2.67,2.67,0,0,0-2.54,3.53l6,18a2.68,2.68,0,0,0,2.54,1.83h5.37a2.68,2.68,0,0,0,2.56-1.91l1.52-5,1.54,5a2.68,2.68,0,0,0,2.56,1.9h5.27a2.69,2.69,0,0,0,2.54-1.82l3.95-11.67V114.3a2.68,2.68,0,0,0,2.68,2.68h4.47a2.57,2.57,0,0,1,2.17,0h13.32a21.73,21.73,0,0,0,3.2-.22,7.73,7.73,0,0,0,3-1.05,5.66,5.66,0,0,0,2.1-2.32,10.18,10.18,0,0,0,4.29,2.25,2.68,2.68,0,0,0,1.08,2.59,2.58,2.58,0,0,0,.76.38,2.43,2.43,0,0,0-.14.48,2.7,2.7,0,0,0,1.11,2.68,2.74,2.74,0,0,0,1.22.45,2.69,2.69,0,0,0,3.31,1.48l-.09.29a2.68,2.68,0,0,0,4.92,2.05,5.12,5.12,0,0,0,.43-1.25l.06-.2a2.71,2.71,0,0,0,3.54-2.54,1.77,1.77,0,0,0,0-.23,2.72,2.72,0,0,0,.89-1,2.69,2.69,0,0,0,.27-1.36,2.69,2.69,0,0,0,1.08-4.1l-.22-.33a2.17,2.17,0,0,1,1,.57,2.63,2.63,0,0,0,2.28.77,13.48,13.48,0,0,0,4.31.62h6c3.1,0,5.39-.69,7-2.1a2.65,2.65,0,0,0,2.37,2.07,2.62,2.62,0,0,0-.22.25,7.62,7.62,0,0,0,0,9.21,6.12,6.12,0,0,0,4.58,2.24,2,2,0,0,0-.36.17,2.58,2.58,0,0,0-1.3-.35H461a2.66,2.66,0,0,0-2.52,1.77l-.3.81-.27-.79a2.69,2.69,0,0,0-2.53-1.79h-2.28a2.61,2.61,0,0,0-1.27.33,2.54,2.54,0,0,0-1.26-.33H449a2.68,2.68,0,0,0-2.3,1.3,2.68,2.68,0,0,0-2.3-1.3h-1.63a2.67,2.67,0,0,0-2.67,2.67V137h-.45v-5.83a2.67,2.67,0,0,0-2.68-2.67h-1.62a2.68,2.68,0,0,0-2.49,1.71h0a2.68,2.68,0,0,0-2.51-1.75h-1.76a2.69,2.69,0,0,0-2.51,1.74l-3.42,9.17v-8.19a2.66,2.66,0,0,0-2.67-2.67h-2.29a2.66,2.66,0,0,0-2.52,1.77l-.29.81-.28-.79a2.68,2.68,0,0,0-2.53-1.79h-2.28a2.61,2.61,0,0,0-1.3.35,2.64,2.64,0,0,0-1.31-.35h-1.62a2.61,2.61,0,0,1-2.61,0h-1.61a2.77,2.77,0,0,0-.71.1,2.83,2.83,0,0,0-.71-.1h-1.5a2.68,2.68,0,0,0-2,.91,2.64,2.64,0,0,0-2-.91H387a2.62,2.62,0,0,0-.75.12,2.67,2.67,0,0,0-.75-.12h-1.62a2.61,2.61,0,0,1-2.61,0h-1.62a2.68,2.68,0,0,0-2.59,2,2.66,2.66,0,0,0-2.58-2H373a2.69,2.69,0,0,0-2.4,1.47l-.12-.21a2.69,2.69,0,0,0-2.28-1.26h-2a2.68,2.68,0,0,0-2.48,1.65,2.67,2.67,0,0,0-2.49-1.7H359.5a2.68,2.68,0,0,0-2.09,1,2.66,2.66,0,0,0-2-.95H354a2.69,2.69,0,0,0-2.05.95,10.94,10.94,0,0,0-2,3.61,13.5,13.5,0,0,0,0,8.37,10.76,10.76,0,0,0,2,3.57,2.65,2.65,0,0,0,2,.93h1.4a2.66,2.66,0,0,0,2.63-2.25,2.68,2.68,0,0,0,2-1.73l.33-1,.36,1a2.68,2.68,0,0,0,2.52,1.77H365a2.57,2.57,0,0,0,.62-.08,2.51,2.51,0,0,0,.62.08h1.47a2.7,2.7,0,0,0,2.39-1.47l.12.2a2.68,2.68,0,0,0,2.28,1.27h2a2.66,2.66,0,0,0,2.58-2,2.68,2.68,0,0,0,2.59,2h1.62a2.61,2.61,0,0,1,2.61,0h1.62a2.67,2.67,0,0,0,2.2-1.16,2.67,2.67,0,0,0,2.21,1.16h1.61a2.63,2.63,0,0,0,1.62-.56,2.66,2.66,0,0,0,1.61.56h1.5a2.69,2.69,0,0,0,2.51-1.74l.05-.14a2.67,2.67,0,0,0,2.55,1.88H403a2.61,2.61,0,0,1,2.61,0h1.62a2.64,2.64,0,0,0,1.31-.35,2.61,2.61,0,0,0,1.3.35h1.47a2.67,2.67,0,0,1,2.81,0h1.43a2.69,2.69,0,0,1,2.92,0H420a2.66,2.66,0,0,0,2.45-1.61,2.55,2.55,0,0,0,.25.46,2.68,2.68,0,0,0,2.2,1.15h1.7a2.66,2.66,0,0,0,2.52-1.78l.34-1,.36,1a2.68,2.68,0,0,0,2.52,1.77h1.74a2.32,2.32,0,0,1,1.28,0h5.81a2.67,2.67,0,0,0,1.88-.77,7,7,0,0,0,3.62.91,7.33,7.33,0,0,0,3.31-.73,5.54,5.54,0,0,0,1-.6,2.65,2.65,0,0,0,2.22,1.19h1.47a2.65,2.65,0,0,1,2.8,0h1.43a2.71,2.71,0,0,1,2.93,0h1.55a2.58,2.58,0,0,0,1.3-.35,2.64,2.64,0,0,0,1.31.35h1.47a2.7,2.7,0,0,0,2.39-1.47l.12.2a2.68,2.68,0,0,0,2.28,1.27h2a2.58,2.58,0,0,0,1.3-.35,2.64,2.64,0,0,0,1.31.35h1.62a2.67,2.67,0,0,0,2.67-2.68v-9.89a2.67,2.67,0,0,0-2.32-2.64,4.77,4.77,0,0,0,.76.06h.63a3.4,3.4,0,0,0,.64-.08c.13,0,.25,0,.39,0h.72a2.66,2.66,0,0,0,1.47-.45,2.58,2.58,0,0,0,1.18.42,2.68,2.68,0,0,0-2.61,2.67V141a2.68,2.68,0,0,0,2.68,2.68h1.62a2.61,2.61,0,0,1,2.61,0h1.47a2.68,2.68,0,0,0,2.39-1.47l.12.2a2.68,2.68,0,0,0,2.28,1.27h2a2.58,2.58,0,0,0,1.3-.35,2.64,2.64,0,0,0,1.31.35h1.62a2.68,2.68,0,0,1,4.41,0h1.62a2.67,2.67,0,0,1,4.42,0h1.62a2.74,2.74,0,0,0,.64-.08,3,3,0,0,0,.66.08h1.71a2.69,2.69,0,0,0,2.53-1.79l.33-1,.36,1a2.68,2.68,0,0,0,2.52,1.77h1.74a2.66,2.66,0,0,1,3.08,0h1.62a2.68,2.68,0,0,1,4.43,0h1.61a2.67,2.67,0,0,1,4.76,0h1.7a2.66,2.66,0,0,1,4.77,0h4.23a2.35,2.35,0,0,0,.24.72,2.66,2.66,0,0,0,2.39,1.47h1.37a2.65,2.65,0,0,0,2-.92,10.77,10.77,0,0,0,2-3.56,13,13,0,0,0,.66-4.18,13.26,13.26,0,0,0-.65-4.18,10.87,10.87,0,0,0-2-3.64,2.63,2.63,0,0,0-1.55-.9,5.25,5.25,0,0,0,1.7-.67,4.18,4.18,0,0,0,2-3.61,4.51,4.51,0,0,0-.33-1.64,2.91,2.91,0,0,0,.15-.89,2.2,2.2,0,0,0-.07-.58,4.46,4.46,0,0,0-1.6-2.92,4.94,4.94,0,0,0-3.16-1,5.48,5.48,0,0,0-2.77.7,5,5,0,0,0-2.64-.7,5.4,5.4,0,0,0-2.86.75,5.1,5.1,0,0,0-2.72-.75,5.2,5.2,0,0,0-2.86.81,5.18,5.18,0,0,0-2.86-.81,5.25,5.25,0,0,0-2.92.86,5.16,5.16,0,0,0-2.93-.86,5.34,5.34,0,0,0-2.41.55,2.64,2.64,0,0,0-1.37-.39h-.72a2.64,2.64,0,0,1-3.28,0h-.2c-.08-.12-.17-.24-.26-.35h5.22a11.68,11.68,0,0,0,3.74-.52,6.85,6.85,0,0,0,2.92-1.79,1.81,1.81,0,0,0,.18.21,6.47,6.47,0,0,0,3,1.71A13.36,13.36,0,0,0,541,117h8.83a13.33,13.33,0,0,0,3.43-.39,6.47,6.47,0,0,0,3-1.68,6.6,6.6,0,0,0,1.69-3.09,14.14,14.14,0,0,0,.38-3.55v-6.54a14.28,14.28,0,0,0-.38-3.56,7.5,7.5,0,0,0-.37-1.07,2.58,2.58,0,0,0,.87.16h.82a3.11,3.11,0,0,0,.43,0,3,3,0,0,0,.42,0h.85a3,3,0,0,0,.43,0,3.11,3.11,0,0,0,.43,0h.81a2.68,2.68,0,0,0,2.68-2.67V90.24A2.68,2.68,0,0,0,562.6,87.57Zm-13.28,14.49V108h-7.81v-5.89Zm-36.46,12.56a7.37,7.37,0,0,0,1.73,1.25,4.62,4.62,0,0,0-1.87,2.43,2.65,2.65,0,0,0-2-1H510a2.42,2.42,0,0,0-.47,0,4.7,4.7,0,0,0-1.4-.21,5.12,5.12,0,0,0-2.86.84,5,5,0,0,0-3-.84,4.62,4.62,0,0,0-1.29.18,2.24,2.24,0,0,0-.1-.37h5a11.61,11.61,0,0,0,3.73-.52,6.86,6.86,0,0,0,2.9-1.78c.07-.07.12-.15.19-.22Zm10.45,14a1.94,1.94,0,0,1-3.17-.16H520a5.54,5.54,0,0,0,1.43-.57A4.64,4.64,0,0,0,523.31,128.58ZM492,128.35a4.55,4.55,0,0,0,2.08.05l.33-.1a4.27,4.27,0,0,0,.92.21,2.64,2.64,0,0,0-2.09,1.43l-.13-.21a2.63,2.63,0,0,0-1.8-1.2A5.38,5.38,0,0,0,492,128.35ZM473.07,117h.15a1.93,1.93,0,0,0-.1.43,2.56,2.56,0,0,0-1.07.49,2.67,2.67,0,0,0-1.64-.57h-.22a5.4,5.4,0,0,0-1.18-1.21,6.05,6.05,0,0,0-1.37-.74,2.58,2.58,0,0,0,.23-1.08V102.82h2.53V114.3A2.68,2.68,0,0,0,473.07,117Zm10.12-1.53a2.74,2.74,0,0,0-1.3-.34h-.72a2.68,2.68,0,0,0-1.43.41,2.54,2.54,0,0,0,.31-1.22V102.82h2.83c0,.22,0,.46,0,.73V114.3A2.6,2.6,0,0,0,483.19,115.45ZM465.14,121l.07,0a2.51,2.51,0,0,0,.28.65,2.68,2.68,0,0,0-.26.9.35.35,0,0,1,0,.16s0,0,0,0a1.36,1.36,0,0,1-.19-.82A1.68,1.68,0,0,1,465.14,121Zm8.08,7.48a2,2,0,0,0,.24,0h-.34Zm-4.53-.78a4.71,4.71,0,0,0,3,1h0a2.68,2.68,0,0,0-1.45,1.28l-.13-.21a2.68,2.68,0,0,0-2.27-1.26h-1.06A6,6,0,0,0,468.69,127.66Zm17.54.81H486a2.79,2.79,0,0,0,1.36-.62,4.28,4.28,0,0,0,1.39.63,2.4,2.4,0,0,1-2.48,0Zm10.95,0h.06c.13,0,.26,0,.4,0h.72a2.53,2.53,0,0,0,.67-.1,2.83,2.83,0,0,0,.52.08,2.61,2.61,0,0,0-1.17.34A2.7,2.7,0,0,0,497.18,128.47Zm4.13,0h-.55a1.83,1.83,0,0,1,2.6,0h-.55a2.4,2.4,0,0,1-1.5,0Zm12.07,0h-.81a5.84,5.84,0,0,0,.68-1.88,4.38,4.38,0,0,0,.8.81,6,6,0,0,0,3.35,1.22,2.65,2.65,0,0,0-1.52,1.54v0A2.67,2.67,0,0,0,513.38,128.47Zm12.27,0,.1,0a2,2,0,0,0,.24,0Zm26.33.05a3.19,3.19,0,0,0-.54-.05h-2a5.27,5.27,0,0,0,1.12-.46A5.06,5.06,0,0,0,552,128.52Zm.11,0h0l-.1,0Zm-5.74-.08h-.51a2.74,2.74,0,0,0-.64.08,2.84,2.84,0,0,0-.66-.08h-.77A4.83,4.83,0,0,0,545,128,5.1,5.1,0,0,0,546.35,128.47Zm-4.43.17a2.7,2.7,0,0,0-1.6,1.65l-.1.3-.1-.3a2.67,2.67,0,0,0-2.26-1.8,4.91,4.91,0,0,0,1.52-.66A5.19,5.19,0,0,0,541.92,128.64Zm-6.58-.11-.08,0a2.75,2.75,0,0,0-.65-.08H533a2.69,2.69,0,0,0-.76.12l-.31-.08a4.88,4.88,0,0,0,1.65-.72A5,5,0,0,0,535.34,128.53Zm-6.1-.06h-2a2.78,2.78,0,0,0,1.06-.36A5.07,5.07,0,0,0,529.24,128.47ZM496.9,102.08a2.71,2.71,0,0,0-.92,2v2.3a2.73,2.73,0,0,0,.48,1.54h-3a2.66,2.66,0,0,0-.85.15v-4.62c0-.69,0-1.33-.08-1.93a2.63,2.63,0,0,0,1.58.53Zm-5.17,14.22a2.61,2.61,0,0,0,.78.48,2.66,2.66,0,0,0-.3.58,6.22,6.22,0,0,0-1.47-.19,6,6,0,0,0-2.05.35,2.72,2.72,0,0,0-.94-.19H487a2.67,2.67,0,0,0-1.82.72,2.53,2.53,0,0,0-.65-.43,2.5,2.5,0,0,0-.26-1,2.74,2.74,0,0,0,1.3.35H490A2.7,2.7,0,0,0,491.73,116.3ZM451,102.82v4.93h-5.53v-4.93Zm-15.32,6.12a2,2,0,0,1-.6-.19c.2-.41.39-.82.56-1.23V108C435.68,108.3,435.69,108.62,435.72,108.94Zm-6.33-10.77A11.61,11.61,0,0,0,426.22,97a7.21,7.21,0,0,0,1.64-1.2A10.91,10.91,0,0,1,429.39,98.17Zm-16.18,4.36a.36.36,0,0,1,0,.09l0,0Zm65.19,25.94h-1.62a2.64,2.64,0,0,0-1.31.35,2.6,2.6,0,0,0-1-.33,2.83,2.83,0,0,0,.65-.09,2.39,2.39,0,0,0,.66.1h.73a2.7,2.7,0,0,0,1.2-.3,4.77,4.77,0,0,0,.95.29Z" transform="translate(-349.28 -72.64)"/><path class="cls-4" d="M493.49,114.3v-3.68H505.9a2.33,2.33,0,0,0,1.48-.41,2.09,2.09,0,0,0,.52-1.68,2,2,0,0,0-.57-1.7,2.33,2.33,0,0,0-1.43-.42h-7.25v-2.3l5.87-4.7H494.14V95.73h16.35v3.34l-5.89,4.52c.81,0,1.64,0,2.5.07a7.4,7.4,0,0,1,2.31.47,3.71,3.71,0,0,1,1.69,1.32,4.37,4.37,0,0,1,.66,2.61V109a8.67,8.67,0,0,1-.25,2.19,4,4,0,0,1-.92,1.68,4.21,4.21,0,0,1-1.8,1.08,9.37,9.37,0,0,1-2.89.38Z" transform="translate(-349.28 -72.64)"/><path class="cls-4" d="M519.76,105.84a4.12,4.12,0,0,0-1,.13,2.76,2.76,0,0,0-.86.42,2.16,2.16,0,0,0-.61.7,2.09,2.09,0,0,0-.23,1,2.67,2.67,0,0,0,.61,1.87,2.63,2.63,0,0,0,2,.65h7.92a2.31,2.31,0,0,0,1.8-.57,2.87,2.87,0,0,0,.5-1.87,2.64,2.64,0,0,0-.5-1.82,2.43,2.43,0,0,0-1.8-.52Zm-.11,8.46a9.26,9.26,0,0,1-2.92-.41,5.08,5.08,0,0,1-2-1.17,4.7,4.7,0,0,1-1.12-1.88,8.37,8.37,0,0,1-.35-2.49v-5.86a12.09,12.09,0,0,1,.35-3.1,5.08,5.08,0,0,1,1.12-2.11,4.59,4.59,0,0,1,2-1.2,10,10,0,0,1,2.92-.38h12.4v3.68H520.57a9.43,9.43,0,0,0-1.63.13,2.75,2.75,0,0,0-1.11.48,2,2,0,0,0-.67.94,4.9,4.9,0,0,0-.21,1.56v2.83a4.67,4.67,0,0,1,1.47-1.82,4.46,4.46,0,0,1,2.71-.71h6.57a9.36,9.36,0,0,1,2.89.37,4.84,4.84,0,0,1,1.81,1,3.35,3.35,0,0,1,.94,1.51,6.49,6.49,0,0,1,.25,1.84v1.38a8.81,8.81,0,0,1-.25,2.2,3.86,3.86,0,0,1-.92,1.7,4.18,4.18,0,0,1-1.81,1.1,9.55,9.55,0,0,1-2.91.38Z" transform="translate(-349.28 -72.64)"/><path class="cls-4" d="M552,101.73a2.83,2.83,0,0,0-.44-1.85,2.29,2.29,0,0,0-1.72-.5H541a2.3,2.3,0,0,0-1.74.5,2.82,2.82,0,0,0-.45,1.85v6.54a2.82,2.82,0,0,0,.45,1.85,2.26,2.26,0,0,0,1.74.5h8.81a2.25,2.25,0,0,0,1.72-.5,2.83,2.83,0,0,0,.44-1.85ZM541,114.3a10.73,10.73,0,0,1-2.75-.3,3.55,3.55,0,0,1-2.73-2.84,12.33,12.33,0,0,1-.29-2.89v-6.54a12.39,12.39,0,0,1,.29-2.89,3.91,3.91,0,0,1,1-1.87,3.68,3.68,0,0,1,1.78-1A11.25,11.25,0,0,1,541,95.7h8.83a11.13,11.13,0,0,1,2.73.29,3.67,3.67,0,0,1,1.79,1,4,4,0,0,1,1,1.87,11.82,11.82,0,0,1,.3,2.89v6.54a11.76,11.76,0,0,1-.3,2.89,3.87,3.87,0,0,1-1,1.85,3.77,3.77,0,0,1-1.79,1,10.62,10.62,0,0,1-2.73.3Z" transform="translate(-349.28 -72.64)"/><path class="cls-5" d="M428.85,80.4s-1.73,4.33-1.38,7.19c0,0-.79-.62-.59-2.48a6.48,6.48,0,0,1,2-4.71m7.61,6.3s-3.75,2.31-3.78,6.42c0,0,4.44,1.49,6-1.63,0,0,1.55-3,2.14-4.23l.59-1.26c-4.62-3-11.65,1.35-9.87,6.09C431.56,92.09,433.26,87,436.46,86.7Zm-8-11.39a4.59,4.59,0,0,1-.48,3c-.86,1.52-2.47,3-2.27,6.64a13.61,13.61,0,0,0,1.23,5.06s-3.75-3.32-7.11-2.06a8.31,8.31,0,0,0-4.05,2.83,23.38,23.38,0,0,1,2.9,2.37c.79.89,5.2,3.86,8.13-.26,0,0-1.55-3.42-7-3.64a8.32,8.32,0,0,1,7.57,2.23s5.93,4.42,5.33,10.35c0,0-.39,3.42-1.51,4.16,0,0-3.75-3.42-10.27-1.56,0,0,6.32-3.42,9.41-.22,0,0,.33.57.45.85l.11.28a1.56,1.56,0,0,0,.3-2.06c-.69-1.34-6.17-7.16-13.87-1.59,0,0-4.29,3-1.45,8.38,0,0,3.22,5.64,12,1.93,0,0-.08,1.11-.66,1.28a5.71,5.71,0,0,1-1.6.37,4,4,0,0,0-1.86.59,7.11,7.11,0,0,0-.92.81c-.26.31-.69,1-.69,1a3.92,3.92,0,0,1,1.8-1.32,12,12,0,0,1,1.89-.45,2.77,2.77,0,0,0,2.48-1.2c.89-1.13,2.24-2.75,2.24-2.75s.64-.37.23.43a18.26,18.26,0,0,1-2.28,3.58c-.76.73-1.11,1.54-2.08,2.49s-1.53,1.76-2,2.15-.54.57-.54.57a14,14,0,0,0,2.48-1.83,8.43,8.43,0,0,1,1.19-1.15s-1,3.25-1.52,4.58a46.32,46.32,0,0,1,2.51-5.27,22.82,22.82,0,0,0,2.54-4.08s-.14,2.37-.18,3.08-.62,3-.66,4a33.53,33.53,0,0,1-.89,5.9s1.65-5.45,1.62-6.16a6.47,6.47,0,0,1,0-.93,10.16,10.16,0,0,0,1.25,3.3c.79,1,.82,1.08.82,1.08a51.65,51.65,0,0,1-1.68-4.93,7.32,7.32,0,0,1,.13-2.31,7.75,7.75,0,0,0,.83,2.67,8,8,0,0,0,1.87,2.12,14,14,0,0,1-2.63-5.71l0-3s.16-.67.57.53a16.08,16.08,0,0,0,1.32,2.73,6.13,6.13,0,0,0,1.65,2.27l.75.53a7,7,0,0,0-1-1.35,10.46,10.46,0,0,1-1.35-2c-.57-.93-1.45-3.25-1.13-3.12s.82,1.41,2.15,1.66,4.13-.49,6.17,1.59a4.53,4.53,0,0,0-4.11-2c-3.07,0-4.17-1.84-4.31-2.27s-.25-.27.08-.94,2.73-4.61,1.91-8.91-6.32-9.09-6.32-9.09-.33-2.34.49-3.56S432.77,79.77,428.42,75.31Z" transform="translate(-349.28 -72.64)"/><path class="cls-6" d="M495.44,118.27V120h1.17v.59h-1.17v3.93a1.07,1.07,0,0,0,.09.52.56.56,0,0,0,.48.24,3.47,3.47,0,0,0,.6,0v.6H496a1.43,1.43,0,0,1-1-.27,1.52,1.52,0,0,1-.27-1v-4h-1V120h1v-1.74Z" transform="translate(-349.28 -72.64)"/><polygon class="cls-6" points="23.2 41.66 19.09 28.17 15.02 41.66 9.65 41.66 3.6 23.64 8.58 23.64 12.65 37.62 16.82 23.64 21.4 23.64 25.63 37.59 29.71 23.64 34.58 23.64 28.47 41.66 23.2 41.66"/><path class="cls-6" d="M386.92,114.3v-18h4.47v18Zm0-19.59V89.93h4.5v4.78Z" transform="translate(-349.28 -72.64)"/><path class="cls-6" d="M393.56,114.3c.11-.65.22-1.29.32-1.94s.2-1.29.32-1.93h12.48a2.19,2.19,0,0,0,1.38-.37,2.79,2.79,0,0,0,0-3.07,2.13,2.13,0,0,0-1.38-.37h-6.61a8.86,8.86,0,0,1-4.61-.93,3.51,3.51,0,0,1-1.46-3.23v-1.93a4.83,4.83,0,0,1,.38-2.06,2.83,2.83,0,0,1,1.15-1.29,5.3,5.3,0,0,1,2-.67,16.48,16.48,0,0,1,2.8-.2h12.29l-.64,3.87H400.5a2.13,2.13,0,0,0-1.38.37,2.69,2.69,0,0,0,0,3,2.07,2.07,0,0,0,1.38.39h6.61a8.85,8.85,0,0,1,4.59.93,3.52,3.52,0,0,1,1.49,3.24v2a4.72,4.72,0,0,1-.39,2.07,3,3,0,0,1-1.15,1.29,5.07,5.07,0,0,1-2,.66,17.68,17.68,0,0,1-2.8.19Z" transform="translate(-349.28 -72.64)"/><path class="cls-6" d="M453.71,102.62a2.51,2.51,0,0,0-.6-1.94,2.7,2.7,0,0,0-1.86-.54h-6a2.72,2.72,0,0,0-1.86.54,2.51,2.51,0,0,0-.6,1.94V108a2.5,2.5,0,0,0,.6,1.93,2.72,2.72,0,0,0,1.86.54h6a2.7,2.7,0,0,0,1.86-.54,2.5,2.5,0,0,0,.6-1.93Zm-8.44,11.68q-3.64,0-5.28-1.49T438.36,108v-5.34q0-3.37,1.63-4.86t5.28-1.48h6q3.67,0,5.31,1.48t1.63,4.86V108q0,3.36-1.63,4.85t-5.31,1.49Z" transform="translate(-349.28 -72.64)"/><path class="cls-6" d="M485.59,114.3V103.55a11.62,11.62,0,0,0-.08-1.37,3,3,0,0,0-.34-1.08,1.73,1.73,0,0,0-.73-.71,2.9,2.9,0,0,0-1.29-.25h-3.23a2.81,2.81,0,0,0-2,.54,2.18,2.18,0,0,0-.57,1.67v12h-4.31v-12a2.21,2.21,0,0,0-.56-1.67,2.74,2.74,0,0,0-1.91-.54h-3.17a2.23,2.23,0,0,0-1.48.44,2.41,2.41,0,0,0-.75,1.3V114.3h-4.34v-18H465v2.6a4.83,4.83,0,0,1,1.6-1.89,4.91,4.91,0,0,1,2.84-.71h1.4a8.88,8.88,0,0,1,4,.74,4.18,4.18,0,0,1,2,2.66,4.29,4.29,0,0,1,1.74-2.61,6.09,6.09,0,0,1,3.34-.79h1.56a9.7,9.7,0,0,1,3.17.43,4.21,4.21,0,0,1,2,1.33,5.27,5.27,0,0,1,1,2.26,15.52,15.52,0,0,1,.28,3.18V114.3Z" transform="translate(-349.28 -72.64)"/><path class="cls-6" d="M468.55,120.21h-.77a2.31,2.31,0,0,0-.88-1.42,2.5,2.5,0,0,0-1.58-.52,2.68,2.68,0,0,0-2.31,1.1,4,4,0,0,0-.72,2.43,3.93,3.93,0,0,0,.72,2.42,2.7,2.7,0,0,0,2.31,1.12,2.36,2.36,0,0,0,1.79-.76,3,3,0,0,0,.79-1.82h.76a3.7,3.7,0,0,1-1.05,2.36,3.2,3.2,0,0,1-2.29.87,3.5,3.5,0,0,1-2.85-1.27,4.49,4.49,0,0,1-.94-2.92,4.44,4.44,0,0,1,.94-2.91,3.47,3.47,0,0,1,2.85-1.28,3.43,3.43,0,0,1,2.11.67,2.73,2.73,0,0,1,1.12,1.93" transform="translate(-349.28 -72.64)"/><path class="cls-6" d="M474.42,120v5.81h-.67v-1h0a2,2,0,0,1-.81.9,2.33,2.33,0,0,1-1.19.32c-1.36,0-2-.74-2-2.21V120h.72v3.78a1.39,1.39,0,0,0,1.55,1.6,1.49,1.49,0,0,0,1.32-.72,3,3,0,0,0,.41-1.61v-3Z" transform="translate(-349.28 -72.64)"/><rect class="cls-6" x="126.47" y="45.14" width="0.72" height="8.04"/><path class="cls-6" d="M479,118.27V120h1.17v.59H479v3.93a1.07,1.07,0,0,0,.09.52.56.56,0,0,0,.48.24,3.47,3.47,0,0,0,.6,0v.6h-.63a1.38,1.38,0,0,1-1-.27,1.51,1.51,0,0,1-.28-1v-4h-1V120h1v-1.74Z" transform="translate(-349.28 -72.64)"/><path class="cls-6" d="M481.17,118.92v-1.14h.72v1.14Zm0,6.9V120h.72v5.81Z" transform="translate(-349.28 -72.64)"/><polygon class="cls-6" points="135.54 53.18 133.31 47.37 134.09 47.37 135.92 52.47 135.94 52.47 137.74 47.37 138.47 47.37 136.3 53.18 135.54 53.18"/><path class="cls-6" d="M489.1,121.79h-.72a1.87,1.87,0,0,1,.72-1.49,2.58,2.58,0,0,1,1.64-.46c1.43,0,2.15.63,2.15,1.87v3.08c0,.29.13.43.41.43a.6.6,0,0,0,.22,0v.59a2.34,2.34,0,0,1-.47,0,.77.77,0,0,1-.68-.28,1.37,1.37,0,0,1-.15-.73h0a2.89,2.89,0,0,1-.82.87,2.53,2.53,0,0,1-1.3.31,2.11,2.11,0,0,1-1.37-.42,1.54,1.54,0,0,1-.57-1.28,1.47,1.47,0,0,1,1-1.48,10.68,10.68,0,0,1,2.14-.39,1.62,1.62,0,0,0,.68-.18.7.7,0,0,0,.24-.61c0-.8-.51-1.19-1.52-1.19s-1.52.45-1.55,1.35m3.07,1.78v-.93h0c-.06.12-.25.2-.59.26l-1.24.19a3.24,3.24,0,0,0-1,.34,1,1,0,0,0-.42.81,1,1,0,0,0,.38.83,1.4,1.4,0,0,0,.91.32,2.12,2.12,0,0,0,1.43-.5A1.65,1.65,0,0,0,492.17,123.57Z" transform="translate(-349.28 -72.64)"/><path class="cls-6" d="M497.64,118.92v-1.14h.72v1.14Zm0,6.9V120h.72v5.81Z" transform="translate(-349.28 -72.64)"/><path class="cls-6" d="M499.7,125.82V120h.72v1a1.64,1.64,0,0,1,.71-.84,2.14,2.14,0,0,1,1.15-.33,2.1,2.1,0,0,1,1.69.6,2.53,2.53,0,0,1,.45,1.64v3.74h-.72v-3.63c0-1.16-.49-1.75-1.47-1.75a1.65,1.65,0,0,0-1.32.56,2.09,2.09,0,0,0-.49,1.43v3.39Z" transform="translate(-349.28 -72.64)"/><path class="cls-6" d="M510.68,120v5.34q0,2.79-2.58,2.79a2.9,2.9,0,0,1-1.61-.42,1.68,1.68,0,0,1-.81-1.34h.71c.14.77.71,1.16,1.7,1.16,1.25,0,1.87-.73,1.87-2.19v-.79h0a2,2,0,0,1-.74.86,1.93,1.93,0,0,1-1.11.33,2.38,2.38,0,0,1-2-.87,3.27,3.27,0,0,1-.62-2.11,3.07,3.07,0,0,1,.69-2.06,2.37,2.37,0,0,1,1.93-.87,2,2,0,0,1,1.13.34,1.84,1.84,0,0,1,.72.83h0v-1Zm-2.58,5.15a1.64,1.64,0,0,0,1.39-.72,2.65,2.65,0,0,0,.47-1.59,3,3,0,0,0-.43-1.64,1.59,1.59,0,0,0-1.43-.77,1.66,1.66,0,0,0-1.46.75,2.87,2.87,0,0,0-.45,1.66,2.6,2.6,0,0,0,.47,1.58A1.68,1.68,0,0,0,508.1,125.16Z" transform="translate(-349.28 -72.64)"/><path class="cls-6" d="M514.87,123.17h.76c0,1.45.85,2.17,2.62,2.17a2.53,2.53,0,0,0,1.39-.39,1.39,1.39,0,0,0,.74-1.25c0-.7-.55-1.18-1.65-1.45l-1.79-.44c-1.21-.29-1.82-.94-1.82-1.94a2,2,0,0,1,.55-1.42,2.78,2.78,0,0,1,2.22-.84,3.3,3.3,0,0,1,2.09.64,2.19,2.19,0,0,1,.89,1.86h-.77a1.75,1.75,0,0,0-.68-1.38,2.42,2.42,0,0,0-1.51-.46,2.5,2.5,0,0,0-1.4.34,1.42,1.42,0,0,0-.62,1.25c0,.62.41,1,1.22,1.23l2,.49c1.38.34,2.08,1,2.08,2.11a2,2,0,0,1-.48,1.35,3.15,3.15,0,0,1-2.6.95,3.67,3.67,0,0,1-2.35-.68,2.41,2.41,0,0,1-.85-2.14" transform="translate(-349.28 -72.64)"/><path class="cls-6" d="M526.94,120v5.81h-.66v-1h0a2,2,0,0,1-.82.9,2.28,2.28,0,0,1-1.19.32c-1.36,0-2-.74-2-2.21V120h.72v3.78c0,1.06.51,1.6,1.54,1.6a1.51,1.51,0,0,0,1.33-.72,3,3,0,0,0,.41-1.61v-3Z" transform="translate(-349.28 -72.64)"/><path class="cls-6" d="M533.08,121.83h-.71a1.55,1.55,0,0,0-1.64-1.39,1.79,1.79,0,0,0-1.53.77,3.16,3.16,0,0,0,0,3.41,1.82,1.82,0,0,0,1.53.77,1.59,1.59,0,0,0,1.14-.47,1.85,1.85,0,0,0,.55-1.19h.7a2.73,2.73,0,0,1-.78,1.66,2.29,2.29,0,0,1-1.62.6,2.5,2.5,0,0,1-2-.92,3.64,3.64,0,0,1,0-4.32,2.49,2.49,0,0,1,2-.91,2.44,2.44,0,0,1,1.59.5,2.15,2.15,0,0,1,.77,1.49" transform="translate(-349.28 -72.64)"/><path class="cls-6" d="M538.92,121.83h-.71a1.55,1.55,0,0,0-1.64-1.39,1.76,1.76,0,0,0-1.52.77,3.11,3.11,0,0,0,0,3.41,1.79,1.79,0,0,0,1.52.77,1.55,1.55,0,0,0,1.14-.47,1.85,1.85,0,0,0,.55-1.19H539a2.79,2.79,0,0,1-.79,1.66,2.28,2.28,0,0,1-1.61.6,2.5,2.5,0,0,1-2-.92,3.64,3.64,0,0,1,0-4.32,2.76,2.76,0,0,1,3.63-.41,2.14,2.14,0,0,1,.76,1.49" transform="translate(-349.28 -72.64)"/><path class="cls-6" d="M540.38,122.51h3.75a2.32,2.32,0,0,0-.5-1.44,1.66,1.66,0,0,0-1.34-.63,1.68,1.68,0,0,0-1.35.64,2.59,2.59,0,0,0-.56,1.43m4.47.6h-4.47a2.71,2.71,0,0,0,.45,1.53,1.72,1.72,0,0,0,1.47.75,1.75,1.75,0,0,0,1.83-1.48h.72a2.62,2.62,0,0,1-4.56,1.16,3.41,3.41,0,0,1-.63-2.15,3.5,3.5,0,0,1,.62-2.12,2.37,2.37,0,0,1,2-1,2.26,2.26,0,0,1,2,1A3.69,3.69,0,0,1,544.85,123.11Z" transform="translate(-349.28 -72.64)"/><path class="cls-6" d="M550,121.71h-.71a1.23,1.23,0,0,0-.48-1,1.69,1.69,0,0,0-1-.3,1.87,1.87,0,0,0-.92.21.87.87,0,0,0-.45.79c0,.47.41.8,1.21,1l.94.21c1.11.25,1.66.79,1.66,1.61a1.48,1.48,0,0,1-.76,1.34,2.91,2.91,0,0,1-1.57.41,2.08,2.08,0,0,1-2.4-2h.72a1.43,1.43,0,0,0,.51,1.07,1.85,1.85,0,0,0,1.2.38,2.08,2.08,0,0,0,1-.25.93.93,0,0,0,.54-.85c0-.52-.43-.87-1.27-1.06l-.92-.2a2.82,2.82,0,0,1-1.15-.49,1.3,1.3,0,0,1-.47-1.06,1.4,1.4,0,0,1,.71-1.27,2.77,2.77,0,0,1,1.49-.37,2.28,2.28,0,0,1,1.48.46,1.78,1.78,0,0,1,.64,1.41" transform="translate(-349.28 -72.64)"/><path class="cls-6" d="M555.41,121.71h-.72a1.22,1.22,0,0,0-.47-1,1.72,1.72,0,0,0-1.05-.3,1.8,1.8,0,0,0-.91.21.87.87,0,0,0-.45.79c0,.47.4.8,1.2,1l1,.21c1.1.25,1.65.79,1.65,1.61a1.49,1.49,0,0,1-.75,1.34,3,3,0,0,1-1.58.41,2.08,2.08,0,0,1-2.4-2h.72a1.46,1.46,0,0,0,.51,1.07,1.87,1.87,0,0,0,1.2.38,2.05,2.05,0,0,0,1-.25.93.93,0,0,0,.54-.85c0-.52-.42-.87-1.27-1.06l-.91-.2a2.81,2.81,0,0,1-1.16-.49,1.29,1.29,0,0,1-.46-1.06,1.4,1.4,0,0,1,.71-1.27,2.73,2.73,0,0,1,1.48-.37,2.31,2.31,0,0,1,1.49.46,1.81,1.81,0,0,1,.64,1.41" transform="translate(-349.28 -72.64)"/><path class="cls-6" d="M555.7,94.59V91h-1.29v-.74h3.45V91h-1.28v3.61Z" transform="translate(-349.28 -72.64)"/><path class="cls-6" d="M558.41,94.59V90.24h1.31l.79,3,.78-3h1.31v4.35h-.81V91.17l-.86,3.42h-.85l-.85-3.42v3.42Z" transform="translate(-349.28 -72.64)"/><path class="cls-6" d="M352,137.24a10.47,10.47,0,0,1,.52-3.36,8.58,8.58,0,0,1,1.51-2.74h1.39a9.56,9.56,0,0,0-1.44,2.85,10.8,10.8,0,0,0-.5,3.24,10.38,10.38,0,0,0,.5,3.19,9.55,9.55,0,0,0,1.43,2.81H354a8.15,8.15,0,0,1-1.51-2.69A10.1,10.1,0,0,1,352,137.24Z" transform="translate(-349.28 -72.64)"/><path class="cls-6" d="M363.24,141l-1-2.74h-3.78l-1,2.74h-1.71l3.71-9.93h1.75L365,141Zm-1.42-4.14-.93-2.69-.27-.85c-.12-.39-.21-.68-.25-.85a14.32,14.32,0,0,1-.54,1.82l-.89,2.57Z" transform="translate(-349.28 -72.64)"/><path class="cls-6" d="M379.63,141v-9.89h1.62V141Z" transform="translate(-349.28 -72.64)"/><path class="cls-6" d="M383.86,141v-9.89h1.62V141Z" transform="translate(-349.28 -72.64)"/><path class="cls-6" d="M391.5,141h-1.61v-8.5H387v-1.39h7.43v1.39H391.5Z" transform="translate(-349.28 -72.64)"/><path class="cls-6" d="M399.92,131.14,396.23,141h-1.5l3.69-9.89Z" transform="translate(-349.28 -72.64)"/><path class="cls-6" d="M401.34,141v-9.89H403V141Z" transform="translate(-349.28 -72.64)"/><path class="cls-6" d="M405.56,141v-9.89h1.62V141Z" transform="translate(-349.28 -72.64)"/><path class="cls-6" d="M414.07,141l-2.87-8.26h-.05c.07,1.23.11,2.38.11,3.45V141h-1.47v-9.89h2.28l2.75,7.87h0l2.83-7.87H420V141h-1.56v-4.89c0-.49,0-1.13,0-1.92s0-1.27.06-1.43h0l-3,8.24Z" transform="translate(-349.28 -72.64)"/><path class="cls-6" d="M432.32,141l-1-2.74h-3.78l-1,2.74h-1.7l3.7-9.93h1.76L434,141Zm-1.42-4.14L430,134.2c-.07-.18-.16-.47-.28-.85s-.21-.68-.25-.85a14.32,14.32,0,0,1-.54,1.82l-.89,2.57Z" transform="translate(-349.28 -72.64)"/><path class="cls-6" d="M435.34,141v-9.89H437v8.51h4.19V141Z" transform="translate(-349.28 -72.64)"/><path class="cls-6" d="M450.61,131.14v6.4a3.85,3.85,0,0,1-.47,1.92,3.21,3.21,0,0,1-1.36,1.27,4.82,4.82,0,0,1-2.13.44,3.93,3.93,0,0,1-2.86-1,3.52,3.52,0,0,1-1-2.67v-6.38h1.63v6.26a2.5,2.5,0,0,0,.57,1.81,2.37,2.37,0,0,0,1.74.58c1.53,0,2.29-.8,2.29-2.4v-6.25Z" transform="translate(-349.28 -72.64)"/><path class="cls-6" d="M457.41,141l-2.86-8.26h-.06q.12,1.84.12,3.45V141h-1.47v-9.89h2.28l2.75,7.87h0l2.83-7.87h2.28V141h-1.55v-4.89q0-.73,0-1.92c0-.79.05-1.27.07-1.43h-.06l-3,8.24Z" transform="translate(-349.28 -72.64)"/><path class="cls-6" d="M474.17,141h-2l-4.87-7.88h-.05l0,.44c.06.84.1,1.61.1,2.3V141h-1.47v-9.89h2l4.85,7.85h0c0-.11,0-.49,0-1.14s0-1.16,0-1.52v-5.19h1.48Z" transform="translate(-349.28 -72.64)"/><path class="cls-6" d="M476.78,141v-9.89h1.62V141Z" transform="translate(-349.28 -72.64)"/><path class="cls-6" d="M484.61,141v-9.89h1.62V141Z" transform="translate(-349.28 -72.64)"/><path class="cls-6" d="M497.08,141h-2l-4.87-7.88h-.05l0,.44c.06.84.1,1.61.1,2.3V141h-1.47v-9.89h2l4.85,7.85h0c0-.11,0-.49-.05-1.14s0-1.16,0-1.52v-5.19h1.48Z" transform="translate(-349.28 -72.64)"/><path class="cls-6" d="M499.69,141v-9.89h1.62V141Z" transform="translate(-349.28 -72.64)"/><path class="cls-6" d="M507.34,141h-1.62v-8.5h-2.91v-1.39h7.43v1.39h-2.9Z" transform="translate(-349.28 -72.64)"/><path class="cls-6" d="M511.76,141v-9.89h1.62V141Z" transform="translate(-349.28 -72.64)"/><path class="cls-6" d="M522.13,141l-1-2.74h-3.78l-1,2.74h-1.71l3.71-9.93h1.75l3.71,9.93Zm-1.42-4.14-.92-2.69c-.07-.18-.17-.47-.29-.85s-.2-.68-.24-.85a14.32,14.32,0,0,1-.54,1.82l-.89,2.57Z" transform="translate(-349.28 -72.64)"/><path class="cls-6" d="M528.57,141H527v-8.5H524v-1.39h7.44v1.39h-2.91Z" transform="translate(-349.28 -72.64)"/><path class="cls-6" d="M533,141v-9.89h1.61V141Z" transform="translate(-349.28 -72.64)"/><path class="cls-6" d="M542.86,131.14h1.68L541.07,141h-1.7l-3.45-9.89h1.66l2.07,6.15c.1.3.22.67.34,1.14s.2.8.24,1c.06-.34.15-.74.27-1.19s.22-.79.3-1Z" transform="translate(-349.28 -72.64)"/><path class="cls-6" d="M551.44,141h-5.6v-9.89h5.6v1.37h-4v2.69h3.73v1.35h-3.73v3.11h4Z" transform="translate(-349.28 -72.64)"/><path class="cls-6" d="M556.11,137.24a10.12,10.12,0,0,1-.52,3.31,7.93,7.93,0,0,1-1.52,2.68H552.7a9.81,9.81,0,0,0,1.43-2.81,10.38,10.38,0,0,0,.5-3.19,10.75,10.75,0,0,0-.5-3.24,10.06,10.06,0,0,0-1.44-2.85h1.38a8.28,8.28,0,0,1,1.52,2.75A10.49,10.49,0,0,1,556.11,137.24Z" transform="translate(-349.28 -72.64)"/><path class="cls-6" d="M374.46,141h-2l-4.87-7.88h-.05l0,.44c.06.84.1,1.61.1,2.3V141h-1.47v-9.89h2L373,139h0c0-.11,0-.49-.05-1.14s0-1.16,0-1.52v-5.19h1.48Z" transform="translate(-349.28 -72.64)"/></g></svg>