<?xml version="1.0" encoding="utf-8"?>
<!-- Generator: Adobe Illustrator 19.0.0, SVG Export Plug-In . SVG Version: 6.00 Build 0)  -->
<svg version="1.1" id="Layer_1" xmlns="http://www.w3.org/2000/svg" xmlns:xlink="http://www.w3.org/1999/xlink" x="0px" y="0px"
	 viewBox="0 0 500 150" style="enable-background:new 0 0 500 150;" xml:space="preserve">
<style type="text/css">
	.st0{fill:#93C03E;}
	.st1{fill:#11549C;}
	.st2{fill:#1F1D1B;}
	.st3{fill:#11549D;}
	.st4{fill:#1F1E1B;}
	.st5{fill:#1F1D1A;}
	.st6{fill:#201E1B;}
	.st7{fill:#211F1C;}
	.st8{fill:#201E1C;}
	.st9{fill:#23211E;}
	.st10{fill:#2B2825;}
	.st11{fill:#24221F;}
	.st12{fill:#B8D281;}
	.st13{fill:#B5D07B;}
	.st14{fill:#B2CF76;}
	.st15{fill:#EAF1DB;}
	.st16{fill:#C9DC9E;}
	.st17{fill:#A3C759;}
	.st18{fill:#CADC9F;}
	.st19{fill:#CEDFA7;}
	.st20{fill:#C1D790;}
	.st21{fill:#BCD588;}
	.st22{fill:#f4f4f5;}
	.st23{fill:#f4f4f5;}
</style>
<g id="XMLID_1_">
	<path id="XMLID_244_" class="st0" d="M213.9,85.3c-1.7-1.1-2.8-2.7-3.6-4.5c-1.1-2.3-2.4-4.5-3.1-7c0-0.1-0.1-0.1-0.1-0.2
		c-0.1-0.3-0.2-0.7-0.6-0.7c-0.4,0.1-0.2,0.5-0.2,0.8c0,2-0.2,3.9,0.1,5.9c0.6,3.8,2.1,7.2,4.2,10.3c0.1,0.2,0.3,0.4,0.4,0.6
		c0,0,0,0,0,0.1c-2.1-1.2-4-4.8-4.8-9.2c-0.4,2-0.5,3.9,0,5.8c0.7,2.5,1.5,4.9,2.4,7.3c0.1,0.3,0.3,0.5,0.2,0.9
		c-2.2-2.2-2.8-5.1-3.6-7.9c0.1,3.3-1.1,6.3-1.8,9.4c-0.1,0.5-0.3,1-0.4,1.5c-0.1,0-0.2,0-0.1-0.2c0.3-2.4,0.7-4.8,0.8-7.2
		c0.2-3.1,1-6.1,1.3-9.2c0.2-2.1,0.3-4.3,0.4-6.4c-0.1-0.1-0.1,0-0.2,0.1c-1.1,2.5-2.6,4.8-4.1,7c-1.6,2.4-2.6,5.1-3.7,7.7
		c-0.1,0.3-0.3,0.7-0.4,1c-0.1,0-0.2,0-0.1-0.1c0.6-2,1.2-4.1,1.8-6.1c-2,1.9-3.7,4-6.2,5.4c-0.2,0-0.2,0-0.2-0.2
		c2.5-2.7,4.9-5.6,7.2-8.6c2.1-2.7,3.8-5.5,5.3-8.5c0.1-0.3,0.3-0.5,0.3-0.8c0.1-0.2,0.2-0.4-0.1-0.5c-0.2-0.1-0.4,0-0.5,0.1
		c-0.1,0.1-0.2,0.3-0.3,0.4c-1.3,1.7-2.6,3.4-3.9,5.2c-1.2,1.6-2.7,2.4-4.7,2.6c-2.3,0.2-4.6,0.8-6.4,2.6l0,0
		c1.2-2.3,3.1-3.5,5.6-3.8c1.1-0.1,2.2-0.4,3.2-0.8c0.4-0.1,0.7-0.5,0.9-0.9c0.3-0.5,0.4-1.1,0.4-1.8c-1,0.4-1.9,0.8-2.8,1.1
		c-3.6,1.3-7.3,1.9-11.1,1.1c-3.5-0.7-6.4-2.4-8.3-5.4c-3.9-5.9-3.4-14.1,2.8-18.7c2.6-1.9,5.5-3.5,8.7-4.1c5.1-1,9.5,0.5,13.5,3.8
		c1.3,1.1,2.4,2.2,3.3,3.7c0.6,1,0.9,2.2,0.5,3.4c-0.2,0.5-0.4,0.9-0.8,1.2c-0.2-0.1-0.2-0.2-0.2-0.3c-0.9-2.7-2.9-3.9-5.5-4.5
		c-2.9-0.6-5.8,0-8.5,0.9c-1.4,0.5-2.8,1.1-4.1,1.9c1.2-0.2,2.3-0.5,3.5-0.7c5.5-0.7,10.6,0.3,15,3.8c0.4,0.3,0.6,0.2,0.9-0.1
		c0.7-0.9,1.1-1.9,1.4-3c1.9-6.2,1.2-12.2-2-17.9c-2.4-4.1-5.5-7.6-9.2-10.4c-3.5-2.7-7.5-3.7-11.8-3c0,0.2,0,0.2,0.6,0.2
		c4.7,0.4,8.7,2.2,11.5,6.2c1,1.4,0.9,1-0.1,2.3c-2.6,3.3-6.1,4.1-10.1,2.5c-1.9-0.8-3.5-1.8-4.9-3.4c-1.4-1.6-3.1-2.9-4.7-4.2
		c-0.4-0.3-0.5-0.5-0.1-1c1.5-1.8,3.3-3.3,5.3-4.5c3.1-1.7,6.2-1.9,9.5-0.5c2.1,0.9,4,2.1,5.7,3.6c0.2-0.3-0.1-0.5-0.1-0.7
		c-1.7-4.7-2.3-9.4-1.6-14.3c0.4-2.2,1.3-4.2,2.4-6.1c0.7-1.2,1.6-2.4,2.1-3.8c0.6-1.6,0.7-3.2,0.5-4.9c0.3-0.1,0.3,0.1,0.4,0.2
		c2.7,3.2,3.8,7,3.5,11.2c-0.3,4.3-1.7,8.1-3.9,11.8c-1.4,2.4-1.5,5-1.2,7.6c0,0.3,0.3,0.5,0.4,0.6c3,3,5.6,6.3,8,9.8
		c4.2,6.3,4.9,13.1,2.7,20.3c-0.7,2.2-1.5,4.3-2.6,6.3c-0.7,1.3-0.5,2.3,0.3,3.4c1.5,2.1,3.6,3.2,6.1,3.5c1.4,0.2,2.7,0.1,4.1,0.4
		c2,0.6,3.7,1.5,4.8,3.2c-0.1,0.1-0.1,0.1-0.2,0c-1.8-1.7-4-2.4-6.4-2.5c-1.3-0.1-2.5-0.1-3.8-0.1c-1.7,0-2.9-0.8-3.9-2
		c-0.4-0.5-0.7-1-1.2-1.4c-0.2,0.4-0.1,0.7,0,1c0.9,3.3,2.4,6.2,4.2,9c0.6,1,1.5,1.8,2.1,2.8C214.1,85.3,214.1,85.4,213.9,85.3z"/>
	<path id="XMLID_243_" class="st1" d="M270.2,48c1.3-2.2,2.8-3.9,5.3-4.6c0.5-0.1,1-0.3,1.4-0.3c3.2-0.2,6.3-0.3,9.5,0.4
		c3.2,0.7,5.2,2.7,6.2,5.7c0,0.1,0.1,0.3,0.1,0.4c0,0,0,0.1,0.1,0.2c0.1-0.3,0.2-0.6,0.3-0.9c1.1-3.2,3.2-5.2,6.6-5.7
		c3.3-0.5,6.7-0.5,10,0.2c4.2,0.8,6.4,3.5,7.3,7.5c0.4,2,0.6,4,0.6,6.1c0,7.5,0,15,0,22.5c0,0.6-0.2,0.7-0.7,0.7c-2.3,0-4.5,0-6.8,0
		c-0.7,0-0.9-0.1-0.9-0.8c0-7,0-14.1,0-21.1c0-1.4,0-2.8-0.4-4.2c-0.4-1.8-1.5-2.9-3.4-3c-2.9-0.1-5.8-0.2-8.7,0.1
		c-1.9,0.2-3,1.4-3.1,3.3c-0.1,0.6-0.1,1.2-0.1,1.8c0,7.7,0,15.5,0,23.2c0,0.6-0.1,0.8-0.8,0.8c-2.2,0-4.5,0-6.7,0
		c-0.6,0-0.7-0.2-0.7-0.8c0-7.8,0-15.6,0-23.4c0-0.5,0-0.9-0.1-1.4c-0.3-2.4-1.4-3.5-3.8-3.6c-2.5-0.1-5-0.1-7.4,0
		c-2.1,0.1-3.7,1.9-3.7,4c0,8.1,0,16.2,0,24.3c0,0.7-0.2,0.9-0.8,0.8c-2.3,0-4.5,0-6.8,0c-0.5,0-0.7-0.1-0.7-0.6c0-12,0-24,0-35.9
		c0-0.5,0.1-0.6,0.6-0.6c2.3,0,4.5,0,6.8,0c0.5,0,0.6,0.2,0.6,0.6C270.2,45.1,270.2,46.6,270.2,48z"/>
	<path id="XMLID_242_" class="st1" d="M86,52.6c-0.5,1.9-1.1,3.8-1.6,5.6c-2,7.1-4,14.2-5.9,21.3c-0.1,0.5-0.3,0.6-0.9,0.6
		c-3,0-6,0-9,0c-0.4,0-0.6-0.1-0.8-0.5c-3.7-12-7.4-24.1-11.2-36.1c0-0.2-0.1-0.3-0.1-0.5c3.1,0,6.1,0,9.1,0c0.4,0,0.4,0.3,0.5,0.6
		c1,3.6,1.9,7.2,2.9,10.8c1.5,5.7,3.1,11.4,4.6,17.2c0.3-0.1,0.3-0.5,0.3-0.7c2.5-9,5-17.9,7.4-26.9c0.2-0.8,0.5-1,1.3-1
		c2.3,0.1,4.5,0.1,6.8,0c0.8,0,1,0.3,1.2,1c2.5,9.2,5.1,18.3,7.7,27.5c0,0,0,0.1,0.1,0.2c0.3-0.5,0.4-1,0.5-1.5
		c2.4-8.8,4.7-17.6,7.1-26.4c0.1-0.5,0.3-0.7,0.8-0.7c2.7,0,5.3,0,8,0c0.6,0,0.6,0.2,0.5,0.7c-3.8,12-7.5,23.9-11.2,35.9
		c-0.1,0.5-0.3,0.6-0.8,0.6c-2.9,0-5.8,0-8.7,0c-0.6,0-0.8-0.1-0.9-0.7c-2.5-9-5-17.9-7.5-26.9C86.1,52.6,86,52.6,86,52.6z"/>
	<path id="XMLID_241_" class="st0" d="M369.1,61.3c0.6-1,1.2-1.9,2-2.7c1.4-1.4,3.1-2.1,5-2.1c5-0.1,10,0,15,0
		c1.4,0,2.8,0.3,4.1,0.8c2.9,1.1,4.9,3.1,5.4,6.2c0.5,3.5,0.6,7-0.3,10.5c-0.9,3.5-3.3,5.3-6.7,6c-1.3,0.3-2.6,0.3-4,0.3
		c-5.6,0-11.2,0-16.9-0.1c-1.8,0-3.6-0.5-5.2-1.3c-3.2-1.6-4.6-4.3-5.2-7.7c-0.2-1.5-0.3-3-0.3-4.5c0-3.8,0-7.7,0-11.5
		c0-2.3,0.2-4.5,0.9-6.7c1.3-4,4.1-6,8.2-6.5c1.3-0.2,2.6-0.2,4-0.2c7.3,0,14.6,0,22,0c0.6,0,0.8,0.1,0.8,0.8c-0.1,2,0,4.1,0,6.1
		c0,0.6-0.2,0.7-0.7,0.7c-6.8,0-13.7,0-20.5,0c-1.1,0-2.3,0-3.4,0.2c-2.4,0.4-3.8,1.9-4.1,4.3c0,0.5-0.1,0.9-0.1,1.4
		C369.1,57.3,369.1,59.3,369.1,61.3z"/>
	<path id="XMLID_240_" class="st1" d="M238.8,43c2.4,0.1,5.3-0.2,8.2,0.2c1.3,0.2,2.7,0.4,3.9,0.9c3.6,1.4,5.2,4.2,5.9,7.8
		c0.2,1,0.3,2.1,0.3,3.1c0,4.5,0,9,0,13.6c0,1.4-0.2,2.8-0.6,4.1c-1.1,4-3.7,6.2-7.7,7c-1.4,0.3-2.8,0.5-4.2,0.5
		c-4.3,0-8.6,0-12.9,0c-1.6,0-3.2-0.2-4.8-0.6c-4-1-6.3-3.7-7.1-7.7c-0.3-1.3-0.4-2.7-0.4-4.1c0-4.1,0-8.2,0-12.3
		c0-1.5,0.2-3,0.6-4.5c1-4.2,3.6-6.5,7.7-7.4c1.6-0.3,3.2-0.5,4.8-0.5C234.4,43,236.4,43,238.8,43z"/>
	<path id="XMLID_239_" class="st1" d="M148.3,80.2c-4.5,0-9,0-13.6,0c-0.6,0-0.7-0.1-0.6-0.7c0.4-2.1,0.7-4.2,0.9-6.3
		c0.1-0.7,0.3-1,1.1-1c7.5,0,15,0,22.5,0c3,0,3.9-0.8,3.9-3.8c0-0.5,0-1.1-0.1-1.6c-0.3-1.6-1.1-2.3-2.6-2.4c-0.8-0.1-1.7,0-2.5,0
		c-4.4-0.1-8.8,0.1-13.3-0.1c-1.3-0.1-2.6-0.3-3.8-0.7c-3-0.8-4.8-2.8-5.1-5.8c-0.3-2.7-0.4-5.4,0-8.1c0.5-3.5,2.3-5.3,5.8-6
		c1.8-0.4,3.6-0.5,5.4-0.6c7.8,0,15.6,0,23.4,0c0.5,0,0.7,0.1,0.6,0.6c-0.4,2.2-0.7,4.4-1,6.5c-0.1,0.7-0.4,0.9-1,0.8
		c-1.4-0.1-2.9,0-4.3,0c-5.4,0-10.7,0-16.1,0c-0.7,0-1.4,0-2,0.2c-1,0.3-1.6,0.9-1.8,1.9c-0.2,1.1-0.2,2.3,0,3.4
		c0.2,1.1,0.9,1.8,2,2c0.5,0.1,1.1,0.1,1.6,0.1c4.2,0,8.5,0,12.7,0c1.9,0,3.9,0.2,5.7,0.7c3,0.9,4.8,2.8,5.2,5.9
		c0.3,2.7,0.4,5.5,0,8.2c-0.5,3.5-2.5,5.4-6,6.1c-1.8,0.3-3.6,0.5-5.3,0.5C156,80.2,152.2,80.2,148.3,80.2
		C148.3,80.2,148.3,80.2,148.3,80.2z"/>
	<path id="XMLID_238_" class="st0" d="M423.3,41.8c3.2,0,6.4,0,9.6,0c1.1,0,2.1,0.1,3.1,0.3c3.4,0.6,5.4,2.7,6.2,6.1
		c0.4,1.8,0.6,3.5,0.6,5.3c0,4.9,0,9.9,0,14.8c0,1.8-0.2,3.5-0.6,5.3c-0.8,3.6-2.9,5.6-6.5,6.2c-1.2,0.2-2.4,0.3-3.6,0.3
		c-5.8,0-11.7,0-17.5,0c-1.3,0-2.6-0.1-3.9-0.4c-3.7-0.7-5.7-2.8-6.3-6.6c-0.3-1.6-0.4-3.3-0.4-4.9c0-4.9,0-9.7,0-14.6
		c0-1.6,0.1-3.2,0.4-4.8c0.7-4.3,3.2-6.5,7.5-6.9c0.5,0,0.9-0.1,1.4-0.1C416.6,41.8,419.9,41.8,423.3,41.8
		C423.3,41.8,423.3,41.8,423.3,41.8z"/>
	<path id="XMLID_237_" class="st0" d="M345.4,49.5c-0.5,0-0.7,0-1,0c-6,0-12,0-18,0c-0.6,0-0.8-0.1-0.8-0.8c0-2.1,0-4.2,0-6.3
		c0-0.5,0.1-0.6,0.6-0.6c10,0,19.9,0,29.9,0c0.5,0,0.7,0.2,0.7,0.7c0,1.9,0,3.7,0,5.6c0,0.5-0.1,0.8-0.5,1.1
		c-3.3,2.7-6.6,5.5-9.9,8.2c-0.2,0.2-0.5,0.4-0.7,0.6c0,0.1,0,0.2,0,0.2c1.3,0,2.6,0,3.9,0c1.4,0,2.8,0.2,4.1,0.7
		c2.9,1,4.7,2.9,5.2,5.9c0.4,3,0.4,6-0.3,8.9c-0.9,3.6-3.4,5.4-6.9,6.1c-1.3,0.3-2.6,0.3-3.9,0.3c-7.6,0-15.2,0-22.8,0
		c-0.6,0-0.8-0.1-0.8-0.8c0-2,0-4.1,0-6.1c0-0.6,0.2-0.7,0.7-0.7c7.5,0,14.9,0,22.4,0c3.3,0,4.3-1,4.3-4.3c0-0.5,0-0.9-0.1-1.4
		c-0.3-1.9-1.4-2.9-3.3-3c-1.8,0-3.5,0-5.3,0c-2.7,0-5.5,0-8.2,0c-0.6,0-0.7-0.2-0.7-0.7c0-1.1,0-2.3,0-3.4c0-0.5,0.2-0.8,0.5-1.1
		c3.2-2.8,6.4-5.5,9.6-8.3C344.6,50.1,344.9,49.9,345.4,49.5z"/>
	<path id="XMLID_236_" class="st1" d="M121.4,61.6c0-6,0-11.9,0-17.9c0-0.6,0.2-0.7,0.7-0.7c2.4,0,4.8,0,7.2,0
		c0.5,0,0.6,0.1,0.6,0.6c0,12,0,24,0,35.9c0,0.5-0.2,0.6-0.7,0.6c-2.4,0-4.8,0-7.2,0c-0.6,0-0.7-0.2-0.7-0.7
		C121.4,73.5,121.4,67.6,121.4,61.6z"/>
	<path id="XMLID_235_" class="st0" d="M215.7,23.3c-1.5,0.2-2.7,0.8-3.7,1.7c-2.2,1.9-3.5,4.4-4.7,7c-0.3,0.7-0.6,1.4-0.9,2.2
		c-0.6-1.9-0.7-3.6-0.2-5.4c1.3-4.5,4.5-7.2,8.9-8.5c3.3-1,6.5-0.7,9.5,1c0.5,0.3,0.6,0.6,0.3,1.1c-1.5,3.6-3.2,7-4.9,10.5
		c-1.4,2.9-4,4.4-7.4,4.2c-1.2-0.1-2.3-0.2-3.5-0.5c-0.5-0.1-0.6-0.3-0.6-0.8c0.2-3.8,1.7-7.1,4.2-9.9
		C213.6,25,214.5,24.2,215.7,23.3z"/>
	<path id="XMLID_234_" class="st2" d="M190.1,131.8c0,3.6,0,7.1,0,10.6c0,0.7-0.2,0.8-0.8,0.7c-0.5-0.1-1,0.2-1-0.7
		c0-4.2,0-8.4,0-12.6c0-0.5,0.1-0.7,0.6-0.7c1.9,0,1.9,0,2.6,1.8c1.1,3.1,2.3,6.1,3.4,9.2c0.1,0.2,0.1,0.4,0.3,0.6
		c1.1-2.9,2.1-5.7,3.2-8.5c0.3-0.9,0.6-1.7,1-2.6c0.1-0.2,0-0.4,0.3-0.5c0.7,0,1.5,0,2.2,0c0.3,0,0.2,0.4,0.2,0.6
		c0,3.6,0,7.2,0,10.8c0,0.4,0,0.8,0,1.3c0,1.2,0,1.2-1.2,1.2c-0.5,0-0.6-0.2-0.6-0.6c0-3.3,0-6.6,0-9.9c0-0.2,0-0.5,0-0.7
		c0,0-0.1,0-0.1,0c-0.5,1.4-1,2.7-1.5,4.1c-0.8,2.2-1.7,4.4-2.4,6.7c-0.2,0.6-0.6,0.6-1.1,0.6c-0.5,0-0.8-0.1-1-0.6
		c-1.2-3.3-2.4-6.6-3.6-9.9C190.4,132.3,190.4,132.1,190.1,131.8z"/>
	<path id="XMLID_233_" class="st2" d="M248.8,131.9c0,3.5,0,7,0,10.5c0,0.8-0.3,0.8-0.9,0.7c-0.5,0-1,0.2-1-0.7
		c0.1-4.2,0-8.3,0-12.5c0-0.6,0.2-0.7,0.7-0.7c1.8,0,1.8,0,2.4,1.7c1.1,3,2.2,6.1,3.4,9.1c0.1,0.2,0.1,0.5,0.4,0.7
		c0.9-2.3,1.7-4.7,2.6-7c0.5-1.4,1-2.7,1.5-4.1c0.1-0.3,0.3-0.5,0.7-0.5c2,0,2-0.1,2,2c0,3.8,0,7.5,0,11.3c0,0.9-0.5,0.7-1,0.7
		c-0.5,0-0.8,0-0.8-0.7c0-3.5,0-7,0-10.5c-0.3,0.1-0.3,0.4-0.4,0.6c-1.2,3.3-2.5,6.7-3.7,10c-0.2,0.5-0.5,0.6-0.9,0.6
		c-0.4,0-0.9,0.1-1.1-0.5c-1.3-3.6-2.6-7.1-3.9-10.7C248.9,131.9,248.9,131.9,248.8,131.9z"/>
	<path id="XMLID_232_" class="st3" d="M121.4,34.8c0-1.4,0-2.9,0-4.3c0-0.5,0.1-0.6,0.6-0.6c2.5,0,5,0,7.4,0c0.5,0,0.6,0.1,0.6,0.6
		c0,2.9,0,5.8,0,8.7c0,0.5-0.1,0.6-0.6,0.6c-2.5,0-4.9,0-7.4,0c-0.5,0-0.6-0.2-0.6-0.6C121.4,37.7,121.4,36.2,121.4,34.8z"/>
	<path id="XMLID_231_" class="st4" d="M272.9,140.3c0-0.3,0-0.5,0-0.7c0-3.2,0-6.5,0-9.7c0-0.6,0.1-0.8,0.7-0.7c0.1,0,0.3,0,0.4,0
		c0.5-0.1,0.7,0.1,0.6,0.7c0,4.2,0,8.4,0,12.6c0,0,0,0.1,0,0.1c0.1,0.4-0.1,0.5-0.5,0.6c-1,0.1-1.7-0.2-2.3-1.2
		c-1.9-3.1-3.9-6.1-5.8-9.2c-0.1-0.2-0.3-0.4-0.5-0.8c0,0.4,0,0.7,0,0.9c0,3.1,0,6.3,0,9.4c0,0.6-0.1,0.8-0.7,0.7c-1-0.1-1,0-1-1
		c0-4.1,0-8.1,0-12.2c0-0.5,0.1-0.7,0.7-0.7c0.9-0.1,1.5,0.3,2,1.1c1.9,3.2,4,6.3,6,9.4C272.4,139.9,272.5,140.1,272.9,140.3z"/>
	<path id="XMLID_230_" class="st4" d="M133.8,131.9c0,3.6,0,7,0,10.4c0,0.5-0.1,0.8-0.7,0.7c-1.3-0.1-1.1,0.1-1.1-1
		c0-4.1,0-8.2,0-12.2c0-0.6,0.2-0.7,0.7-0.7c0.9-0.1,1.5,0.2,2,1.1c1.9,3.2,4,6.3,6,9.4c0.1,0.2,0.2,0.4,0.4,0.6
		c0.2-0.3,0.1-0.6,0.1-0.8c0-3.2,0-6.3,0-9.5c0-0.6,0.2-0.8,0.8-0.8c1,0,1,0,1,1c0,4.1,0,8.2,0,12.2c0,0.6-0.2,0.7-0.7,0.7
		c-0.9,0.1-1.5-0.2-2-1.1c-1.9-3.2-4-6.3-5.9-9.4C134.2,132.5,134,132.3,133.8,131.9z"/>
	<path id="XMLID_229_" class="st2" d="M301.9,140.2c0-3.4,0-6.9,0-10.3c0-0.2-0.2-0.7,0.2-0.7c0.5-0.1,1-0.1,1.4,0.1
		c0.1,0,0.1,0.3,0.1,0.4c0,4.3,0,8.6,0,13c0,0.4-0.1,0.6-0.5,0.5c0,0,0,0-0.1,0c-1,0.2-1.7-0.2-2.2-1.1c-1.9-3.1-3.9-6.2-5.9-9.2
		c-0.1-0.2-0.3-0.4-0.4-0.6c-0.2,0.2-0.1,0.5-0.1,0.7c0,3.1,0,6.3,0,9.4c0,0.8-0.2,1-0.9,1c-0.7,0-0.9-0.2-0.8-0.9
		c0.1-1.1,0-2.2,0-3.2c0-3,0-6.1,0-9.1c0-0.6,0.1-0.7,0.7-0.8c1-0.1,1.5,0.3,2,1.1c2,3.2,4,6.4,6.1,9.6c0.1,0.2,0.2,0.3,0.3,0.5
		C301.8,140.3,301.8,140.2,301.9,140.2z"/>
	<path id="XMLID_228_" class="st4" d="M365.6,136.1c0-2.1,0-4.2,0-6.3c0-0.5,0.1-0.6,0.6-0.6c2.7,0,5.5,0,8.2,0
		c0.8,0,0.6,0.4,0.6,0.8c0,0.5,0,0.8-0.7,0.8c-2.1-0.1-4.2,0-6.3,0c-0.6,0-0.7,0.2-0.7,0.7c0,1,0,2.1,0,3.1c0,0.6,0.2,0.6,0.7,0.6
		c1.9,0,3.7,0,5.6,0c0.7,0,0.9,0.2,0.9,0.8c0,0.7-0.2,0.8-0.8,0.8c-1.9,0-3.8,0-5.7,0c-0.5,0-0.6,0.1-0.6,0.6c0,1.2,0,2.5,0,3.7
		c0,0.5,0.1,0.6,0.6,0.6c2.1,0,4.3,0,6.4,0c0.7,0,0.7,0.3,0.7,0.8c0,0.5,0,0.8-0.7,0.8c-2.7,0-5.4,0-8.2,0c-0.5,0-0.7-0.1-0.7-0.7
		C365.6,140.3,365.6,138.2,365.6,136.1z"/>
	<path id="XMLID_227_" class="st5" d="M221.3,143c-0.1,0-0.1,0.1-0.1,0.1c-1.8,0.1-1.8,0.1-2.4-1.6c-0.3-0.7-0.5-1.4-0.8-2.1
		c-0.1-0.4-0.3-0.4-0.6-0.4c-1.6,0-3.2,0-4.9,0c-0.4,0-0.5,0.2-0.6,0.5c-0.4,1-0.8,2-1.1,3c-0.2,0.5-0.4,0.8-1,0.7
		c-0.4,0-0.7,0-1.2,0c0.6-1.6,1.2-3.1,1.8-4.6c1.1-2.9,2.2-5.8,3.3-8.8c0.2-0.5,0.4-0.6,0.9-0.6c1.4,0,1.4,0,1.9,1.3
		C218.1,134.6,219.7,138.8,221.3,143z"/>
	<path id="XMLID_226_" class="st5" d="M129.6,143.1c-0.7,0.2-1-0.2-1.2-0.9c-0.3-0.9-0.6-1.8-1-2.8c-0.1-0.3-0.2-0.6-0.7-0.5
		c-1.6,0-3.1,0-4.7,0c-0.4,0-0.6,0.1-0.7,0.5c-0.3,1-0.8,2-1.1,3c-0.2,0.5-0.4,0.7-0.9,0.7c-1.2,0-1.2,0-0.8-1.2
		c1.5-4,3.1-8.1,4.6-12.1c0.2-0.5,0.5-0.7,1-0.7c1.3,0,1.3,0,1.8,1.2c1.5,3.9,3,7.8,4.5,11.7C130.8,143.1,130.8,143.1,129.6,143.1z"
		/>
	<path id="XMLID_225_" class="st5" d="M338.4,143.1c-0.6,0-1.1,0-1.7,0c-0.4,0-0.4-0.2-0.5-0.5c-0.4-1.1-0.8-2.1-1.1-3.2
		c-0.1-0.4-0.3-0.5-0.7-0.5c-1.6,0-3.1,0-4.7,0c-0.4,0-0.6,0.1-0.7,0.5c-0.3,1-0.8,2-1.1,3c-0.2,0.6-0.5,0.8-1,0.7
		c-0.3,0-0.7,0-1.1,0c0.7-1.8,1.3-3.5,2-5.2c1-2.7,2.1-5.3,3-8c0.2-0.6,0.5-0.7,1.1-0.7c1.3,0,1.3,0,1.7,1.2
		c1.5,4.1,3.1,8.1,4.6,12.2C338.3,142.7,338.3,142.9,338.4,143.1z"/>
	<path id="XMLID_224_" class="st5" d="M233.2,134.3c0-1.5,0-3,0-4.5c0-0.4,0.1-0.6,0.6-0.6c1.2,0,1.2,0,1.2,1.2c0,2.5,0,4.9,0,7.4
		c0,0.6,0,1.1,0.2,1.7c0.4,1.7,2.1,2.7,4.1,2.4c2.1-0.3,3.1-1.5,3.1-3.8c0-2.7,0-5.5,0-8.2c0-0.6,0.2-0.7,0.7-0.7c0.2,0,0.4,0,0.7,0
		c0.4-0.1,0.5,0.1,0.5,0.5c0,2.8,0,5.7,0,8.5c0,3.5-2,5.3-5.5,5.3c-0.6,0-1.3-0.1-1.9-0.2c-2.1-0.5-3.4-2.1-3.5-4.2
		c0-0.2,0-0.4,0-0.7C233.2,137,233.2,135.6,233.2,134.3C233.2,134.3,233.2,134.3,233.2,134.3z"/>
	<path id="XMLID_223_" class="st6" d="M364.7,103.1c0-0.3,0-0.6,0-0.9c0-0.7,0.3-0.9,1-0.7c0.3,0.1,0.2,0.3,0.2,0.5
		c0,3.5,0.1,7.1-0.1,10.6c-0.1,1.6-0.7,3-2.3,3.6c-1.7,0.7-3.4,0.6-5-0.5c-0.5-0.4-0.9-0.8-1-1.4c-0.1-0.3-0.5-0.8,0-0.9
		c0.4-0.1,1-0.3,1.2,0.5c0.2,0.9,0.9,1.3,1.7,1.5c2.5,0.5,4-0.7,4.2-3.3c0-0.6,0-1.2,0-1.8c-0.2-0.1-0.2,0.1-0.2,0.2
		c-1.4,2.6-5.2,2.1-6.5,0.1c-1.3-2-1.3-5.6,0.1-7.5C359.6,100.8,363.1,100.4,364.7,103.1z"/>
	<path id="XMLID_222_" class="st2" d="M378.7,112.6c-1.1,0-2-0.1-2.9-0.5c-1.8-0.8-2.8-2.4-2.7-4.3c0-0.4,0.2-0.5,0.5-0.4
		c0.3,0.1,0.8-0.3,0.8,0.4c0.1,1.6,0.7,2.8,2.3,3.3c1.8,0.6,3.6,0.6,5-0.8c1.2-1.1,1-3-0.4-3.9c-1.1-0.7-2.3-0.8-3.5-1.2
		c-0.5-0.1-1-0.3-1.5-0.4c-1.8-0.6-2.7-1.7-2.8-3.3c-0.1-1.9,0.9-3.5,2.6-4.1c1.5-0.5,3.1-0.5,4.6,0.2c1.5,0.7,2.4,1.8,2.6,3.5
		c0,0.2,0.2,0.7-0.3,0.7c-0.4,0-1,0.3-1.1-0.5c-0.2-1.5-1.1-2.3-2.4-2.7c-0.9-0.3-1.8-0.2-2.8,0c-1.3,0.4-1.9,1.4-1.9,2.7
		c0,1.1,0.6,1.8,1.9,2.2c1.2,0.4,2.5,0.7,3.7,1c1.5,0.4,2.7,1.1,3.2,2.7c0.7,2.6-1,5-3.9,5.3C379.4,112.6,379,112.6,378.7,112.6z"/>
	<path id="XMLID_221_" class="st5" d="M358.3,141.1c0.3-0.2,0.3-0.5,0.3-0.7c1.2-3.5,2.3-7,3.4-10.5c0.1-0.2,0-0.6,0.4-0.7
		c0.5-0.1,1.1-0.1,1.6,0c0.3,0.1,0,0.4-0.1,0.6c-1.1,3.3-2.3,6.6-3.5,10c-0.3,0.9-0.7,1.8-1,2.8c-0.1,0.5-0.4,0.6-0.8,0.6
		c-1.5,0-1.5,0-2-1.4c-1.4-4-2.7-7.9-4.1-11.9c-0.2-0.5-0.2-0.7,0.5-0.7c1.3,0,1.3,0,1.7,1.3C356,134,357.1,137.5,358.3,141.1z"/>
	<path id="XMLID_220_" class="st4" d="M281.9,105.1c0-2.2,0.4-4,1.6-5.6c1.4-1.9,3.4-2.6,5.7-2.3c2.1,0.3,3.6,1.4,4.4,3.4
		c0.1,0.2,0.2,0.3,0.2,0.5c0,0.3,0.5,0.8-0.1,0.9c-0.4,0.1-1,0.3-1.2-0.5c-0.4-1.6-1.5-2.6-3.2-2.9c-1.8-0.3-3.4,0.1-4.5,1.6
		c-2,2.5-2,7.1,0,9.6c1.2,1.5,2.9,2.1,4.7,1.6c1.9-0.5,2.8-2,3.2-3.8c0.1-0.3-0.1-0.8,0.5-0.8c0.9-0.1,1,0,0.8,0.9
		c-0.5,2.9-2.4,4.9-4.9,5.1c-3.4,0.3-6-1.6-6.8-5C282,106.7,281.8,105.8,281.9,105.1z"/>
	<path id="XMLID_219_" class="st6" d="M334.3,110.6c-0.2,0.2-0.3,0.4-0.4,0.6c-1.1,1.5-3.3,2-5,1.1c-1.3-0.7-1.6-1.8-1.5-3.2
		c0.1-1.2,0.8-2,1.9-2.4c1.1-0.4,2.3-0.5,3.5-0.7c0.6-0.1,1.2-0.1,1.4-0.8c0.2-0.8,0.1-1.6-0.5-2.2c-0.9-0.8-3.1-0.8-4,0.1
		c-0.4,0.4-0.6,0.9-0.6,1.5c0,0.3-0.1,0.4-0.5,0.4c-0.8,0-0.9-0.1-0.7-0.8c0.3-1.5,1.5-2.6,3.2-2.8c0.5-0.1,1-0.1,1.5,0
		c1.8,0.2,2.9,1.3,2.9,3.2c0,1.9,0,3.8,0,5.7c0,0.6,0,1.1,0.8,1.1c0.4,0,0.2,0.4,0.2,0.6c0,0.2,0,0.4-0.3,0.5
		C335,112.5,334.6,112.1,334.3,110.6z"/>
	<path id="XMLID_218_" class="st6" d="M424.3,108.8c-0.7,3.4-3.2,4.3-5.8,3.6c-1.5-0.4-2.3-1.5-2.7-2.9c-0.5-1.5-0.5-3.1-0.1-4.6
		c0.6-2.4,2.2-3.7,4.5-3.6c1.9,0,3.5,1.5,4,3.8c0.5,2.2,0.5,2.2-1.8,2.2c-1.7,0-3.4,0-5.2,0c-0.5,0-0.6,0.1-0.5,0.6
		c0.1,0.8,0.3,1.5,0.7,2.2c0.6,1,1.5,1.6,2.7,1.5c1.3-0.1,2.2-0.7,2.7-1.9C423.2,108.7,423.2,108.7,424.3,108.8z"/>
	<path id="XMLID_217_" class="st6" d="M164.1,136.9c0-1.9,0-3.7,0-5.6c0-0.5-0.1-0.6-0.6-0.6c-1.1,0-2.3,0-3.4,0
		c-0.7,0-0.6-0.4-0.6-0.8c0-0.4-0.2-0.8,0.6-0.8c3.3,0,6.6,0,9.9,0c0.7,0,0.6,0.4,0.5,0.8c0,0.4,0.2,0.9-0.5,0.8c-1.1,0-2.3,0-3.4,0
		c-0.5,0-0.7,0.1-0.7,0.6c0,3.6,0,7.3,0,10.9c0,0.7-0.2,0.9-0.8,0.8c-1.1-0.1-1.1,0-1.1-1.1C164.1,140.4,164.1,138.6,164.1,136.9z"
		/>
	<path id="XMLID_216_" class="st5" d="M316.4,136.9c0,1.8,0,3.7,0,5.5c0,0.5-0.1,0.7-0.6,0.7c-1.2,0-1.2,0-1.2-1.2c0-3.5,0-7,0-10.5
		c0-0.6-0.2-0.8-0.8-0.8c-1.1,0.1-2.2,0-3.3,0c-0.4,0-0.5-0.1-0.5-0.5c0-1.1,0-1.1,1.1-1.1c3.1,0,6.1,0,9.2,0c0.8,0,0.6,0.4,0.7,0.9
		c0,0.5,0,0.8-0.7,0.8c-1.1-0.1-2.1,0-3.2,0c-0.6,0-0.7,0.2-0.7,0.7C316.4,133.3,316.4,135.1,316.4,136.9z"/>
	<path id="XMLID_215_" class="st5" d="M341.1,136.9c0-1.9,0-3.7,0-5.6c0-0.5-0.1-0.6-0.6-0.6c-1.2,0-2.3,0-3.5,0
		c-0.7,0-0.6-0.4-0.5-0.8c0-0.3-0.3-0.9,0.5-0.8c3.3,0,6.6,0,9.9,0c0.4,0,0.5,0.1,0.5,0.5c0,1.1,0,1.1-1,1.1c-0.9,0-1.8,0-2.7,0
		c-0.6,0-0.8,0.1-0.8,0.8c0,3.6,0,7.2,0,10.8c0,0.6-0.1,0.9-0.8,0.9c-1-0.1-1,0-1-1.1C341.1,140.3,341.1,138.6,341.1,136.9z"/>
	<path id="XMLID_214_" class="st6" d="M222.6,136.1c0-2.1,0-4.2,0-6.3c0-0.5,0.1-0.7,0.6-0.7c1.3,0,1.3,0,1.3,1.2
		c0,3.5,0,6.9,0,10.4c0,0.6,0.1,0.8,0.8,0.8c1.9,0,3.9,0,5.8,0c0.7,0,0.7,0.3,0.7,0.8c0,0.4,0.1,0.8-0.6,0.8c-2.6,0-5.3,0-7.9,0
		c-0.5,0-0.6-0.2-0.6-0.6C222.6,140.4,222.6,138.2,222.6,136.1z"/>
	<path id="XMLID_213_" class="st6" d="M438.8,112.6c-2.4,0-3.7-1.1-4.1-3.2c0-0.2-0.2-0.6,0.2-0.6c0.3,0,0.9-0.3,1,0.4
		c0.2,2.2,2.9,2.9,4.6,1.9c1.3-0.7,1.3-2.3,0-3.1c-0.7-0.4-1.5-0.5-2.2-0.7c-0.6-0.2-1.1-0.3-1.7-0.5c-1-0.4-1.6-1.2-1.6-2.3
		c-0.1-1.1,0.3-2,1.3-2.6c1.3-0.8,2.8-0.9,4.2-0.3c1.1,0.5,1.7,1.4,1.9,2.6c0,0.2,0.2,0.6-0.3,0.5c-0.3,0-0.9,0.3-0.9-0.3
		c-0.3-2-2.3-2.3-3.7-1.9c-0.7,0.2-1.1,0.7-1.2,1.5c-0.1,0.8,0.4,1.3,1,1.6c0.9,0.4,1.8,0.5,2.7,0.8c1.1,0.3,2.2,0.8,2.6,2
		c0.7,1.9-0.7,3.8-2.9,4.1C439.4,112.6,439,112.6,438.8,112.6z"/>
	<path id="XMLID_212_" class="st6" d="M429.4,112.6c-2.3,0-3.6-1.1-4-3.3c0-0.2-0.2-0.6,0.2-0.5c0.3,0,0.9-0.3,1,0.3
		c0.3,2.2,2.7,2.8,4.4,2c0.7-0.3,1.2-0.9,1.2-1.7c0-0.8-0.5-1.3-1.1-1.6c-0.8-0.4-1.7-0.5-2.6-0.7c-0.4-0.1-0.8-0.2-1.2-0.4
		c-1-0.4-1.5-1.2-1.6-2.3c-0.1-1,0.3-1.9,1.2-2.5c1.4-0.9,2.9-1,4.4-0.3c1.2,0.5,1.7,1.5,1.8,2.7c0,0.2,0,0.4-0.3,0.4
		c-0.3-0.1-0.9,0.3-1-0.3c-0.2-2-2.3-2.4-3.7-1.9c-0.7,0.2-1.1,0.7-1.2,1.5c-0.1,0.8,0.4,1.3,1,1.6c0.8,0.4,1.7,0.5,2.6,0.8
		c0.5,0.1,1,0.3,1.4,0.5c1.9,1.1,2,3.7,0.2,4.9C431.4,112.4,430.5,112.6,429.4,112.6z"/>
	<path id="XMLID_211_" class="st6" d="M348.4,103.2c0.8-1.2,1.7-1.9,3-1.9c2.5-0.1,3.7,1,3.8,3.4c0.1,2.4,0,4.9,0,7.3
		c0,0.6-0.5,0.3-0.7,0.4c-0.4,0.1-0.6-0.1-0.6-0.5c0-1.9,0-3.8,0-5.7c0-0.4,0-0.8,0-1.3c-0.1-1.2-0.7-2-1.6-2.3
		c-1.1-0.4-2.4,0-3.1,0.9c-0.7,0.8-0.8,1.8-0.8,2.8c0,1.8,0,3.6,0,5.4c0,0.5-0.2,0.6-0.7,0.6c-0.5,0-0.6-0.1-0.6-0.6
		c0-3.2,0-6.4,0-9.6c0-0.5,0.1-0.6,0.6-0.6c0.5,0,0.7,0.1,0.7,0.6C348.4,102.4,348.4,102.7,348.4,103.2z"/>
	<path id="XMLID_210_" class="st6" d="M302.8,110.5c-0.2,0.3-0.4,0.5-0.5,0.7c-0.9,1.3-2.6,1.8-4.2,1.3c-1.3-0.4-2.1-1.5-2.2-3.1
		c-0.1-2.4,0-4.9-0.1-7.3c0-0.6,0.3-0.5,0.6-0.5c0.4,0,0.6,0,0.6,0.5c0,2.1,0,4.1,0,6.2c0,0.4,0,0.7,0.1,1.1
		c0.2,1.2,0.8,1.9,1.8,2.1c1.3,0.3,2.3-0.1,3-1.1c0.6-0.8,0.8-1.8,0.8-2.8c0-1.8,0-3.6,0-5.4c0-0.5,0.2-0.6,0.7-0.6
		c0.5,0,0.6,0.2,0.6,0.7c0,3.2,0,6.3,0,9.5c0,0.4-0.1,0.7-0.6,0.7c-0.5,0-0.6-0.1-0.6-0.6C302.8,111.3,302.8,111,302.8,110.5z"/>
	<path id="XMLID_209_" class="st6" d="M392.6,110.5c-1,1.6-2.2,2.2-3.8,2.1c-1.7-0.1-2.7-1.1-3-2.7c-0.2-1.1-0.1-2.2-0.1-3.2
		c0-1.5,0-3.1,0-4.6c0-0.6,0.3-0.5,0.7-0.5c0.3,0,0.7-0.1,0.6,0.5c0,2.3,0,4.7,0,7c0,1.2,0.7,2.1,1.6,2.4c1.3,0.4,2.5,0,3.2-1.1
		c0.4-0.6,0.6-1.3,0.7-2c0.2-2,0.1-4,0.1-6c0-0.7,0.5-1,1.1-0.7c0.2,0.1,0.2,0.3,0.2,0.4c0,3.3,0,6.6,0,9.9c0,0.5-0.3,0.4-0.6,0.4
		c-0.3,0-0.6,0.1-0.6-0.4C392.6,111.5,392.6,111.1,392.6,110.5z"/>
	<path id="XMLID_208_" class="st6" d="M414.3,108.5c-0.1,0.6-0.2,1.1-0.4,1.6c-1.4,3.4-5.4,3-7,1c-1.7-2.1-1.9-6-0.2-8.2
		c1.1-1.5,2.7-2,4.4-1.6c1.6,0.3,2.6,1.3,3,2.9c0.1,0.2,0.3,0.6-0.1,0.6c-0.4,0-0.9,0.3-1.1-0.3c-0.3-1.2-1-2.1-2.3-2.2
		c-1.5-0.1-2.6,0.5-3.2,1.9c-0.9,2-0.9,4,0.3,5.8c0.6,1.1,1.6,1.5,2.9,1.4c1.3-0.2,2-1,2.4-2.1C413.2,108.4,413.2,108.4,414.3,108.5
		z"/>
	<path id="XMLID_207_" class="st6" d="M404.3,108.5c-0.3,2.5-1.8,4-4,4.1c-1.6,0.1-2.9-0.6-3.8-1.9c-1.5-2.1-1.4-5.6,0.1-7.7
		c1.1-1.5,2.6-2,4.4-1.7c1.6,0.3,2.6,1.2,3,2.8c0.1,0.2,0.4,0.7-0.1,0.8c-0.4,0.1-1,0.3-1.1-0.5c-0.2-1-0.9-1.8-1.9-2
		c-1.2-0.2-2.2,0.1-3,1c-1.5,1.8-1.5,5.3,0.1,7c0.7,0.8,1.7,1.2,2.8,0.9c1.2-0.2,1.8-1,2.2-2.1C403.2,108.4,403.2,108.4,404.3,108.5
		z"/>
	<path id="XMLID_206_" class="st6" d="M385.2,138c0,3.1-1,6-2.7,8.6c-0.1,0.2-0.2,0.4-0.4,0.4c-0.3,0.1-0.8,0.2-1,0
		c-0.2-0.2,0.2-0.5,0.3-0.7c2.8-5.5,2.8-11,0-16.6c-0.1-0.3-0.5-0.5-0.3-0.8c0.2-0.2,1.1,0,1.3,0.3c1,1.6,1.8,3.3,2.3,5.1
		C385,135.5,385.2,136.7,385.2,138z"/>
	<path id="XMLID_205_" class="st6" d="M118.4,128.9c-0.8,1.4-1.5,2.8-1.9,4.4c-1.1,4.5-0.7,8.9,1.5,13c0.4,0.6,0.4,0.7,0.2,0.7
		c-0.4,0-0.9,0.2-1.2-0.3c-1.2-2-2.3-4.1-2.6-6.5c-0.6-3.8,0.2-7.3,2.2-10.5C117.1,128.8,117.2,128.8,118.4,128.9z"/>
	<path id="XMLID_204_" class="st7" d="M183.4,136.1c0-2.1,0-4.2,0-6.3c0-0.5,0.1-0.7,0.6-0.7c1.2,0,1.2,0,1.2,1.3c0,4,0,8,0,12
		c0,0.6-0.2,0.8-0.7,0.7c-0.2,0-0.4,0-0.6,0c-0.5,0.1-0.6-0.2-0.6-0.6C183.4,140.4,183.4,138.3,183.4,136.1z"/>
	<path id="XMLID_203_" class="st7" d="M158.1,136.1c0,2.1,0,4.2,0,6.3c0,0.5-0.1,0.7-0.7,0.7c-1.2,0-1.2,0-1.2-1.2c0-4,0-8,0-11.9
		c0-0.7,0.2-0.9,0.8-0.8c0.1,0,0.3,0,0.4,0c0.5-0.1,0.7,0.1,0.7,0.6C158,131.9,158.1,134,158.1,136.1z"/>
	<path id="XMLID_202_" class="st7" d="M178.5,136.1c0-2.1,0-4.2,0-6.3c0-0.5,0.1-0.6,0.6-0.6c1.3,0,1.3,0,1.3,1.2c0,4,0,8,0,12
		c0,0.6-0.1,0.9-0.8,0.8c-0.2,0-0.3,0-0.5,0c-0.5,0.1-0.6-0.1-0.6-0.6C178.5,140.4,178.5,138.2,178.5,136.1z"/>
	<path id="XMLID_201_" class="st6" d="M318,101.5c1.2,0,1.2,0,1.6,1c0.9,2.7,1.8,5.5,2.7,8.2c0.3-0.4,0.4-0.8,0.5-1.2
		c0.8-2.5,1.6-5,2.5-7.5c0.1-0.5,0.9-0.8,1.3-0.5c0.3,0.2,0,0.4,0,0.6c-0.9,2.7-1.8,5.3-2.7,8c-0.2,0.5-0.4,1-0.5,1.5
		c-0.1,0.5-0.3,0.7-0.9,0.7c-0.6,0-0.8-0.2-1-0.7c-1.1-3.1-2.2-6.2-3.3-9.3C318.1,102,317.9,101.8,318,101.5z"/>
	<path id="XMLID_200_" class="st7" d="M310.5,106.8c0-1.2,0-2.4,0-3.5c0-0.5-0.1-0.7-0.6-0.6c-0.2,0-0.4,0-0.7,0
		c-0.5,0.1-0.5-0.2-0.5-0.6c0-0.3,0-0.6,0.5-0.6c1.3,0,1.3-0.1,1.3-1.4c0-0.4,0-0.8,0-1.2c0-0.4,0-0.7,0.6-0.7
		c0.5,0,0.7,0.1,0.7,0.7c-0.1,0.7,0,1.3,0,2c0,0.5,0.2,0.6,0.6,0.6c0.2,0,0.4,0,0.7,0c0.4,0,0.7-0.1,0.7,0.6c0,0.6-0.3,0.6-0.7,0.6
		c-1.3,0-1.3,0-1.3,1.3c0,2,0,4,0,6c0,1.2,0.2,1.4,1.4,1.3c0.4,0,0.6,0,0.6,0.5c0,0.4,0.1,0.7-0.5,0.7c-2.2,0-2.7-0.4-2.7-2.6
		C310.5,108.8,310.5,107.8,310.5,106.8z"/>
	<path id="XMLID_199_" class="st8" d="M338.6,106.8c0-1.2,0-2.4,0-3.5c0-0.5-0.1-0.7-0.6-0.6c-0.2,0-0.4,0-0.7,0
		c-0.5,0.1-0.5-0.2-0.5-0.6c0-0.4,0-0.6,0.5-0.6c1.3,0,1.3,0,1.3-1.3c0-0.4,0-0.8,0-1.2c-0.1-0.6,0.2-0.8,0.8-0.8
		c0.4,0,0.6,0.1,0.5,0.5c0,0.7,0,1.4,0,2.1c0,0.4,0.1,0.7,0.6,0.6c0.2,0,0.5,0,0.7,0c0.4,0,0.7,0,0.7,0.6c0,0.6-0.3,0.6-0.7,0.6
		c-1.3,0-1.3,0-1.3,1.2c0,2,0,4.1,0,6.1c0,1.1,0.3,1.3,1.3,1.2c0.3,0,0.7-0.1,0.6,0.5c0,0.5,0,0.8-0.6,0.7c-0.2,0-0.3,0-0.5,0
		c-1.5,0-2.1-0.5-2.1-2.1c0,0,0-0.1,0-0.1C338.6,109.1,338.6,107.9,338.6,106.8z"/>
	<path id="XMLID_198_" class="st5" d="M153.1,136.1c0,2.1,0,4.2,0,6.3c0,0.5-0.1,0.7-0.6,0.6c-1.2,0-1.2,0-1.2-1.2c0-4,0-8,0-12
		c0-0.6,0.1-0.9,0.8-0.8c0.2,0,0.3,0,0.5,0c0.5-0.1,0.6,0.1,0.6,0.6C153.1,131.9,153.1,134,153.1,136.1z"/>
	<path id="XMLID_197_" class="st5" d="M279.4,136.1c0,2.1,0,4.2,0,6.3c0,0.5-0.1,0.7-0.6,0.7c-1.2,0-1.2,0-1.2-1.2c0-4,0-7.9,0-11.9
		c0-0.8,0.2-1,0.9-0.9c0.1,0,0.2,0,0.4,0c0.5-0.1,0.6,0.1,0.6,0.6C279.4,131.9,279.4,134,279.4,136.1z"/>
	<path id="XMLID_196_" class="st5" d="M287.8,136.1c0-2.1,0-4.2,0-6.3c0-0.5,0.1-0.7,0.6-0.7c1.2,0,1.2,0,1.2,1.2c0,4,0,8,0,12.1
		c0,0.6-0.1,0.8-0.7,0.7c-0.2,0-0.4,0-0.6,0c-0.5,0.1-0.6-0.2-0.6-0.6C287.8,140.4,287.8,138.2,287.8,136.1z"/>
	<path id="XMLID_195_" class="st5" d="M308.4,136.2c0,2.1,0,4.2,0,6.3c0,0.6-0.2,0.7-0.7,0.7c-1.1,0-1.1,0-1.1-1.1
		c0-4.1,0-8.1,0-12.2c0-0.6,0.2-0.8,0.7-0.7c0.2,0,0.4,0,0.6,0c0.4-0.1,0.5,0.2,0.5,0.5C308.4,131.9,308.4,134,308.4,136.2z"/>
	<path id="XMLID_194_" class="st5" d="M322.5,136.1c0-2,0-4.1,0-6.1c0-0.7,0.2-1,0.9-0.8c0,0,0.1,0,0.1,0c0.6-0.1,0.8,0.1,0.8,0.8
		c0,4.1,0,8.3,0,12.4c0,0.5-0.1,0.8-0.7,0.7c-0.1,0-0.3,0-0.4,0c-0.5,0.1-0.7-0.1-0.7-0.7C322.5,140.3,322.5,138.2,322.5,136.1z"/>
	<path id="XMLID_193_" class="st5" d="M350.9,136.1c0,2.1,0,4.2,0,6.3c0,0.5-0.1,0.7-0.6,0.7c-1.2,0-1.2,0-1.2-1.2c0-4,0-8,0-12.1
		c0-0.6,0.2-0.8,0.8-0.7c0.2,0,0.3,0,0.5,0c0.5-0.1,0.6,0.1,0.6,0.6C350.9,131.9,350.9,134,350.9,136.1z"/>
	<path id="XMLID_192_" class="st6" d="M176.6,128.8c0.6-0.1,0.7,0.1,0.5,0.6c-1.8,4.5-3.5,9-5.2,13.4c-0.2,0.5-1,0.8-1.4,0.5
		c-0.3-0.2,0-0.4,0-0.6c1.2-3.2,2.5-6.5,3.7-9.7c0.5-1.2,1-2.4,1.4-3.6C175.8,129,176,128.7,176.6,128.8z"/>
	<path id="XMLID_191_" class="st9" d="M307.5,104.9c0,2.3,0,4.5,0,6.8c0,0.5-0.1,0.7-0.6,0.7c-0.5,0-0.7-0.1-0.7-0.6
		c0-4.6,0-9.1,0-13.7c0-0.5,0.2-0.6,0.7-0.6c0.5,0,0.7,0.2,0.6,0.7C307.4,100.3,307.5,102.6,307.5,104.9z"/>
	<path id="XMLID_190_" class="st9" d="M344.9,106.9c0,1.6,0,3.2,0,4.9c0,0.6-0.3,0.5-0.7,0.5c-0.4,0-0.6,0-0.6-0.5
		c0-3.2,0-6.5,0-9.7c0-0.5,0.2-0.6,0.6-0.5c0.4,0,0.7-0.1,0.7,0.5C344.8,103.7,344.9,105.3,344.9,106.9z"/>
	<path id="XMLID_189_" class="st5" d="M315.5,106.9c0-1.6,0-3.2,0-4.9c0-0.5,0.2-0.5,0.6-0.5c0.3,0,0.7-0.1,0.7,0.5
		c0,3.3,0,6.5,0,9.8c0,0.6-0.4,0.5-0.7,0.5c-0.5,0.1-0.6-0.1-0.6-0.6C315.5,110.1,315.5,108.5,315.5,106.9z"/>
	<path id="XMLID_188_" class="st10" d="M343.6,98.4c0-0.1,0-0.3,0-0.4c-0.1-0.5,0.1-0.7,0.6-0.6c0.4,0,0.8,0,0.7,0.6
		c0,0.3,0,0.5,0,0.8c0,0.7-0.3,1-1,0.8c-0.2-0.1-0.2-0.1-0.2-0.3C343.6,99,343.6,98.7,343.6,98.4z"/>
	<path id="XMLID_187_" class="st11" d="M316.7,98.5c-0.2,0.3,0.3,0.9-0.3,1c-0.7,0.2-0.9,0-0.9-0.8c0-0.3,0-0.5,0-0.8
		c0-0.4,0.1-0.6,0.5-0.6C317,97.3,316.6,98,316.7,98.5z"/>
	<path id="XMLID_186_" class="st12" d="M185.1,28.7c-0.2,0-0.5,0-0.7,0c0,0-0.1-0.1-0.1-0.1c0-0.1,0.1-0.1,0.2-0.1
		C184.7,28.5,184.9,28.6,185.1,28.7z"/>
	<path id="XMLID_185_" class="st13" d="M196.8,91.2c0,0,0.1,0.1,0.1,0.1c-0.1,0.3-0.2,0.5-0.3,0.8c-0.1,0.1-0.1,0.1-0.2,0
		C196.6,91.8,196.6,91.5,196.8,91.2z"/>
	<path id="XMLID_184_" class="st14" d="M202.9,98.3c0,0.1,0.1,0.1,0.1,0.2c-0.1,0.2-0.1,0.5-0.2,0.7c0,0.1-0.1,0.1-0.1,0
		C202.7,98.9,202.7,98.5,202.9,98.3z"/>
	<path id="XMLID_183_" class="st15" d="M202.4,100.7c0.2,0.4,0,0.6-0.1,0.9C202.1,101.2,202.3,101,202.4,100.7z"/>
	<path id="XMLID_182_" class="st16" d="M196.5,92.1c0.1,0,0.1,0,0.2,0c-0.1,0.3-0.1,0.6-0.4,0.8C196.3,92.6,196.3,92.3,196.5,92.1z"
		/>
	<path id="XMLID_181_" class="st17" d="M192.3,90.3c0.1,0.1,0.1,0.1,0.2,0.2c-0.1,0.2-0.3,0.3-0.6,0.4
		C191.9,90.6,192,90.4,192.3,90.3z"/>
	<path id="XMLID_180_" class="st18" d="M189.2,82.8c0,0.2-0.2,0.4-0.4,0.6C188.8,83,189,82.9,189.2,82.8
		C189.2,82.8,189.2,82.8,189.2,82.8z"/>
	<path id="XMLID_179_" class="st19" d="M202.7,99.2c0,0,0.1,0,0.1,0c-0.1,0.2-0.1,0.4-0.2,0.7C202.6,99.5,202.5,99.3,202.7,99.2z"/>
	<path id="XMLID_178_" class="st20" d="M223.1,78.4c0.1,0,0.1,0,0.2,0c0.2,0.1,0.2,0.2,0.2,0.4C223.3,78.7,223.1,78.6,223.1,78.4z"
		/>
	<path id="XMLID_177_" class="st21" d="M213.9,85.3c0.1-0.1,0.1-0.1,0.2-0.2c0.1,0.1,0.3,0.3,0.2,0.4
		C214.1,85.6,214,85.5,213.9,85.3z"/>
	<path id="XMLID_176_" class="st22" d="M198.6,25c-2.4-3-1-10.9,2.5-14.5c-0.8,2.5-1.5,4.8-1.9,7.1C198.7,20,198.4,22.4,198.6,25z"
		/>
	<path id="XMLID_175_" class="st23" d="M381.8,72.5c-2.7,0-5.4,0.1-8.2,0c-2.6-0.1-4.1-1.6-4.3-4.3c-0.2-3.4,1.7-5.5,5.1-5.5
		c5,0,10,0,15,0c0.3,0,0.6,0,1,0c2.2,0.3,2.9,1.1,3.2,3.4c0.2,1.3,0.1,2.5-0.2,3.8c-0.5,1.6-1.4,2.4-3.1,2.5
		C387.5,72.7,384.7,72.5,381.8,72.5z"/>
	<path id="XMLID_174_" class="st23" d="M248.6,61.6c0,2.2,0.1,4.4,0,6.6c-0.1,2.7-1.5,4-4.1,4c-4.1,0.1-8.2,0.1-12.3,0
		c-2.7,0-4.1-1.4-4.2-4.1c-0.1-4.3-0.1-8.6,0-13c0-2.7,1.5-4.1,4.2-4.1c4.1,0,8.1,0,12.2,0c2.8,0,4.1,1.3,4.2,4.1c0,0.2,0,0.4,0,0.7
		C248.6,57.7,248.6,59.6,248.6,61.6C248.6,61.6,248.6,61.6,248.6,61.6z"/>
	<path id="XMLID_173_" class="st23" d="M423.3,72.6c-2.6,0-5.2,0-7.8,0c-0.2,0-0.4,0-0.6,0c-3,0-4.1-1.1-4.1-4.1c0-5,0-10,0-15
		c0-0.5,0.1-1,0.2-1.5c0.3-1.6,1.1-2.3,2.7-2.5c0.5-0.1,1.1-0.1,1.6-0.1c5.4,0,10.8,0,16.1,0c0.8,0,1.5,0.1,2.3,0.3
		c1,0.3,1.6,0.9,1.8,1.8c0.2,0.8,0.3,1.5,0.3,2.3c0,4.8,0,9.6,0,14.4c0,0.6-0.1,1.3-0.2,1.9c-0.3,1.5-1.1,2.2-2.7,2.4
		c-1.9,0.2-3.8,0.1-5.7,0.1C425.9,72.6,424.6,72.6,423.3,72.6z"/>
	<path id="XMLID_172_" class="st23" d="M215,130.9c0.3,1,0.6,1.8,0.9,2.6c0.4,1.2,0.8,2.3,1.2,3.5c0.1,0.3,0.2,0.4-0.2,0.4
		c-1.3,0-2.5,0-3.8,0c-0.3,0-0.4-0.1-0.3-0.4C213.5,135,214.2,133,215,130.9z"/>
	<path id="XMLID_171_" class="st23" d="M126.6,137.3c-1.6,0-3,0-4.5,0c0.8-2.1,1.5-4.2,2.3-6.4C125.2,133.1,125.9,135.2,126.6,137.3
		z"/>
	<path id="XMLID_170_" class="st23" d="M334.3,137.3c-1.5,0-3,0-4.6,0c0.8-2.1,1.5-4.2,2.3-6.5C332.8,133.1,333.6,135.2,334.3,137.3
		z"/>
	<path id="XMLID_169_" class="st23" d="M364.7,106.8c0,1-0.2,1.9-0.7,2.8c-1.2,1.9-3.7,2-4.9,0.1c-1.1-1.6-1-4.5,0.1-6.1
		c1.2-1.8,3.7-1.7,4.8,0.1C364.5,104.7,364.7,105.7,364.7,106.8z"/>
	<path id="XMLID_168_" class="st23" d="M334.2,106.6c0,0.8,0.1,1.5,0,2.2c-0.2,1.8-2.4,3.1-4.1,2.5c-0.8-0.3-1.4-1.1-1.5-1.9
		c0-0.8,0.4-1.5,1.3-1.8c0.6-0.3,1.3-0.4,2-0.5C332.7,107,333.5,106.9,334.2,106.6z"/>
	<path id="XMLID_167_" class="st23" d="M419.9,106.1c-0.9,0-1.8,0-2.7,0c-0.2,0-0.4,0.1-0.4-0.3c0-1.8,1.7-3.5,3.4-3.5
		c1.8,0.1,2.8,2.1,2.9,3.5c0,0.4-0.2,0.3-0.4,0.3C421.7,106.1,420.8,106.1,419.9,106.1z"/>
</g>
<g id="XMLID_2_">
</g>
<g id="XMLID_3_">
</g>
<g id="XMLID_4_">
</g>
<g id="XMLID_5_">
</g>
<g id="XMLID_6_">
</g>
<g id="XMLID_7_">
</g>
</svg>
