<svg id="Layer_1" data-name="Layer 1" xmlns="http://www.w3.org/2000/svg" xmlns:xlink="http://www.w3.org/1999/xlink" viewBox="0 0 11.59 21.6"><defs><style>.cls-1{clip-path:url(#clip-path);}.cls-2{fill:#fff;fill-rule:evenodd;}</style><clipPath id="clip-path" transform="translate(-655.28 -245.07)"/></defs><title>whitelogo</title><g class="cls-1"><path class="cls-2" d="M661.38,247.29a8.09,8.09,0,0,0-.6,3.14s-.35-.27-.26-1.08a2.83,2.83,0,0,1,.86-2.06M664.7,250a3.63,3.63,0,0,0-1.65,2.81s1.94.65,2.63-.72c0,0,.68-1.29.94-1.84l.26-.55c-2-1.3-5.09.59-4.32,2.65C662.56,252.39,663.31,250.16,664.7,250Zm-3.51-5a1.94,1.94,0,0,1-.21,1.33,4.31,4.31,0,0,0-1,2.9,6,6,0,0,0,.54,2.21s-1.64-1.45-3.11-.9a3.62,3.62,0,0,0-1.77,1.23,10.62,10.62,0,0,1,1.27,1c.34.39,2.27,1.69,3.55-.11a3.34,3.34,0,0,0-3.05-1.59,3.65,3.65,0,0,1,3.31,1s2.59,1.93,2.33,4.52c0,0-.17,1.5-.66,1.82a4.83,4.83,0,0,0-4.49-.68s2.76-1.49,4.11-.1c0,0,.15.25.2.37l0,.13a.69.69,0,0,0,.13-.9c-.3-.59-2.7-3.13-6.06-.7a2.75,2.75,0,0,0-.64,3.66s1.41,2.47,5.24.85c0,0,0,.48-.29.56a3,3,0,0,1-.7.16,1.58,1.58,0,0,0-.81.26,2.23,2.23,0,0,0-.4.35,3.76,3.76,0,0,0-.3.42,1.7,1.7,0,0,1,.78-.58,4.48,4.48,0,0,1,.83-.19,1.24,1.24,0,0,0,1.08-.53c.39-.49,1-1.2,1-1.2s.28-.16.1.19a8.06,8.06,0,0,1-1,1.56c-.33.32-.48.67-.9,1.09s-.67.77-.9.94-.23.25-.23.25a6.32,6.32,0,0,0,1.08-.8,3.6,3.6,0,0,1,.52-.51s-.43,1.42-.66,2a20.74,20.74,0,0,1,1.09-2.31,10.18,10.18,0,0,0,1.12-1.78s-.07,1-.08,1.35-.28,1.32-.29,1.73a16.45,16.45,0,0,1-.39,2.58s.72-2.38.71-2.69a1.91,1.91,0,0,1,0-.41,4.44,4.44,0,0,0,.54,1.44,5.59,5.59,0,0,1,.36.47,21.45,21.45,0,0,1-.73-2.15,3.28,3.28,0,0,1,0-1,3.61,3.61,0,0,0,.36,1.17,3.27,3.27,0,0,0,.82.92,6.14,6.14,0,0,1-1.15-2.49v-1.3s.07-.29.25.24a7.15,7.15,0,0,0,.58,1.19,2.8,2.8,0,0,0,.71,1l.34.23a3.19,3.19,0,0,0-.44-.59,4.67,4.67,0,0,1-.59-.89c-.25-.41-.64-1.42-.5-1.36s.36.61.94.72,1.81-.21,2.7.69a2,2,0,0,0-1.8-.88,1.9,1.9,0,0,1-1.88-1c-.07-.19-.11-.12,0-.41a6,6,0,0,0,.84-3.89c-.36-1.88-2.76-4-2.76-4a2.74,2.74,0,0,1,.21-1.56C661.51,249.61,663.09,247,661.19,245.07Z" transform="translate(-655.28 -245.07)"/></g></svg>